<svg width="152" height="167" viewBox="0 0 152 167" fill="none" xmlns="http://www.w3.org/2000/svg">
<g clip-path="url(#clip0_398_7)">
<path d="M93.3691 42.93L60.6191 52.67L74.3391 0L93.3691 42.93Z" fill="black"/>
<path d="M113.06 86.3199L140.5 137.35L91.0996 119.43L91.5096 118.6C98.1996 105.13 104.31 94.8799 110.19 87.2599L110.23 87.2099C111.59 85.6899 112.45 85.8299 112.93 86.2199L113.06 86.3199Z" fill="black"/>
<path d="M137.01 45.0598C110.62 73.0098 84.93 104.12 75.7 142.17L75.62 142.5L75.33 142.68L35.7 166.9H35.69L36.3 164.84C46.13 131.85 60.39 104.69 78.71 83.9798L54.39 100.16L0 80.2398L151.86 31.0498L137.01 45.0598Z" fill="black"/>
</g>
<defs>
<clipPath id="clip0_398_7">
<rect width="151.86" height="166.9" fill="white"/>
</clipPath>
</defs>
</svg>
