<svg width="153" height="168" viewBox="0 0 153 168" fill="none" xmlns="http://www.w3.org/2000/svg">
<path d="M35.9692 167.26L36.5793 165.2C46.4093 132.21 60.6693 105.05 78.9893 84.3402L54.6693 100.52L0.279297 80.6002L152.139 31.4102L137.289 45.4202C110.899 73.3702 85.2092 104.48 75.9792 142.53L75.8993 142.86L75.6093 143.04L35.9792 167.26H35.9692ZM90.2093 74.9002L84.8793 80.4002C64.8593 101.06 49.3593 129.05 38.7793 163.61L74.4493 141.81C78.7393 124.35 86.7393 107.13 98.9193 89.1902C110.779 71.7202 125.019 56.0102 136.099 44.2702L136.129 44.2402L145.679 35.2302L5.30927 80.7002L54.4393 98.6902L90.1993 74.9002H90.2093Z" fill="black"/>
<path d="M140.779 137.72L91.3789 119.79L91.7889 118.96C98.4789 105.49 104.589 95.2402 110.469 87.6202L110.509 87.5702C111.869 86.0502 112.729 86.1902 113.209 86.5802L113.339 86.6802L140.779 137.71V137.72ZM93.6689 118.88L137.279 134.7L112.249 88.1602C112.109 88.2702 111.929 88.4402 111.739 88.6502C106.049 96.0302 100.139 105.92 93.6589 118.87L93.6689 118.88Z" fill="black"/>
<path d="M60.8984 53.0404L74.6184 0.360352L93.6484 43.2904L60.8984 53.0303V53.0404ZM75.0284 5.35035L63.2284 50.6404L91.3884 42.2703L75.0284 5.36035V5.35035Z" fill="black"/>
</svg>
