<?xml version="1.0" encoding="UTF-8"?>
<svg id="Layer_1" xmlns="http://www.w3.org/2000/svg" version="1.1" xmlns:xlink="http://www.w3.org/1999/xlink" viewBox="0 0 2160 1080">
  <!-- Generator: Adobe Illustrator 29.1.0, SVG Export Plug-In . SVG Version: 2.1.0 Build 142)  -->
  <defs>
    <style>
      .st0 {
        fill: url(#linear-gradient2);
      }

      .st1 {
        fill: #306a45;
      }

      .st2 {
        fill: #fff;
      }

      .st3 {
        fill: url(#linear-gradient1);
      }

      .st4 {
        fill: url(#linear-gradient4);
      }

      .st5 {
        fill: url(#linear-gradient3);
      }

      .st6 {
        fill: #77c044;
      }

      .st7 {
        fill: url(#linear-gradient);
      }
    </style>
    <linearGradient id="linear-gradient" x1="437.36" y1="596.11" x2="1702.57" y2="596.11" gradientUnits="userSpaceOnUse">
      <stop offset="0" stop-color="#67c18a"/>
      <stop offset=".2" stop-color="#049d4f"/>
      <stop offset=".66" stop-color="$theme-color"/>
    </linearGradient>
    <linearGradient id="linear-gradient1" x1="407.97" y1="652.72" x2="1733.04" y2="652.72" gradientUnits="userSpaceOnUse">
      <stop offset=".2" stop-color="#f4d50e"/>
      <stop offset=".51" stop-color="#fee700"/>
      <stop offset=".75" stop-color="#f7db08"/>
      <stop offset="1" stop-color="#f4d50e"/>
    </linearGradient>
    <linearGradient id="linear-gradient2" x1="434.7" y1="408.38" x2="873.09" y2="371.11" xlink:href="#linear-gradient1"/>
    <linearGradient id="linear-gradient3" x1="765.17" y1="225.89" x2="1235.36" y2="225.89" xlink:href="#linear-gradient"/>
    <linearGradient id="linear-gradient4" x1="1227.15" y1="206.5" x2="1345.28" y2="206.5" xlink:href="#linear-gradient"/>
  </defs>
  <path class="st7" d="M1693.21,645.35c-4.65,14.74-23.04,67.2-88.19,116.87-117.8,89.8-245.63,61.87-448.21,84.04-319.76,34.99-415.33,149.94-573.07,72.77-24.46-12.02-92.59-46.51-126.72-122.57-33.44-74.57-22.23-163.44,18.7-228.78,12.82-20.5,28.18-37.1,43.79-50.54,30.9-26.63,62.74-40.63,78.04-47.13,127.15-54.07,227.67,9.23,278.7-49.55,1.49-1.73,3.04-3.72,4.58-5.88,9.1-12.88,17.96-33.82,17.09-68.75-.12-5.64-.49-11.58-1.18-17.96,2.17,1.73,4.71,3.78,7.74,6.01,0,.06.06.12.12.12,33.32,25.27,117.12,80.08,216.95,65.46,71.47-10.47,130.68-53.45,175.09-89.74.8-.68,1.67-1.36,2.48-2.04,5.08-4.15,9.91-8.24,14.62-12.14.8-.74,1.67-1.42,2.48-2.11,21.43-17.96,37.97-34.43,49.3-46.39,24.22,3.34,58.4,10.22,96.86,25.45,19.51,7.74,40.13,17.59,61.07,30.29,32.58,19.69,112.1,67.76,151.98,165.49,12.76,31.21,42.11,100.15,17.77,177.07Z"/>
  <path class="st3" d="M1727.21,672.97c-52.64,249.78-517.21,334.63-557.96,341.56-264.39,45.46-663.06,14.62-743.14-182.52-24.59-60.45-29.6-162.08,19.69-240.8,21.18-33.82,48.74-57.6,73.7-74.07-15.61,13.44-30.97,30.04-43.79,50.54-40.94,65.34-52.15,154.21-18.7,228.78,34.13,76.05,102.25,110.55,126.72,122.57,157.75,77.17,253.31-37.78,573.07-72.77,202.58-22.17,330.42,5.76,448.21-84.04,65.15-49.67,83.55-102.13,88.19-116.87,24.34-76.92-5.02-145.85-17.77-177.07-39.89-97.73-119.41-145.79-151.98-165.49-20.93-12.7-41.56-22.54-61.07-30.29,26.69,8.98,56.05,21.74,86.15,39.89,34.31,20.75,117.98,71.35,159.97,174.22,28.55,69.92,28.3,140.9,18.7,186.36Z"/>
  <path class="st0" d="M846.78,396c-51.03,58.77-151.55-4.52-278.7,49.55-20.75,8.79-84.11,35.74-121.82,97.67-14.06-125.17,63.48-246.06,188.59-282.42,82.99-24.15,168.27-5.7,232.44,42.61,5.57,52.64-8.61,78.84-20.5,92.59Z"/>
  <g>
    <path class="st1" d="M768.69,996.89c-2.37-14.14-3.56-21.21-5.94-35.35,3.37-.57,5.06-.85,8.43-1.42.93,5.52,1.39,8.28,2.32,13.79,5.63-.95,8.44-1.42,14.07-2.36-.93-5.52-1.39-8.28-2.32-13.79,3.44-.58,5.16-.87,8.6-1.44,2.38,14.14,3.56,21.21,5.94,35.35-3.44.58-5.16.87-8.6,1.44-.99-5.9-1.49-8.85-2.48-14.74-5.63.95-8.44,1.42-14.07,2.36.99,5.9,1.49,8.85,2.48,14.74-3.37.57-5.06.85-8.43,1.42Z"/>
    <path class="st1" d="M830.62,976.21c-6.86,1.15-10.29,1.73-17.14,2.88.33,1.25,1.11,2.27,2.35,3.05,1.24.79,2.52,1.07,3.82.85.16-.03.23-.04.39-.07,2.23-.38,4.62-1.58,7.14-3.61,1.07,1.61,1.61,2.42,2.69,4.03-.94,1.27-2.36,2.45-4.29,3.53-1.92,1.09-3.78,1.78-5.57,2.08-4.43.74-8.09.14-10.93-1.84-2.73-1.9-4.45-4.94-5.14-9.07-.67-3.98.11-7.52,2.36-10.56,2.07-2.8,5.06-4.53,8.9-5.17,4.09-.69,7.51.07,10.25,2.24,2.47,1.96,4.02,4.82,4.66,8.58.21,1.23.31,1.84.52,3.07ZM812.01,973.42c3.75-.63,5.63-.95,9.38-1.58-.69-2.98-2.49-4.23-5.4-3.74-2.75.46-4.08,2.24-3.99,5.32Z"/>
    <path class="st1" d="M859.05,981.71c-2.7.45-4.05.68-6.76,1.13-.38-.88-.57-1.32-.94-2.2-1.53,2.29-3.73,3.67-6.59,4.15-5.62.94-8.9-1.36-9.83-6.9-.46-2.72.34-5.02,2.4-6.89,2.23-2.02,5.81-3.44,10.77-4.28.02,0,.03,0,.05,0,0-.02,0-.03,0-.06-.23-1.38-.61-2.24-1.15-2.59-.54-.35-1.55-.4-3.04-.15-2.61.44-4.78,1.61-6.53,3.51-1-1.17-2.04-2.49-3.13-3.95,1.93-1.97,3.71-3.41,5.33-4.31,1.63-.9,3.58-1.55,5.85-1.93,2.87-.48,5.29.18,7.28,1.94,1.96,1.74,3.26,4.37,3.85,7.91.98,5.85,1.47,8.78,2.46,14.63ZM848.7,971.68c-1.79.3-3.19.88-4.21,1.74-1.02.86-1.44,1.83-1.26,2.91,0,.02,0,.03,0,.06.39,1.66,1.23,2.4,2.5,2.22.04,0,.07-.01.11-.02,1.04-.18,1.89-.69,2.53-1.55.64-.85.9-1.79.76-2.8-.17-1.03-.26-1.54-.43-2.57Z"/>
    <path class="st1" d="M868.47,943.09c2.42,14.41,3.63,21.61,6.05,36.02-3.35.56-5.03.84-8.38,1.41-2.13-12.67-3.19-19-5.32-31.66,3.06-2.31,4.59-3.46,7.65-5.76Z"/>
    <path class="st1" d="M896.11,968.48c1.38,1.49,2.06,2.24,3.44,3.73-2.61,2.93-5.76,4.7-9.44,5.32-2.42.41-4.26.11-5.52-.88-1.26-.99-2.11-2.83-2.56-5.51-.81-4.85-1.22-7.27-2.04-12.12-1.36.23-2.04.34-3.41.57-.45-2.68-.68-4.02-1.13-6.7,1.39-.23,2.08-.35,3.46-.58-.28-1.65-.42-2.48-.69-4.13,2.03-1.57,4.59-3.53,7.68-5.88.58,3.44.87,5.16,1.44,8.6,2.79-.47,4.19-.7,6.98-1.17.45,2.68.68,4.02,1.13,6.7-2.81.47-4.22.71-7.04,1.18.73,4.36,1.1,6.53,1.83,10.89.01.08,0,.23,0,.4,0,.1.03.2.05.28.22,1.3.78,1.88,1.67,1.73.97-.16,2.35-.97,4.13-2.41Z"/>
    <path class="st1" d="M899.91,942.58c3.04-2.42,4.56-3.63,7.6-6.04.93,5.52,1.39,8.28,2.32,13.79.04-.43.38-1.03,1.01-1.81.64-.78,1.31-1.43,2.03-1.92,1.05-.72,2.07-1.15,3-1.31,3.31-.56,5.83-.08,7.56,1.43,1.73,1.51,2.93,4.3,3.61,8.35.99,5.92,1.49,8.88,2.49,14.8-3.35.56-5.03.84-8.38,1.41-.98-5.81-1.46-8.71-2.44-14.52-.51-3.02-2.06-4.3-4.67-3.87-1.75.29-2.9.95-3.46,1.96,1.19,7.08,1.78,10.62,2.97,17.7-3.35.56-5.03.84-8.38,1.41-2.11-12.55-3.16-18.83-5.27-31.39Z"/>
    <path class="st1" d="M955.82,939.39c-2.25,12.3-3.38,18.45-5.63,30.75-.92,4.98-3.02,7.74-6.3,8.29-2.76.46-5.77-.27-9.04-2.21.65-1.6,1.16-3.03,1.52-4.28,1.61.72,2.98.99,4.1.8.6-.1,1.13-.64,1.62-1.62.49-.98.79-2.15.9-3.51-.62.1-.94.16-1.56.26-5.1-9.57-7.65-14.36-12.75-23.93,3.28-.55,4.92-.83,8.21-1.38,2.13,4.47,4.59,9.41,7.38,14.84,1.32-6.65,1.97-9.98,3.29-16.63,3.31-.56,4.96-.83,8.27-1.39Z"/>
    <path class="st1" d="M978.34,961.68c-2.38-14.14-3.56-21.21-5.94-35.35,9.63-1.62,14.44-2.43,24.07-4.04.46,2.73.69,4.09,1.15,6.82-6.19,1.04-9.28,1.56-15.47,2.6.47,2.81.71,4.22,1.18,7.03,5.14-.86,7.71-1.29,12.84-2.16.46,2.73.69,4.09,1.14,6.81-5.14.86-7.71,1.29-12.84,2.16.99,5.88,1.48,8.81,2.47,14.69-3.44.58-5.16.87-8.6,1.44Z"/>
    <path class="st1" d="M1012.84,929.12c4.25-.71,7.79.21,10.63,2.75,2.34,2.1,3.81,4.93,4.41,8.51.7,4.17-.24,7.81-2.82,10.92-2.07,2.49-4.67,4-7.8,4.53-3.58.6-6.87-.24-9.9-2.53-2.76-2.1-4.45-4.97-5.07-8.62-.69-4.13,0-7.66,2.07-10.57,1.92-2.7,4.74-4.36,8.46-4.98ZM1010.79,943.25c.8,4.77,2.65,6.9,5.56,6.42,2.83-.48,3.84-3.09,3.04-7.86-.85-5.06-2.71-7.35-5.58-6.87-2.87.48-3.87,3.25-3.02,8.32Z"/>
    <path class="st1" d="M1042.27,924.18c4.24-.71,7.79.21,10.63,2.75,2.34,2.1,3.81,4.93,4.41,8.51.7,4.17-.24,7.81-2.82,10.92-2.07,2.49-4.67,4-7.79,4.53-3.58.6-6.87-.24-9.9-2.53-2.76-2.1-4.45-4.97-5.07-8.62-.69-4.13,0-7.66,2.07-10.57,1.92-2.7,4.74-4.36,8.46-4.98ZM1040.22,938.3c.8,4.77,2.65,6.9,5.55,6.42,2.83-.48,3.84-3.09,3.04-7.86-.85-5.06-2.71-7.35-5.58-6.87-2.87.48-3.87,3.25-3.02,8.32Z"/>
    <path class="st1" d="M1077.31,920.13c-.47-2.81-.71-4.22-1.18-7.03,3.04-2.42,4.56-3.63,7.6-6.04,2.41,14.36,3.62,21.55,6.03,35.91-2.7.45-4.06.68-6.76,1.14-.65-.99-.97-1.49-1.62-2.48-.37,1.02-1.14,1.96-2.34,2.83-1.2.87-2.48,1.42-3.86,1.65-4.1.69-7.42-.1-9.93-2.35-2.03-1.83-3.33-4.47-3.91-7.9-.85-5.06-.05-9.18,2.42-12.29,1.82-2.29,4.18-3.69,7.05-4.17,2.46-.41,4.62-.16,6.5.74ZM1078.7,928.4c-1.03-2.73-2.71-3.91-5.01-3.52-1.68.28-2.87,1.16-3.58,2.64-.71,1.48-.87,3.39-.47,5.73.84,5.03,2.7,7.3,5.56,6.82,1.79-.3,3.08-1.42,3.86-3.35.49-1.19.67-2.2.53-3.02-.36-2.12-.53-3.18-.89-5.31Z"/>
    <path class="st1" d="M1106.01,921.11c-.45-2.7-.68-4.06-1.13-6.76,1.63-.27,2.44-.41,4.08-.68-.22-1.29-.33-1.94-.54-3.24-.44-2.61-.2-4.59.72-5.95.92-1.36,2.61-2.25,5.07-2.66,3.39-.57,6.69.06,9.91,1.9-.96,1.95-1.44,2.93-2.39,4.88-1.83-.84-3.07-1.21-3.74-1.09-.93.16-1.27,1-1.01,2.52.15.89.23,1.34.37,2.23,2.82-.47,4.22-.71,7.04-1.18.45,2.7.68,4.06,1.13,6.76-2.81.47-4.22.71-7.04,1.18,1.25,7.44,1.87,11.16,3.12,18.6-3.35.56-5.03.84-8.38,1.41-1.25-7.44-1.87-11.16-3.12-18.6-1.63.27-2.45.41-4.08.68Z"/>
    <path class="st1" d="M1138.88,907.95c4.24-.71,7.79.21,10.63,2.75,2.34,2.1,3.81,4.93,4.41,8.51.7,4.17-.24,7.81-2.82,10.92-2.07,2.49-4.67,4-7.79,4.53-3.58.6-6.87-.24-9.9-2.53-2.76-2.1-4.45-4.97-5.07-8.62-.69-4.13,0-7.66,2.07-10.57,1.92-2.7,4.74-4.36,8.46-4.98ZM1136.83,922.08c.8,4.77,2.65,6.9,5.55,6.42,2.83-.48,3.84-3.09,3.04-7.86-.85-5.06-2.71-7.35-5.58-6.87-2.87.48-3.87,3.25-3.02,8.32Z"/>
    <path class="st1" d="M1164.4,904.35c.42.73.63,1.1,1.05,1.83.09-.63.62-1.32,1.6-2.08.98-.76,1.94-1.22,2.87-1.37,3.58-.6,6.56.79,8.97,4.18-2.59,1.95-3.88,2.93-6.47,4.88-1.34-1.34-2.64-1.91-3.9-1.7-1,.17-1.57.78-1.7,1.84,1.18,7.04,1.77,10.56,2.95,17.59-3.28.55-4.92.83-8.21,1.38-1.7-10.14-2.56-15.21-4.26-25.36,2.84-.48,4.25-.71,7.09-1.19Z"/>
    <path class="st1" d="M1221.44,920.84c-2.7.45-4.05.68-6.76,1.13-.38-.88-.57-1.32-.94-2.2-1.53,2.29-3.73,3.67-6.59,4.15-5.62.94-8.9-1.36-9.83-6.9-.46-2.72.34-5.02,2.4-6.89,2.22-2.02,5.81-3.44,10.77-4.28.02,0,.03,0,.05,0,0-.02,0-.03,0-.06-.23-1.38-.61-2.24-1.15-2.59-.54-.35-1.55-.4-3.04-.15-2.61.44-4.78,1.61-6.53,3.51-1-1.17-2.04-2.49-3.13-3.95,1.93-1.97,3.71-3.41,5.33-4.31,1.63-.9,3.58-1.55,5.85-1.93,2.87-.48,5.29.18,7.27,1.94,1.96,1.74,3.26,4.37,3.85,7.91.98,5.85,1.48,8.78,2.46,14.63ZM1211.08,910.81c-1.79.3-3.19.88-4.21,1.74-1.02.86-1.44,1.83-1.26,2.91,0,.02,0,.03,0,.06.39,1.66,1.23,2.4,2.5,2.22.04,0,.07-.01.11-.02,1.04-.18,1.88-.69,2.53-1.55.64-.85.9-1.79.76-2.8-.17-1.03-.26-1.54-.43-2.57Z"/>
    <path class="st1" d="M1243.32,917.11c-2.37-14.1-3.55-21.14-5.92-35.24,2.64-.94,6.17-1.78,10.6-2.53,4.8-.81,8.6-.28,11.35,1.6,2.16,1.47,3.49,3.68,3.98,6.63.27,1.64-.21,3.28-1.47,4.92-1.26,1.65-2.72,2.61-4.39,2.89-.11.02-.24.04-.39.07,0,.02,0,.03,0,.06,2.57-.16,4.74.42,6.5,1.75,1.75,1.33,2.84,3.25,3.26,5.74.6,3.58-.5,6.55-3.27,8.93-2.4,2.08-5.9,3.52-10.48,4.28-3.87.65-7.13.95-9.78.9ZM1247.07,886.79c.46,2.75.69,4.12,1.15,6.87,1.39-.23,2.08-.35,3.46-.58,1.42-.24,2.37-.67,2.86-1.28.49-.62.63-1.56.42-2.83-.41-2.46-2.22-3.42-5.42-2.88-.86.14-1.68.38-2.47.7ZM1249.37,900.47c.59,3.48.88,5.23,1.46,8.71,1,.26,2.04.29,3.12.11,3.13-.53,4.46-2.14,4.01-4.86-.59-3.5-2.46-4.98-5.63-4.45-1.18.2-1.78.3-2.96.5Z"/>
    <path class="st1" d="M1297.05,897.86c-6.86,1.15-10.29,1.73-17.14,2.88.33,1.25,1.11,2.27,2.35,3.05,1.24.79,2.52,1.07,3.82.85.16-.03.23-.04.39-.07,2.23-.38,4.62-1.58,7.14-3.61,1.07,1.61,1.61,2.42,2.69,4.03-.94,1.27-2.36,2.45-4.29,3.53-1.92,1.09-3.78,1.78-5.56,2.08-4.43.74-8.1.14-10.93-1.84-2.73-1.9-4.45-4.94-5.14-9.07-.67-3.98.11-7.52,2.36-10.56,2.07-2.8,5.06-4.53,8.9-5.17,4.09-.69,7.51.07,10.25,2.24,2.47,1.96,4.03,4.82,4.66,8.58.21,1.23.31,1.84.52,3.07ZM1278.43,895.07c3.75-.63,5.63-.95,9.38-1.58-.69-2.98-2.49-4.23-5.4-3.74-2.75.46-4.08,2.24-3.99,5.32Z"/>
    <path class="st1" d="M1318.7,897.5c1.38,1.49,2.06,2.24,3.44,3.73-2.61,2.93-5.76,4.7-9.44,5.32-2.42.41-4.26.11-5.52-.88-1.26-.99-2.11-2.83-2.56-5.51-.81-4.85-1.22-7.27-2.04-12.12-1.36.23-2.04.34-3.41.57-.45-2.68-.68-4.02-1.13-6.7,1.39-.23,2.08-.35,3.46-.58-.28-1.65-.42-2.48-.69-4.13,2.03-1.57,4.59-3.53,7.68-5.88.58,3.44.87,5.16,1.44,8.6,2.79-.47,4.19-.7,6.98-1.17.45,2.68.68,4.02,1.13,6.7-2.81.47-4.22.71-7.04,1.18.73,4.36,1.1,6.53,1.83,10.89.01.08,0,.23,0,.4,0,.1.03.2.05.28.22,1.3.78,1.88,1.67,1.73.97-.16,2.35-.97,4.13-2.41Z"/>
    <path class="st1" d="M1342.15,893.56c1.38,1.49,2.06,2.24,3.44,3.73-2.61,2.93-5.76,4.7-9.44,5.32-2.42.41-4.26.11-5.52-.88-1.26-.99-2.11-2.83-2.56-5.51-.81-4.85-1.22-7.27-2.04-12.12-1.36.23-2.04.34-3.41.57-.45-2.68-.68-4.02-1.13-6.7,1.38-.23,2.08-.35,3.46-.58-.28-1.65-.42-2.48-.69-4.13,2.03-1.57,4.59-3.53,7.68-5.88.58,3.44.87,5.16,1.44,8.6,2.79-.47,4.19-.7,6.98-1.17.45,2.68.68,4.02,1.13,6.7-2.81.47-4.22.71-7.03,1.18.73,4.36,1.1,6.53,1.83,10.89.01.08,0,.23,0,.4,0,.1.03.2.05.28.22,1.3.78,1.88,1.67,1.73.97-.16,2.35-.97,4.13-2.41Z"/>
    <path class="st1" d="M1373.56,885.01c-6.86,1.15-10.29,1.73-17.14,2.88.33,1.25,1.11,2.27,2.35,3.05,1.24.79,2.52,1.07,3.82.85.16-.03.24-.04.39-.07,2.23-.38,4.62-1.58,7.14-3.61,1.07,1.61,1.61,2.42,2.69,4.03-.94,1.27-2.36,2.45-4.28,3.53-1.92,1.09-3.78,1.78-5.57,2.08-4.43.74-8.09.14-10.93-1.84-2.73-1.9-4.45-4.94-5.14-9.07-.67-3.98.11-7.53,2.36-10.56,2.07-2.8,5.06-4.53,8.9-5.17,4.09-.69,7.51.07,10.25,2.24,2.47,1.96,4.03,4.82,4.66,8.58.21,1.23.31,1.84.52,3.07ZM1354.95,882.22c3.75-.63,5.63-.95,9.38-1.58-.69-2.98-2.49-4.23-5.4-3.74-2.75.46-4.08,2.24-3.99,5.32Z"/>
    <path class="st1" d="M1383.66,867.52c.42.73.63,1.1,1.05,1.83.09-.63.62-1.32,1.6-2.08.99-.76,1.94-1.22,2.87-1.37,3.58-.6,6.56.79,8.97,4.18-2.59,1.95-3.88,2.93-6.47,4.88-1.34-1.34-2.64-1.91-3.9-1.7-1,.17-1.57.78-1.7,1.84,1.18,7.04,1.77,10.55,2.95,17.59-3.28.55-4.92.83-8.21,1.38-1.7-10.14-2.56-15.21-4.26-25.36,2.84-.48,4.25-.71,7.09-1.19Z"/>
    <path class="st1" d="M1420.2,887.45c-2.38-14.14-3.56-21.21-5.94-35.35,3.44-.58,5.16-.87,8.6-1.44,1.92,11.42,2.88,17.12,4.79,28.54,5.18-.87,7.77-1.31,12.96-2.18.46,2.73.69,4.09,1.14,6.81-8.62,1.45-12.93,2.17-21.55,3.62Z"/>
    <path class="st1" d="M1441.93,850.38s-.01-.07-.02-.11c-.23-1.38.03-2.64.8-3.78.76-1.14,1.82-1.83,3.16-2.05,1.41-.24,2.7.05,3.85.85,1.15.8,1.84,1.91,2.08,3.32,0,.05.01.07.02.11.53,3.13-1.05,5.27-4.25,5.77-3.03.47-5.12-1.05-5.63-4.11ZM1452.41,855.97c1.7,10.14,2.56,15.21,4.26,25.36-3.4.57-5.09.86-8.49,1.43-1.7-10.14-2.56-15.21-4.26-25.36,3.4-.57,5.09-.86,8.49-1.43Z"/>
    <path class="st1" d="M1459.07,861.8c-.45-2.7-.68-4.06-1.14-6.76,1.63-.27,2.45-.41,4.08-.68-.22-1.29-.33-1.94-.54-3.24-.44-2.61-.2-4.59.72-5.95.92-1.36,2.61-2.25,5.07-2.66,3.39-.57,6.69.06,9.91,1.9-.96,1.95-1.44,2.93-2.39,4.88-1.83-.84-3.07-1.21-3.74-1.09-.93.16-1.27,1-1.01,2.52.15.89.23,1.34.38,2.23,2.81-.47,4.22-.71,7.04-1.18.45,2.7.68,4.06,1.14,6.76-2.81.47-4.22.71-7.04,1.18,1.25,7.44,1.87,11.16,3.12,18.6-3.35.56-5.03.84-8.38,1.41-1.25-7.44-1.87-11.16-3.12-18.6-1.63.27-2.45.41-4.08.68Z"/>
    <path class="st1" d="M1508.09,862.41c-6.86,1.15-10.29,1.73-17.14,2.88.33,1.25,1.11,2.27,2.35,3.05,1.24.79,2.52,1.07,3.82.85.16-.03.24-.04.39-.07,2.23-.38,4.62-1.58,7.14-3.61,1.07,1.61,1.61,2.42,2.69,4.03-.94,1.27-2.36,2.45-4.29,3.53-1.92,1.09-3.78,1.78-5.56,2.08-4.43.74-8.09.14-10.93-1.84-2.73-1.9-4.45-4.94-5.14-9.07-.67-3.98.11-7.53,2.36-10.56,2.07-2.8,5.06-4.53,8.9-5.17,4.09-.69,7.51.07,10.25,2.24,2.47,1.96,4.03,4.82,4.66,8.58.21,1.23.31,1.84.52,3.07ZM1489.48,859.62c3.75-.63,5.63-.95,9.38-1.58-.69-2.98-2.49-4.23-5.4-3.74-2.75.46-4.08,2.24-3.99,5.32Z"/>
  </g>
  <path class="st6" d="M1398.63,550.9l-9.67-12.43.1.05c52.33,67.47,107.06,133.03,163.85,196.8l-.1-.05c-53.3-59.84-104.77-121.27-154.18-184.37h0Z"/>
  <g>
    <polygon class="st2" points="860.94 849.22 860.79 513.35 860.88 513.4 861.03 849.27 860.94 849.22 860.94 849.22"/>
    <polygon class="st2" points="860.79 513.35 1072.73 483.34 1072.83 483.4 860.88 513.4 860.79 513.35 860.79 513.35"/>
    <polygon class="st2" points="1072.73 483.34 1072.72 548.07 1072.82 548.12 1072.83 483.4 1072.73 483.34 1072.73 483.34"/>
    <polygon class="st2" points="1072.72 548.07 936.58 567.38 936.67 567.43 1072.82 548.12 1072.72 548.07 1072.72 548.07"/>
    <polygon class="st2" points="936.58 567.38 936.6 633.71 936.69 633.76 936.67 567.43 936.58 567.38 936.58 567.38"/>
    <polygon class="st2" points="936.6 633.71 1049.63 617.64 1049.73 617.69 936.69 633.76 936.6 633.71 936.6 633.71"/>
    <polygon class="st2" points="1049.63 617.64 1049.63 682.33 1049.73 682.38 1049.73 617.69 1049.63 617.64 1049.63 617.64"/>
    <polygon class="st2" points="1049.63 682.33 936.61 698.43 936.71 698.48 1049.73 682.38 1049.63 682.33 1049.63 682.33"/>
    <polygon class="st2" points="936.61 698.43 936.63 773.72 936.73 773.77 936.71 698.48 936.61 698.43 936.61 698.43"/>
    <polygon class="st2" points="936.63 773.72 1079.09 753.38 1079.18 753.44 936.73 773.77 936.63 773.72 936.63 773.72"/>
    <polygon class="st2" points="1079.08 818.02 860.94 849.22 861.03 849.27 1079.18 818.07 1079.08 818.02 1079.08 818.02"/>
    <polygon class="st2" points="1079.09 753.38 1079.08 818.02 1079.18 818.07 1079.18 753.44 1079.09 753.38 1079.09 753.38"/>
    <path class="st2" d="M1079.18,753.44v64.63s-218.15,31.2-218.15,31.2l-.15-335.87,211.94-30.01v64.72s-136.15,19.31-136.15,19.31l.02,66.33,113.04-16.07v64.69s-113.02,16.1-113.02,16.1l.02,75.3c47.49-6.78,94.97-13.56,142.46-20.34Z"/>
    <path class="st2" d="M1079.08,818.02v-64.63s-142.45,20.34-142.45,20.34l-.02-75.3,113.02-16.1v-64.69s-113.04,16.07-113.04,16.07l-.02-66.33,136.15-19.31v-64.72s-211.94,30.01-211.94,30.01l.15,335.87c72.71-10.4,145.43-20.8,218.14-31.2Z"/>
  </g>
  <path class="st2" d="M1573.78,747.27c-21.21,3.01-42.37,6.01-63.59,9.08-53.35-59.94-104.8-121.56-153.94-184.92l-.17,206.94-73.99,10.58.23-335.27,61.79-8.73c25.96,31.85,52.03,63.7,77.86,95.73,26.19,32.37,51.62,64.68,76.65,96.77,7.69-15.67,17.92-41.39,20.12-74.34-2.34-25.4-11.28-82.72-54.59-135.37-75.35-91.62-190.56-91.03-206.45-90.69,5.86-4.35,11.72-8.71,17.58-13.06,4.5-3.54,8.99-7.08,13.49-10.62,8.5.07,181.77,4.54,268.87,153.84,76.76,131.58,22.34,265.51,16.13,280.07Z"/>
  <g>
    <polygon class="st2" points="588.11 831.98 726.39 597.2 726.48 597.25 588.2 832.03 588.27 888.29 588.17 888.24 588.11 831.98 588.11 831.98"/>
    <polygon class="st2" points="726.39 597.2 592.3 616.23 592.39 616.28 726.48 597.25 726.39 597.2 726.39 597.2"/>
    <polygon class="st2" points="592.3 616.23 592.22 551.38 592.32 551.43 592.39 616.28 592.3 616.23 592.3 616.23"/>
    <polygon class="st2" points="592.22 551.38 815.99 519.7 816.08 519.75 592.32 551.43 592.22 551.38 592.22 551.38"/>
    <polygon class="st2" points="816.03 586.61 686.17 809.48 686.26 809.53 816.12 586.66 816.08 519.75 815.99 519.7 816.03 586.61 816.03 586.61"/>
    <polygon class="st2" points="686.17 809.48 819.59 790.43 819.68 790.48 686.26 809.53 686.17 809.48 686.17 809.48"/>
    <polygon class="st2" points="819.62 855.13 588.17 888.24 588.27 888.29 819.72 855.18 819.62 855.13 819.62 855.13"/>
    <polygon class="st2" points="819.59 790.43 819.62 855.13 819.72 855.18 819.68 790.48 819.59 790.43 819.59 790.43"/>
    <path class="st2" d="M819.68,790.48l.04,64.7-231.45,33.11-.07-56.26,138.28-234.78-134.09,19.02-.07-64.85,223.76-31.68.04,66.91-129.86,222.87c44.47-6.35,88.95-12.7,133.42-19.05Z"/>
    <path class="st2" d="M819.62,855.13l-.04-64.7-133.42,19.05,129.86-222.87-.04-66.91-223.76,31.68.07,64.85,134.09-19.02-138.28,234.78.07,56.26c77.15-11.04,154.3-22.07,231.45-33.11Z"/>
  </g>
  <g>
    <polygon class="st2" points="1135.52 809.94 1135.57 569.37 1135.67 569.43 1135.61 810 1135.52 809.94 1135.52 809.94"/>
    <polygon class="st2" points="1135.57 569.37 1210.17 558.78 1210.26 558.83 1135.67 569.43 1135.57 569.37 1135.57 569.37"/>
    <polygon class="st2" points="1210.06 799.28 1135.52 809.94 1135.61 810 1210.16 799.33 1210.06 799.28 1210.06 799.28"/>
    <polygon class="st2" points="1210.17 558.78 1210.06 799.28 1210.16 799.33 1210.26 558.83 1210.17 558.78 1210.17 558.78"/>
    <path class="st2" d="M1210.26,558.83l-.1,240.5-74.55,10.66.06-240.57c24.86-3.53,49.73-7.06,74.59-10.59Z"/>
    <path class="st2" d="M1210.06,799.28l.1-240.5-74.59,10.59-.06,240.57c24.85-3.55,49.7-7.11,74.55-10.66Z"/>
  </g>
  <path class="st5" d="M809.93,198.76c-14.92-26.14-29.84-52.28-44.76-78.41,17.59-8.02,42.57-17.82,73.55-24.83,28.57-6.46,121.02-27.02,213.92,12.64,135.2,57.72,176.96,189.03,182.73,208.27-21.36,14.33-97.68,61.73-198.99,48.7-150.38-19.34-220.51-154.44-226.45-166.36h0Z"/>
  <path class="st4" d="M1297.85,127.24c10.91-6.17,21.83-12.34,32.75-18.51,3.31,7.34,7.35,17.76,10.22,30.68,2.64,11.92,11.05,50.46-5.63,89.1-24.28,56.23-79.06,73.4-87.08,75.77-5.93-8.92-25.55-40.8-19.95-82.99,8.32-62.62,64.72-91.6,69.7-94.06h0Z"/>
  <g>
    <path class="st2" d="M1641.14,550.85v-30c2.79-.41,5.35-.62,7.69-.62,7.28,0,10.92,3.07,10.92,9.21,0,3.99-1.65,6.8-4.94,8.45l5.98,12.96h-4.46l-5.41-11.87c-.41.06-1.01.09-1.8.09-1.11,0-2.3-.11-3.56-.33v12.11h-4.42ZM1645.55,524.08v11.11c1.27.22,2.45.33,3.56.33,3.99,0,5.98-2.03,5.98-6.08,0-3.8-2.01-5.7-6.03-5.7-1.46,0-2.63.11-3.51.33Z"/>
    <path class="st2" d="M1649.42,560.71c-13.87,0-25.15-11.28-25.15-25.15s11.28-25.15,25.15-25.15,25.15,11.28,25.15,25.15-11.28,25.15-25.15,25.15ZM1649.42,512.15c-12.91,0-23.42,10.5-23.42,23.42s10.5,23.42,23.42,23.42,23.42-10.5,23.42-23.42-10.5-23.42-23.42-23.42Z"/>
  </g>
  <g>
    <path class="st2" d="M1214.44,489.66c-.94-39.71-54.54-41.98-75.07-11.76-20.61,30.35,4.39,73.67,45.78,58.19,20.41-7.63,31.08-27.34,29.29-46.42h0Z"/>
    <path class="st2" d="M1214.22,488.47c3.71,32.18-38.42,69.25-70.6,42.7-28.64-23.62-3.68-75.21,34.99-74.69,20.77.28,34.74,13.06,35.61,31.99h0Z"/>
    <path class="st2" d="M1214.34,488.51c3.71,32.18-38.42,69.25-70.6,42.7-28.64-23.62-3.68-75.21,34.99-74.69,20.77.28,34.74,13.06,35.61,31.99h0Z"/>
    <path class="st2" d="M1214.32,489.61c-.94-39.71-54.54-41.98-75.07-11.76-20.61,30.35,4.39,73.67,45.78,58.19,20.41-7.63,31.08-27.33,29.29-46.42h0Z"/>
  </g>
</svg>