<?xml version="1.0" encoding="UTF-8"?>
<svg id="Layer_1" data-name="Layer 1" xmlns="http://www.w3.org/2000/svg" xmlns:xlink="http://www.w3.org/1999/xlink" viewBox="0 0 1000 600">
  <defs>
    <style>
      .cls-1 {
        fill: #306a45;
      }

      .cls-2 {
        fill: url(#linear-gradient-2);
      }

      .cls-3 {
        fill: #fff;
      }

      .cls-4 {
        fill: url(#linear-gradient-4);
      }

      .cls-5 {
        fill: url(#linear-gradient-3);
      }

      .cls-6 {
        fill: url(#linear-gradient-5);
      }

      .cls-7 {
        fill: #77c044;
      }

      .cls-8 {
        fill: url(#linear-gradient);
      }
    </style>
    <linearGradient id="linear-gradient" x1="275.33" y1="293.03" x2="723.48" y2="293.03" gradientUnits="userSpaceOnUse">
      <stop offset="0" stop-color="#67c18a"/>
      <stop offset=".2" stop-color="#049d4f"/>
      <stop offset=".66" stop-color="$theme-color"/>
    </linearGradient>
    <linearGradient id="linear-gradient-2" x1="264.92" y1="313.08" x2="734.27" y2="313.08" gradientUnits="userSpaceOnUse">
      <stop offset=".2" stop-color="#f4d50e"/>
      <stop offset=".51" stop-color="#fee700"/>
      <stop offset=".75" stop-color="#f7db08"/>
      <stop offset="1" stop-color="#f4d50e"/>
    </linearGradient>
    <linearGradient id="linear-gradient-3" x1="274.39" y1="226.54" x2="429.67" y2="213.34" xlink:href="#linear-gradient-2"/>
    <linearGradient id="linear-gradient-4" x1="391.44" y1="161.9" x2="557.99" y2="161.9" xlink:href="#linear-gradient"/>
    <linearGradient id="linear-gradient-5" x1="555.08" y1="155.03" x2="596.92" y2="155.03" xlink:href="#linear-gradient"/>
  </defs>
  <path class="cls-8" d="M720.16,310.47c-1.65,5.22-8.16,23.8-31.24,41.4-41.72,31.81-87,21.92-158.76,29.77-113.26,12.39-147.11,53.11-202.98,25.78-8.67-4.26-32.8-16.47-44.88-43.41-11.85-26.41-7.88-57.89,6.63-81.04,4.54-7.26,9.98-13.14,15.51-17.9,10.95-9.43,22.22-14.39,27.64-16.69,45.04-19.15,80.64,3.27,98.72-17.55.53-.61,1.08-1.32,1.62-2.08,3.22-4.56,6.36-11.98,6.05-24.35-.04-2-.18-4.1-.42-6.36.77.61,1.67,1.34,2.74,2.13,0,.02.02.04.04.04,11.8,8.95,41.48,28.36,76.85,23.19,25.32-3.71,46.29-18.93,62.02-31.79.28-.24.59-.48.88-.72,1.8-1.47,3.51-2.92,5.18-4.3.28-.26.59-.5.88-.75,7.59-6.36,13.45-12.2,17.46-16.43,8.58,1.18,20.69,3.62,34.31,9.02,6.91,2.74,14.22,6.23,21.63,10.73,11.54,6.98,39.71,24,53.83,58.62,4.52,11.06,14.92,35.47,6.3,62.72Z"/>
  <path class="cls-2" d="M732.21,320.26c-18.65,88.47-183.2,118.53-197.63,120.98-93.65,16.1-234.86,5.18-263.22-64.65-8.71-21.41-10.49-57.41,6.98-85.29,7.5-11.98,17.26-20.4,26.11-26.24-5.53,4.76-10.97,10.64-15.51,17.9-14.5,23.14-18.47,54.62-6.63,81.04,12.09,26.94,36.22,39.16,44.88,43.41,55.87,27.33,89.72-13.38,202.98-25.78,71.76-7.85,117.04,2.04,158.76-29.77,23.08-17.59,29.59-36.17,31.24-41.4,8.62-27.25-1.78-51.66-6.3-62.72-14.13-34.62-42.29-51.64-53.83-58.62-7.41-4.5-14.72-7.99-21.63-10.73,9.45,3.18,19.85,7.7,30.51,14.13,12.15,7.35,41.79,25.27,56.66,61.71,10.11,24.77,10.03,49.91,6.63,66.01Z"/>
  <path class="cls-5" d="M420.35,222.15c-18.08,20.82-53.68-1.6-98.72,17.55-7.35,3.12-29.79,12.66-43.15,34.6-4.98-44.34,22.49-87.16,66.8-100.03,29.4-8.56,59.6-2.02,82.33,15.09,1.97,18.65-3.05,27.93-7.26,32.8Z"/>
  <g>
    <path class="cls-1" d="M392.69,434.99c-.84-5.01-1.26-7.51-2.1-12.52,1.19-.2,1.79-.3,2.99-.5.33,1.95.49,2.93.82,4.89,1.99-.33,2.99-.5,4.98-.84-.33-1.95-.49-2.93-.82-4.89,1.22-.2,1.83-.31,3.05-.51.84,5.01,1.26,7.51,2.1,12.52-1.22.2-1.83.31-3.05.51-.35-2.09-.53-3.13-.88-5.22-1.99.33-2.99.5-4.98.84.35,2.09.53,3.13.88,5.22-1.19.2-1.79.3-2.99.5Z"/>
    <path class="cls-1" d="M414.63,427.67c-2.43.41-3.64.61-6.07,1.02.12.44.39.8.83,1.08.44.28.89.38,1.35.3.06,0,.08-.01.14-.02.79-.13,1.64-.56,2.53-1.28.38.57.57.86.95,1.43-.33.45-.84.87-1.52,1.25-.68.39-1.34.63-1.97.74-1.57.26-2.87.05-3.87-.65-.97-.67-1.58-1.75-1.82-3.21-.24-1.41.04-2.67.84-3.74.73-.99,1.79-1.6,3.15-1.83,1.45-.24,2.66.02,3.63.79.87.69,1.43,1.71,1.65,3.04.07.44.11.65.18,1.09ZM408.04,426.68c1.33-.22,1.99-.33,3.32-.56-.25-1.06-.88-1.5-1.91-1.33-.98.16-1.45.79-1.41,1.88Z"/>
    <path class="cls-1" d="M424.7,429.62c-.96.16-1.44.24-2.39.4-.13-.31-.2-.47-.33-.78-.54.81-1.32,1.3-2.34,1.47-1.99.33-3.15-.48-3.48-2.45-.16-.96.12-1.78.85-2.44.79-.71,2.06-1.22,3.81-1.51,0,0,.01,0,.02,0,0,0,0-.01,0-.02-.08-.49-.22-.79-.41-.92-.19-.12-.55-.14-1.08-.05-.92.16-1.69.57-2.31,1.24-.35-.42-.72-.88-1.11-1.4.68-.7,1.31-1.21,1.89-1.53.58-.32,1.27-.55,2.07-.68,1.02-.17,1.87.06,2.58.69.69.62,1.15,1.55,1.36,2.8.35,2.07.52,3.11.87,5.18ZM421.03,426.06c-.63.11-1.13.31-1.49.62-.36.31-.51.65-.45,1.03,0,0,0,.01,0,.02.14.59.43.85.89.79.02,0,.02,0,.04,0,.37-.06.67-.24.9-.55.23-.3.32-.63.27-.99-.06-.36-.09-.55-.15-.91Z"/>
    <path class="cls-1" d="M428.04,415.94c.86,5.1,1.29,7.66,2.14,12.76-1.19.2-1.78.3-2.97.5-.75-4.49-1.13-6.73-1.88-11.22,1.08-.82,1.62-1.22,2.71-2.04Z"/>
    <path class="cls-1" d="M437.82,424.93c.49.53.73.79,1.22,1.32-.92,1.04-2.04,1.66-3.35,1.88-.86.14-1.51.04-1.95-.31-.45-.35-.75-1-.91-1.95-.29-1.72-.43-2.58-.72-4.29-.48.08-.72.12-1.21.2-.16-.95-.24-1.42-.4-2.37.49-.08.74-.12,1.23-.21-.1-.59-.15-.88-.25-1.46.72-.55,1.63-1.25,2.72-2.08.2,1.22.31,1.83.51,3.05.99-.17,1.48-.25,2.47-.42.16.95.24,1.42.4,2.37-1,.17-1.5.25-2.49.42.26,1.54.39,2.31.65,3.86,0,.03,0,.08,0,.14,0,.04.01.07.02.1.08.46.27.66.59.61.34-.06.83-.34,1.46-.86Z"/>
    <path class="cls-1" d="M439.17,415.75c1.08-.86,1.61-1.28,2.69-2.14.33,1.95.49,2.93.82,4.89.01-.15.14-.36.36-.64.23-.28.47-.51.72-.68.37-.25.73-.41,1.06-.46,1.17-.2,2.07-.03,2.68.51.61.53,1.04,1.52,1.28,2.96.35,2.1.53,3.15.88,5.24-1.19.2-1.78.3-2.97.5-.35-2.06-.52-3.09-.86-5.14-.18-1.07-.73-1.52-1.65-1.37-.62.1-1.03.34-1.23.69.42,2.51.63,3.76,1.05,6.27-1.19.2-1.78.3-2.97.5-.75-4.45-1.12-6.67-1.87-11.12Z"/>
    <path class="cls-1" d="M458.97,414.62c-.8,4.36-1.2,6.54-1.99,10.89-.33,1.76-1.07,2.74-2.23,2.94-.98.16-2.04-.1-3.2-.78.23-.57.41-1.07.54-1.51.57.26,1.06.35,1.45.28.21-.04.4-.23.57-.57.17-.35.28-.76.32-1.24-.22.04-.33.06-.55.09-1.81-3.39-2.71-5.09-4.52-8.48,1.16-.2,1.74-.29,2.91-.49.75,1.58,1.62,3.33,2.61,5.26.47-2.36.7-3.53,1.17-5.89,1.17-.2,1.76-.3,2.93-.49Z"/>
    <path class="cls-1" d="M466.95,422.52c-.84-5.01-1.26-7.51-2.1-12.52,3.41-.57,5.12-.86,8.53-1.43.16.97.24,1.45.41,2.41-2.19.37-3.29.55-5.48.92.17,1,.25,1.5.42,2.49,1.82-.31,2.73-.46,4.55-.76.16.97.24,1.45.41,2.41-1.82.31-2.73.46-4.55.76.35,2.08.52,3.12.87,5.2-1.22.2-1.83.31-3.05.51Z"/>
    <path class="cls-1" d="M479.17,410.99c1.5-.25,2.76.07,3.76.97.83.74,1.35,1.75,1.56,3.01.25,1.48-.08,2.77-1,3.87-.73.88-1.65,1.42-2.76,1.6-1.27.21-2.44-.09-3.51-.9-.98-.74-1.58-1.76-1.79-3.05-.25-1.46,0-2.71.73-3.74.68-.95,1.68-1.54,3-1.76ZM478.45,415.99c.28,1.69.94,2.45,1.97,2.27,1-.17,1.36-1.1,1.08-2.78-.3-1.79-.96-2.6-1.98-2.43-1.02.17-1.37,1.15-1.07,2.95Z"/>
    <path class="cls-1" d="M489.6,409.24c1.5-.25,2.76.07,3.76.97.83.74,1.35,1.75,1.56,3.01.25,1.48-.08,2.77-1,3.87-.73.88-1.65,1.42-2.76,1.6-1.27.21-2.44-.09-3.51-.9-.98-.74-1.58-1.76-1.79-3.05-.25-1.46,0-2.71.73-3.74.68-.95,1.68-1.54,3-1.76ZM488.87,414.24c.28,1.69.94,2.45,1.97,2.27,1-.17,1.36-1.1,1.08-2.78-.3-1.79-.96-2.6-1.98-2.43-1.02.17-1.37,1.15-1.07,2.95Z"/>
    <path class="cls-1" d="M502.01,407.8c-.17-1-.25-1.5-.42-2.49,1.08-.86,1.61-1.28,2.69-2.14.85,5.09,1.28,7.63,2.14,12.72-.96.16-1.44.24-2.39.4-.23-.35-.35-.53-.57-.88-.13.36-.41.7-.83,1-.42.31-.88.5-1.37.59-1.45.24-2.63-.03-3.52-.83-.72-.65-1.18-1.58-1.38-2.8-.3-1.79-.02-3.25.86-4.35.64-.81,1.48-1.31,2.5-1.48.87-.15,1.64-.06,2.3.26ZM502.5,410.73c-.37-.97-.96-1.38-1.78-1.25-.59.1-1.02.41-1.27.93-.25.52-.31,1.2-.17,2.03.3,1.78.96,2.59,1.97,2.42.63-.11,1.09-.5,1.37-1.19.17-.42.24-.78.19-1.07-.13-.75-.19-1.13-.32-1.88Z"/>
    <path class="cls-1" d="M512.17,408.15c-.16-.96-.24-1.44-.4-2.39.58-.1.87-.15,1.44-.24-.08-.46-.12-.69-.19-1.15-.15-.92-.07-1.63.26-2.11.33-.48.92-.8,1.79-.94,1.2-.2,2.37.02,3.51.67-.34.69-.51,1.04-.85,1.73-.65-.3-1.09-.43-1.33-.39-.33.06-.45.35-.36.89.05.32.08.47.13.79,1-.17,1.5-.25,2.49-.42.16.96.24,1.44.4,2.39-1,.17-1.5.25-2.49.42.44,2.63.66,3.95,1.11,6.59-1.19.2-1.78.3-2.97.5-.44-2.63-.66-3.95-1.11-6.59-.58.1-.87.15-1.44.24Z"/>
    <path class="cls-1" d="M523.82,403.49c1.5-.25,2.76.07,3.76.97.83.74,1.35,1.75,1.56,3.01.25,1.48-.08,2.77-1,3.87-.73.88-1.65,1.42-2.76,1.6-1.27.21-2.43-.09-3.51-.9-.98-.74-1.58-1.76-1.79-3.05-.25-1.46,0-2.71.73-3.74.68-.95,1.68-1.54,3-1.76ZM523.09,408.49c.28,1.69.94,2.45,1.97,2.27,1-.17,1.36-1.1,1.08-2.78-.3-1.79-.96-2.6-1.98-2.43-1.02.17-1.37,1.15-1.07,2.95Z"/>
    <path class="cls-1" d="M532.86,402.21c.15.26.22.39.37.65.03-.22.22-.47.57-.74.35-.27.69-.43,1.02-.49,1.27-.21,2.33.28,3.18,1.48-.92.69-1.38,1.04-2.29,1.73-.47-.48-.93-.68-1.38-.6-.36.06-.56.28-.6.65.42,2.49.63,3.74,1.05,6.23-1.16.2-1.74.29-2.91.49-.6-3.59-.91-5.39-1.51-8.98,1-.17,1.51-.25,2.51-.42Z"/>
    <path class="cls-1" d="M553.06,408.05c-.96.16-1.44.24-2.39.4-.13-.31-.2-.47-.33-.78-.54.81-1.32,1.3-2.34,1.47-1.99.33-3.15-.48-3.48-2.45-.16-.96.12-1.78.85-2.44.79-.71,2.06-1.22,3.81-1.51,0,0,.01,0,.02,0,0,0,0-.01,0-.02-.08-.49-.22-.79-.41-.92-.19-.12-.55-.14-1.08-.05-.92.16-1.69.57-2.31,1.24-.35-.42-.72-.88-1.11-1.4.68-.7,1.31-1.21,1.89-1.53.58-.32,1.27-.55,2.07-.68,1.02-.17,1.87.06,2.58.69.69.62,1.15,1.55,1.36,2.8.35,2.07.52,3.11.87,5.18ZM549.39,404.5c-.63.11-1.13.31-1.49.62-.36.31-.51.65-.45,1.03,0,0,0,.01,0,.02.14.59.43.85.89.79.02,0,.02,0,.04,0,.37-.06.67-.24.9-.55.23-.3.32-.63.27-.99-.06-.36-.09-.55-.15-.91Z"/>
    <path class="cls-1" d="M560.81,406.73c-.84-4.99-1.26-7.49-2.1-12.48.93-.33,2.19-.63,3.75-.9,1.7-.29,3.05-.1,4.02.57.76.52,1.24,1.3,1.41,2.35.1.58-.08,1.16-.52,1.74-.44.58-.96.92-1.56,1.02-.04,0-.09.01-.14.02,0,0,0,.01,0,.02.91-.06,1.68.15,2.3.62.62.47,1.01,1.15,1.16,2.03.21,1.27-.18,2.32-1.16,3.16-.85.74-2.09,1.25-3.71,1.52-1.37.23-2.53.34-3.47.32ZM562.14,395.99c.16.97.25,1.46.41,2.43.49-.08.74-.12,1.23-.21.5-.08.84-.24,1.01-.45s.22-.55.15-1c-.15-.87-.79-1.21-1.92-1.02-.3.05-.59.13-.87.25ZM562.95,400.84c.21,1.23.31,1.85.52,3.09.35.09.72.1,1.1.04,1.11-.19,1.58-.76,1.42-1.72-.21-1.24-.87-1.77-1.99-1.58-.42.07-.63.11-1.05.18Z"/>
    <path class="cls-1" d="M579.84,399.91c-2.43.41-3.64.61-6.07,1.02.12.44.39.8.83,1.08.44.28.89.38,1.35.3.06,0,.08-.01.14-.02.79-.13,1.64-.56,2.53-1.28.38.57.57.86.95,1.43-.33.45-.84.87-1.52,1.25-.68.39-1.34.63-1.97.74-1.57.26-2.87.05-3.87-.65-.97-.67-1.58-1.75-1.82-3.21-.24-1.41.04-2.67.84-3.74.73-.99,1.79-1.6,3.15-1.83,1.45-.24,2.66.02,3.63.79.87.69,1.43,1.71,1.65,3.04.07.44.11.65.18,1.09ZM573.25,398.93c1.33-.22,1.99-.33,3.32-.56-.25-1.06-.88-1.5-1.91-1.33-.98.16-1.45.79-1.41,1.88Z"/>
    <path class="cls-1" d="M587.51,399.79c.49.53.73.79,1.22,1.32-.92,1.04-2.04,1.66-3.34,1.88-.86.14-1.51.04-1.95-.31-.45-.35-.75-1-.91-1.95-.29-1.72-.43-2.58-.72-4.29-.48.08-.72.12-1.21.2-.16-.95-.24-1.42-.4-2.37.49-.08.74-.12,1.23-.21-.1-.59-.15-.88-.25-1.46.72-.55,1.63-1.25,2.72-2.08.2,1.22.31,1.83.51,3.05.99-.17,1.48-.25,2.47-.42.16.95.24,1.42.4,2.37-1,.17-1.49.25-2.49.42.26,1.54.39,2.31.65,3.86,0,.03,0,.08,0,.14,0,.04.01.07.02.1.08.46.27.66.59.61.34-.06.83-.34,1.46-.86Z"/>
    <path class="cls-1" d="M595.82,398.39c.49.53.73.79,1.22,1.32-.92,1.04-2.04,1.66-3.34,1.88-.86.14-1.51.04-1.95-.31-.45-.35-.75-1-.91-1.95-.29-1.72-.43-2.58-.72-4.29-.48.08-.72.12-1.21.2-.16-.95-.24-1.42-.4-2.37.49-.08.74-.12,1.23-.21-.1-.59-.15-.88-.25-1.46.72-.55,1.63-1.25,2.72-2.08.2,1.22.31,1.83.51,3.05.99-.17,1.48-.25,2.47-.42.16.95.24,1.42.4,2.37-1,.17-1.49.25-2.49.42.26,1.54.39,2.31.65,3.86,0,.03,0,.08,0,.14,0,.04.01.07.02.1.08.46.27.66.59.61.34-.06.83-.34,1.46-.86Z"/>
    <path class="cls-1" d="M606.94,395.36c-2.43.41-3.64.61-6.07,1.02.12.44.39.8.83,1.08.44.28.89.38,1.35.3.06,0,.08-.01.14-.02.79-.13,1.64-.56,2.53-1.28.38.57.57.86.95,1.43-.33.45-.84.87-1.52,1.25-.68.39-1.34.63-1.97.74-1.57.26-2.87.05-3.87-.65-.97-.67-1.58-1.75-1.82-3.21-.24-1.41.04-2.67.84-3.74.73-.99,1.79-1.6,3.15-1.83,1.45-.24,2.66.02,3.63.79.87.69,1.43,1.71,1.65,3.04.07.44.11.65.18,1.09ZM600.35,394.37c1.33-.22,1.99-.33,3.32-.56-.25-1.06-.88-1.5-1.91-1.33-.98.16-1.45.79-1.41,1.88Z"/>
    <path class="cls-1" d="M610.52,389.17c.15.26.22.39.37.65.03-.22.22-.47.57-.74.35-.27.69-.43,1.02-.49,1.27-.21,2.33.28,3.18,1.48-.92.69-1.38,1.04-2.29,1.73-.47-.48-.93-.68-1.38-.6-.36.06-.56.28-.6.65.42,2.49.63,3.74,1.05,6.23-1.16.2-1.74.29-2.91.49-.6-3.59-.91-5.39-1.51-8.98,1-.17,1.51-.25,2.51-.42Z"/>
    <path class="cls-1" d="M623.46,396.23c-.84-5.01-1.26-7.51-2.1-12.52,1.22-.2,1.83-.31,3.05-.51.68,4.04,1.02,6.07,1.7,10.11,1.84-.31,2.75-.46,4.59-.77.16.97.24,1.45.41,2.41-3.05.51-4.58.77-7.63,1.28Z"/>
    <path class="cls-1" d="M631.16,383.1s0-.02,0-.04c-.08-.49.01-.93.28-1.34.27-.4.64-.65,1.12-.73.5-.08.96.02,1.36.3.41.28.65.68.74,1.18,0,.02,0,.02,0,.04.19,1.11-.37,1.87-1.51,2.04-1.07.17-1.81-.37-1.99-1.45ZM634.87,385.08c.6,3.59.91,5.39,1.51,8.98-1.2.2-1.8.3-3.01.51-.6-3.59-.91-5.39-1.51-8.98,1.2-.2,1.8-.3,3.01-.51Z"/>
    <path class="cls-1" d="M637.23,387.14c-.16-.96-.24-1.44-.4-2.39.58-.1.87-.15,1.44-.24-.08-.46-.12-.69-.19-1.15-.15-.92-.07-1.63.26-2.11.33-.48.92-.8,1.79-.94,1.2-.2,2.37.02,3.51.67-.34.69-.51,1.04-.85,1.73-.65-.3-1.09-.43-1.33-.39-.33.06-.45.35-.36.89.05.32.08.47.13.79,1-.17,1.5-.25,2.49-.42.16.96.24,1.44.4,2.39-1,.17-1.5.25-2.49.42.44,2.63.66,3.95,1.11,6.59-1.19.2-1.78.3-2.97.5-.44-2.63-.66-3.95-1.11-6.59-.58.1-.87.15-1.44.24Z"/>
    <path class="cls-1" d="M654.59,387.36c-2.43.41-3.64.61-6.07,1.02.12.44.39.8.83,1.08.44.28.89.38,1.35.3.06,0,.08-.01.14-.02.79-.13,1.64-.56,2.53-1.28.38.57.57.86.95,1.43-.33.45-.84.87-1.52,1.25-.68.39-1.34.63-1.97.74-1.57.26-2.87.05-3.87-.65-.97-.67-1.58-1.75-1.82-3.21-.24-1.41.04-2.67.84-3.74.73-.99,1.79-1.6,3.15-1.83,1.45-.24,2.66.02,3.63.79.87.69,1.43,1.71,1.65,3.04.07.44.11.65.18,1.09ZM648,386.37c1.33-.22,1.99-.33,3.32-.56-.25-1.06-.88-1.5-1.91-1.33-.98.16-1.45.79-1.41,1.88Z"/>
  </g>
  <path class="cls-7" d="M615.82,277.02l-3.43-4.4.04.02c18.54,23.9,37.92,47.12,58.04,69.71l-.04-.02c-18.88-21.2-37.11-42.95-54.61-65.3h0Z"/>
  <g>
    <polygon class="cls-3" points="425.37 382.69 425.31 263.72 425.35 263.74 425.4 382.7 425.37 382.69 425.37 382.69"/>
    <polygon class="cls-3" points="425.31 263.72 500.38 253.09 500.42 253.11 425.35 263.74 425.31 263.72 425.31 263.72"/>
    <polygon class="cls-3" points="500.38 253.09 500.38 276.02 500.42 276.03 500.42 253.11 500.38 253.09 500.38 253.09"/>
    <polygon class="cls-3" points="500.38 276.02 452.16 282.86 452.19 282.88 500.42 276.03 500.38 276.02 500.38 276.02"/>
    <polygon class="cls-3" points="452.16 282.86 452.17 306.35 452.2 306.37 452.19 282.88 452.16 282.86 452.16 282.86"/>
    <polygon class="cls-3" points="452.17 306.35 492.2 300.66 492.24 300.68 452.2 306.37 452.17 306.35 452.17 306.35"/>
    <polygon class="cls-3" points="492.2 300.66 492.2 323.57 492.24 323.59 492.24 300.68 492.2 300.66 492.2 300.66"/>
    <polygon class="cls-3" points="492.2 323.57 452.17 329.27 452.2 329.29 492.24 323.59 492.2 323.57 492.2 323.57"/>
    <polygon class="cls-3" points="452.17 329.27 452.18 355.94 452.21 355.96 452.2 329.29 452.17 329.27 452.17 329.27"/>
    <polygon class="cls-3" points="452.18 355.94 502.64 348.74 502.67 348.76 452.21 355.96 452.18 355.94 452.18 355.94"/>
    <polygon class="cls-3" points="502.63 371.63 425.37 382.69 425.4 382.7 502.67 371.65 502.63 371.63 502.63 371.63"/>
    <polygon class="cls-3" points="502.64 348.74 502.63 371.63 502.67 371.65 502.67 348.76 502.64 348.74 502.64 348.74"/>
    <path class="cls-3" d="M502.67,348.76v22.89s-77.27,11.05-77.27,11.05l-.05-118.97,75.07-10.63v22.93s-48.23,6.84-48.23,6.84v23.49s40.04-5.69,40.04-5.69v22.91s-40.03,5.7-40.03,5.7v26.67c16.83-2.4,33.65-4.8,50.47-7.2Z"/>
    <path class="cls-3" d="M502.63,371.63v-22.89s-50.46,7.2-50.46,7.2v-26.67s40.03-5.7,40.03-5.7v-22.91s-40.04,5.69-40.04,5.69v-23.49s48.22-6.84,48.22-6.84v-22.93s-75.07,10.63-75.07,10.63l.05,118.97c25.76-3.68,51.51-7.37,77.27-11.05Z"/>
  </g>
  <path class="cls-3" d="M677.86,346.57c-7.51,1.06-15.01,2.13-22.52,3.21-18.9-21.23-37.12-43.06-54.52-65.5l-.06,73.3-26.21,3.75.08-118.75,21.89-3.09c9.19,11.28,18.43,22.56,27.58,33.91,9.28,11.47,18.28,22.91,27.15,34.28,2.72-5.55,6.35-14.66,7.13-26.33-.83-9-4-29.3-19.33-47.95-26.69-32.45-67.5-32.24-73.13-32.12,2.08-1.54,4.15-3.08,6.23-4.63,1.59-1.25,3.18-2.51,4.78-3.76,3.01.03,64.38,1.61,95.23,54.49,27.19,46.61,7.91,94.05,5.71,99.2Z"/>
  <g>
    <polygon class="cls-3" points="328.73 376.58 377.71 293.42 377.74 293.44 328.76 376.6 328.78 396.53 328.75 396.51 328.73 376.58 328.73 376.58"/>
    <polygon class="cls-3" points="377.71 293.42 330.21 300.16 330.25 300.18 377.74 293.44 377.71 293.42 377.71 293.42"/>
    <polygon class="cls-3" points="330.21 300.16 330.19 277.19 330.22 277.21 330.25 300.18 330.21 300.16 330.21 300.16"/>
    <polygon class="cls-3" points="330.19 277.19 409.45 265.97 409.48 265.98 330.22 277.21 330.19 277.19 330.19 277.19"/>
    <polygon class="cls-3" points="409.46 289.67 363.46 368.61 363.5 368.63 409.49 289.69 409.48 265.98 409.45 265.97 409.46 289.67 409.46 289.67"/>
    <polygon class="cls-3" points="363.46 368.61 410.72 361.86 410.75 361.88 363.5 368.63 363.46 368.61 363.46 368.61"/>
    <polygon class="cls-3" points="410.73 384.78 328.75 396.51 328.78 396.53 410.77 384.8 410.73 384.78 410.73 384.78"/>
    <polygon class="cls-3" points="410.72 361.86 410.73 384.78 410.77 384.8 410.75 361.88 410.72 361.86 410.72 361.86"/>
    <path class="cls-3" d="M410.75,361.88v22.92s-81.97,11.73-81.97,11.73l-.02-19.93,48.98-83.16-47.5,6.74-.03-22.97,79.26-11.22v23.7s-45.98,78.94-45.98,78.94c15.75-2.25,31.51-4.5,47.26-6.75Z"/>
    <path class="cls-3" d="M410.73,384.78v-22.92s-47.27,6.75-47.27,6.75l46-78.94v-23.7s-79.27,11.22-79.27,11.22l.03,22.97,47.5-6.74-48.98,83.16.02,19.93c27.33-3.91,54.65-7.82,81.98-11.73Z"/>
  </g>
  <g>
    <polygon class="cls-3" points="522.62 368.77 522.64 283.56 522.68 283.58 522.66 368.79 522.62 368.77 522.62 368.77"/>
    <polygon class="cls-3" points="522.64 283.56 549.07 279.81 549.1 279.83 522.68 283.58 522.64 283.56 522.64 283.56"/>
    <polygon class="cls-3" points="549.03 365 522.62 368.77 522.66 368.79 549.06 365.01 549.03 365 549.03 365"/>
    <polygon class="cls-3" points="549.07 279.81 549.03 365 549.06 365.01 549.1 279.83 549.07 279.81 549.07 279.81"/>
    <path class="cls-3" d="M549.1,279.83l-.04,85.19-26.41,3.78.02-85.21c8.81-1.25,17.61-2.5,26.42-3.75Z"/>
    <path class="cls-3" d="M549.03,365l.04-85.19-26.42,3.75-.02,85.21c8.8-1.26,17.6-2.52,26.41-3.78Z"/>
  </g>
  <path class="cls-4" d="M407.3,152.29c-5.28-9.26-10.57-18.52-15.85-27.77,6.23-2.84,15.08-6.31,26.05-8.8,10.12-2.29,42.86-9.57,75.77,4.48,47.89,20.45,62.68,66.96,64.72,73.77-7.57,5.08-34.6,21.86-70.48,17.25-53.27-6.85-78.11-54.7-80.21-58.93h0Z"/>
  <path class="cls-6" d="M580.12,126.96c3.87-2.19,7.73-4.37,11.6-6.56,1.17,2.6,2.6,6.29,3.62,10.87.94,4.22,3.91,17.87-2,31.56-8.6,19.92-28,26-30.85,26.84-2.1-3.16-9.05-14.45-7.06-29.39,2.95-22.18,22.92-32.45,24.69-33.32h0Z"/>
  <g>
    <path class="cls-3" d="M550.58,255.33c-.33-14.07-19.32-14.87-26.59-4.17-7.3,10.75,1.56,26.09,16.22,20.61,7.23-2.7,11.01-9.68,10.37-16.44h0Z"/>
    <path class="cls-3" d="M550.5,254.9c1.31,11.4-13.61,24.53-25.01,15.13-10.14-8.37-1.3-26.64,12.39-26.46,7.36.1,12.31,4.63,12.61,11.33h0Z"/>
    <path class="cls-3" d="M550.54,254.92c1.31,11.4-13.61,24.53-25.01,15.13-10.14-8.37-1.3-26.64,12.39-26.46,7.36.1,12.31,4.63,12.61,11.33h0Z"/>
    <path class="cls-3" d="M550.54,255.31c-.33-14.07-19.32-14.87-26.59-4.17-7.3,10.75,1.56,26.09,16.22,20.61,7.23-2.7,11.01-9.68,10.37-16.44h0Z"/>
  </g>
</svg>