<?xml version="1.0" encoding="UTF-8"?>
<svg id="Layer_1" xmlns="http://www.w3.org/2000/svg" version="1.1" xmlns:xlink="http://www.w3.org/1999/xlink" viewBox="0 0 2160 1080">
  <!-- Generator: Adobe Illustrator 29.1.0, SVG Export Plug-In . SVG Version: 2.1.0 Build 142)  -->
  <defs>
    <style>
      .st0 {
        fill: url(#linear-gradient2);
      }

      .st1 {
        fill: #306a45;
      }

      .st2 {
        fill: #fff;
      }

      .st3 {
        fill: url(#linear-gradient1);
      }

      .st4 {
        fill: url(#linear-gradient4);
      }

      .st5 {
        fill: url(#linear-gradient5);
      }

      .st6 {
        fill: url(#linear-gradient3);
      }

      .st7 {
        fill: url(#linear-gradient);
      }
    </style>
    <linearGradient id="linear-gradient" x1="511.59" y1="605" x2="1634.02" y2="605" gradientUnits="userSpaceOnUse">
      <stop offset="0" stop-color="#67c18a"/>
      <stop offset=".2" stop-color="#049d4f"/>
      <stop offset=".66" stop-color="$theme-color"/>
    </linearGradient>
    <linearGradient id="linear-gradient1" x1="-2461.62" y1="1150.54" x2="-1280.55" y2="1150.54" gradientTransform="translate(-1073.72 180.91) rotate(160.34) scale(1 -1)" gradientUnits="userSpaceOnUse">
      <stop offset=".2" stop-color="#f4d50e"/>
      <stop offset=".51" stop-color="#fee700"/>
      <stop offset=".75" stop-color="#f7db08"/>
      <stop offset="1" stop-color="#f4d50e"/>
    </linearGradient>
    <linearGradient id="linear-gradient2" x1="-2437.8" y1="932.75" x2="-2047.05" y2="899.53" xlink:href="#linear-gradient1"/>
    <linearGradient id="linear-gradient3" x1="-2143.24" y1="770.09" x2="-1724.15" y2="770.09" gradientTransform="translate(-1073.72 180.91) rotate(160.34) scale(1 -1)" xlink:href="#linear-gradient"/>
    <linearGradient id="linear-gradient4" x1="-1731.46" y1="752.81" x2="-1626.17" y2="752.81" gradientTransform="translate(-1073.72 180.91) rotate(160.34) scale(1 -1)" xlink:href="#linear-gradient"/>
    <linearGradient id="linear-gradient5" x1="1352.43" y1="632.96" x2="1352.43" y2="632.96" xlink:href="#linear-gradient"/>
  </defs>
  <path class="st7" d="M1633.42,571.45c-5.81,74.07-52.63,123.47-69.58,140.91-109.27,112.07-223.97,44.25-502.83,110.75-176.71,42.16-275.62,103.95-401.45,63.87-69.58-22.15-100.72-60.64-109.05-71.61-43.48-57.3-39.53-123.97-38.22-153.96,4.22-94.03,56.53-158.18,77.97-184.5,13.76-16.94,28.13-31.42,42.16-43.75,27.74-24.29,54.33-40.35,73.69-50.39,13.1,6.63,31.91,15.46,55.27,24.12.88.33,1.81.66,2.74,1.04,5.1,1.86,10.36,3.84,15.9,5.81.88.33,1.81.6,2.69.93,1.7.6,3.4,1.21,5.15,1.81,7.79,2.74,15.9,5.43,24.29,8,42.93,13.27,93.48,23.25,144.42,13.05,88.22-17.71,142.11-88.82,162.51-120.02,0-.05.05-.11.05-.16,1.86-2.8,3.4-5.26,4.66-7.35,1.37,5.54,2.85,10.64,4.44,15.41,9.7,29.61,23.47,44.52,34.93,52.58,1.97,1.37,3.84,2.58,5.65,3.56,60.48,34.05,125.83-49.24,248.75-42,14.8.88,45.73,3.07,79.66,16.17,17.11,6.58,34.98,15.9,51.92,29.28,53.95,42.55,89.97,113.82,84.27,186.41Z"/>
  <path class="st3" d="M530.26,848.74c119.1,193.86,534.48,125.76,570.76,119.36,235.55-41.14,560.93-186.59,569.02-376.07,2.51-58.11-23.76-144.92-88.75-196.21-27.92-22.03-58.19-33.73-84.08-40.07,17.13,6.6,35,15.93,51.91,29.29,53.96,42.57,90.02,113.8,84.31,186.42-5.83,74.07-52.67,123.46-69.6,140.88-109.26,112.08-223.95,44.26-502.84,110.79-176.69,42.15-275.61,103.93-401.42,63.88-69.58-22.15-100.76-60.67-109.08-71.64-43.5-57.26-39.53-123.93-38.18-153.95,4.17-93.99,56.5-158.18,77.94-184.48,13.76-16.93,28.12-31.39,42.17-43.73-19.71,15.54-40.53,35.06-60.35,59.31-22.58,27.71-77.63,95.27-82.03,194.21-2.99,67.25,18.5,126.75,40.19,162.03Z"/>
  <path class="st0" d="M1186.19,352.22c60.46,34.03,125.85-49.25,248.79-42,20.05,1.16,81.31,4.77,131.54,45.44-25.74-109.28-127.08-187.5-242.99-180.49-76.9,4.62-142.95,45.68-182.32,105.48,11.11,45.86,30.87,63.59,44.98,71.57Z"/>
  <path class="st6" d="M1157.97,175.61c4.68-26.41,9.37-52.83,14.05-79.24-17.17-1.46-41.07-2.19-69.18,1.21-25.92,3.14-109.68,13.61-175.76,74.77-96.17,89-91.84,211.74-90.91,229.61,22.23,5.62,100.5,22.51,181.63-18.81,120.42-61.34,138.77-195.77,140.18-207.55h0Z"/>
  <path class="st4" d="M726.98,261.91c-11.01-1.91-22.03-3.81-33.04-5.72-.58,7.15-.84,17.12.62,28.82,1.35,10.79,5.86,45.67,31.45,73.1,37.24,39.91,88.37,37.9,95.82,37.48,2.3-9.27,9.21-41.91-8.15-75.64-25.76-50.07-81.8-57.48-86.71-58.04h0Z"/>
  <path class="st2" d="M1326.94,567.56c-5.59,33.5-24.78,62.94-28.67,69.14-.94,1.55-2.86,4.62-5.55,8.28,0,0-20.42,27.78-61.46,44.84-32.61,13.55-157.68,42.7-330.22,67.94-5.48,12.83-33.55,75.06-101.6,99.18-41.45,14.69-76.54,7.73-83.61,6.2-50.72-10.91-90.52-47.65-108.07-89.86-13.16-31.64-11.08-59.82-10.2-71.66,8.72-118.81,154.94-253.91,190.31-285.1,7.79,2.74,15.9,5.43,24.29,8-101.76,120.18-159.06,224.63-156.37,271.67,1.81,31.8,16.39,53.18,16.39,53.18,17.11,25.17,42.05,34.16,48.52,36.24,6.14,2.03,39.42,12.28,73.58-5.76,35.14-18.59,45.67-53.62,48.58-66.29,13.1-57.9-31.14-102.47-34.16-105.43,22.92-19.79,45.89-39.53,68.81-59.27,17.73,39.55,27.53,69.9,33.39,92.06,2.53,9.55,6.25,24.9,19.41,33.72,13.8,9.25,30.57,6.19,38.93,4.99,33.99-4.88,112.51-20.73,215.42-45.07,4.88-1.26,11.73-3.62,19.13-7.9,23.74-13.82,33.39-36.46,36.35-44.63,12.61-34.76-2.19-65.57-5.04-71.22,23.3-21.33,46.6-42.71,69.85-64.04,7.68,13.38,32.18,59.98,21.99,120.79Z"/>
  <path class="st2" d="M1556.52,531.58c-8.55,82.63-80.76,156.7-184.22,187.73v-72.15c58.99-24.18,98.03-66.78,100.61-112.18.6-11.07-.66-27.25-9.98-46.71,23.3-21.38,46.6-42.71,69.85-64.04,14.69,27.08,28.13,64.59,23.74,107.35Z"/>
  <g>
    <path class="st2" d="M789.8,668.68c-.84-35.4-48.62-37.42-66.91-10.49-18.37,27.05,3.91,65.66,40.81,51.86,18.2-6.81,27.7-24.36,26.1-41.38h0Z"/>
    <path class="st2" d="M789.61,667.62c3.31,28.68-34.24,61.72-62.93,38.06-25.52-21.05-3.28-67.03,31.19-66.58,18.51.25,30.97,11.64,31.74,28.52h0Z"/>
    <path class="st2" d="M789.72,667.66c3.3,28.68-34.24,61.72-62.93,38.06-25.53-21.05-3.28-67.04,31.19-66.58,18.51.25,30.97,11.64,31.74,28.52h0Z"/>
    <path class="st2" d="M789.69,668.64c-.84-35.4-48.62-37.42-66.91-10.49-18.37,27.05,3.92,65.66,40.81,51.86,18.2-6.81,27.7-24.36,26.1-41.38h0Z"/>
  </g>
  <g>
    <path class="st2" d="M1228.85,748c-.84-35.4-48.62-37.42-66.91-10.49-18.37,27.05,3.91,65.66,40.81,51.86,18.2-6.81,27.7-24.36,26.1-41.38h0Z"/>
    <path class="st2" d="M1228.65,746.94c3.31,28.68-34.24,61.72-62.93,38.06-25.52-21.05-3.28-67.03,31.19-66.58,18.51.25,30.97,11.64,31.74,28.52h0Z"/>
    <path class="st2" d="M1228.76,746.98c3.3,28.68-34.24,61.72-62.93,38.06-25.53-21.05-3.28-67.04,31.19-66.58,18.51.25,30.97,11.64,31.74,28.52h0Z"/>
    <path class="st2" d="M1228.74,747.96c-.84-35.4-48.62-37.42-66.91-10.49-18.37,27.05,3.92,65.66,40.81,51.86,18.2-6.81,27.7-24.36,26.1-41.38h0Z"/>
  </g>
  <g>
    <path class="st2" d="M1494.14,402.4c-.84-35.4-48.62-37.42-66.91-10.49-18.37,27.05,3.91,65.66,40.81,51.86,18.2-6.81,27.7-24.36,26.1-41.38h0Z"/>
    <path class="st2" d="M1493.95,401.34c3.31,28.68-34.24,61.72-62.93,38.06-25.52-21.05-3.28-67.03,31.19-66.58,18.51.25,30.97,11.64,31.74,28.52h0Z"/>
    <path class="st2" d="M1494.05,401.38c3.3,28.68-34.24,61.72-62.93,38.06-25.53-21.05-3.28-67.04,31.19-66.58,18.51.25,30.97,11.64,31.74,28.52h0Z"/>
    <path class="st2" d="M1494.03,402.36c-.84-35.4-48.62-37.42-66.91-10.49-18.37,27.05,3.92,65.66,40.81,51.86,18.2-6.81,27.7-24.36,26.1-41.38h0Z"/>
  </g>
  <g>
    <path class="st2" d="M1329.57,711.54c-.84-35.4-48.62-37.42-66.91-10.49-18.37,27.05,3.91,65.66,40.81,51.86,18.2-6.81,27.7-24.36,26.1-41.38h0Z"/>
    <path class="st2" d="M1329.38,710.48c3.31,28.68-34.24,61.72-62.93,38.06-25.52-21.05-3.28-67.03,31.19-66.58,18.51.25,30.97,11.64,31.74,28.52h0Z"/>
    <path class="st2" d="M1329.49,710.52c3.3,28.68-34.24,61.72-62.93,38.06-25.53-21.05-3.28-67.04,31.19-66.58,18.51.25,30.97,11.64,31.74,28.52h0Z"/>
    <path class="st2" d="M1329.47,711.5c-.84-35.4-48.62-37.42-66.91-10.49-18.37,27.05,3.92,65.66,40.81,51.86,18.2-6.81,27.7-24.36,26.1-41.38h0Z"/>
  </g>
  <g>
    <path class="st1" d="M888.67,922.35c2.23-.36,3.34-.54,5.56-.91.52,3.18.78,4.77,1.29,7.94-2.15.35-3.22.52-5.36.87-1.03.17-2.09.21-3.19.11-.44,3.34-1.91,6.16-4.39,8.41-2.2,2-4.97,3.26-8.25,3.79-5,.81-9.12-.17-12.35-2.93-2.48-2.11-4-4.84-4.54-8.18-.4-2.45-.24-4.72.47-6.8,3.12-1.26,4.68-1.89,7.79-3.16-.86,2.21-1.07,4.68-.63,7.39.36,2.18,1.23,3.78,2.61,4.77,1.39,1,3.17,1.32,5.36.96,2.09-.34,3.64-1.2,4.65-2.57,1.02-1.37,1.36-3.08,1.02-5.14-1.47-9.04-2.21-13.56-3.68-22.59,2.99-2.28,4.49-3.42,7.48-5.7,1.43,8.76,2.14,13.14,3.57,21.9.02.13.04.22.04.25.12.73.36,1.21.72,1.44.36.23.97.27,1.83.13Z"/>
    <path class="st1" d="M943.74,913.38c1.85-.3,2.77-.45,4.62-.75.52,3.18.78,4.77,1.3,7.94-2.15.35-3.22.52-5.36.87-2.18.36-4.1.16-5.75-.59-1.36,1.24-3.13,2.04-5.32,2.4-8.9,1.45-13.35,2.18-22.25,3.63-2.12.35-4.04.15-5.75-.59-1.46,1.26-3.23,2.06-5.32,2.4-2.14.35-3.22.52-5.36.87-.52-3.18-.78-4.77-1.3-7.94,1.85-.3,2.77-.45,4.62-.75.86-.14,1.42-.38,1.67-.73.25-.35.3-.95.16-1.81-.4-2.46-.6-3.69-1-6.16,3-2.26,4.49-3.39,7.49-5.66.68,4.19,1.02,6.29,1.71,10.48.14.83.36,1.37.67,1.62.31.26.87.33,1.67.24.98-4.85,2.75-8.95,5.35-12.24,2.83-3.59,6.37-5.73,10.57-6.41,4.07-.66,7.55.24,10.42,2.63,2.45,2.05,3.99,4.79,4.55,8.23.06.36.09.54.15.89.19,1.19,1.02,1.67,2.48,1.43ZM931.68,915.35c.79-.13,1.26-.32,1.39-.56.13-.24.11-.87-.06-1.9-.03-.2-.05-.3-.08-.5-.26-1.59-.89-2.79-1.89-3.62-1-.82-2.2-1.12-3.59-.89-1.99.32-3.78,1.35-5.39,3.07-1.61,1.72-2.8,3.91-3.6,6.55,5.28-.86,7.93-1.29,13.21-2.15ZM926.8,897.03c-1.23.2-2.28-.03-3.17-.68-.89-.65-1.43-1.59-1.63-2.82-.2-1.23.02-2.27.66-3.14.64-.87,1.57-1.4,2.8-1.6,1.22-.2,2.27.01,3.14.64.87.62,1.4,1.55,1.6,2.77.2,1.26,0,2.33-.62,3.21-.62.88-1.54,1.42-2.77,1.62Z"/>
    <path class="st1" d="M948.66,920.73c-.52-3.18-.78-4.77-1.3-7.94,2.4-.39,3.61-.59,6.01-.98-.66-1.15-1.11-2.4-1.33-3.76-.6-3.71-.04-6.83,1.69-9.35,1.54-2.25,3.81-3.63,6.82-4.12,3.08-.5,5.66.12,7.74,1.8,1.78,1.44,2.92,3.52,3.36,6.23.28,1.71.42,2.56.7,4.27.47,2.91,0,5.4-1.43,7.47-1.43,2.07-3.64,3.34-6.61,3.83-6.26,1.02-9.38,1.53-15.64,2.55ZM960.12,892.56c-1.23.2-2.28-.03-3.17-.68-.89-.65-1.43-1.59-1.63-2.82-.2-1.22.02-2.27.66-3.14.64-.87,1.57-1.4,2.8-1.6,1.23-.2,2.27.01,3.14.64.87.62,1.4,1.55,1.6,2.77.21,1.26,0,2.33-.62,3.21-.62.88-1.54,1.43-2.77,1.63ZM963.41,903.65c-.17-1.06-.7-1.51-1.6-1.37-1.59.26-2.18,1.65-1.77,4.16.45,2.78,1.47,4.04,3.06,3.78.9-.15,1.26-.75,1.08-1.81-.31-1.91-.47-2.86-.78-4.77Z"/>
    <path class="st1" d="M974.93,882.71c.54-1.58.81-2.36,1.35-3.94.66-.11.98-.16,1.64-.27-.51-.63-.83-1.33-.95-2.09-.2-1.22.09-2.32.84-3.3.67-.88,1.6-1.43,2.79-1.63,1.19-.19,2.34.08,3.45.81.23,1.41.34,2.12.57,3.53-1.06-.67-2.02-.94-2.88-.8-.53.09-.91.28-1.13.59-.19.27-.26.59-.2.95.08.46.37.92.89,1.38,2.1-.34,3.16-.51,5.26-.86-.54,1.58-.81,2.36-1.35,3.94-4.11.67-6.17,1-10.28,1.68ZM982.38,915.24c-1.67-10.27-2.51-15.4-4.18-25.67,2.99-2.28,4.49-3.42,7.48-5.7,1.96,12.02,2.94,18.02,4.9,30.04-3.28.53-4.91.8-8.19,1.34Z"/>
    <path class="st1" d="M1021.75,908.82c-3.31.54-6.1-.16-8.35-2.11-1.9-1.65-3.09-3.96-3.57-6.91-.52-3.21.07-6.16,1.77-8.85,1.49-2.35,3.67-4.27,6.56-5.76,3.7.59,6.66,1.99,8.88,4.16,1.97,1.92,3.2,4.27,3.65,7.05.56,3.41-.08,6.27-1.82,8.55-1.54,2.03-3.74,3.31-6.62,3.78-.2.03-.3.05-.5.08ZM1012.71,881.49c-1.23.2-2.28-.03-3.17-.68-.89-.65-1.43-1.59-1.63-2.82-.2-1.22.02-2.27.66-3.14.64-.87,1.57-1.4,2.8-1.6,1.23-.2,2.27.01,3.14.64.87.62,1.4,1.55,1.6,2.77.21,1.26,0,2.33-.62,3.21-.62.88-1.54,1.42-2.77,1.62ZM1020.46,900.87c.2-.03.3-.05.5-.08,1.42-.23,1.99-1.22,1.71-2.98-.37-2.29-1.45-3.91-3.24-4.88-1.35,1.51-1.85,3.34-1.5,5.5.3,1.85,1.15,2.67,2.54,2.44ZM1021.64,880.04c-1.23.2-2.28-.03-3.17-.68-.89-.65-1.43-1.59-1.63-2.82-.2-1.22.02-2.27.66-3.14.64-.87,1.57-1.4,2.8-1.6,1.23-.2,2.27.01,3.14.64.87.62,1.4,1.55,1.6,2.77.21,1.26,0,2.33-.62,3.21-.62.88-1.54,1.42-2.77,1.62Z"/>
    <path class="st1" d="M1049.5,904.3c-3.11.51-5.7-.09-7.78-1.79-1.84-1.5-2.99-3.62-3.43-6.37-1.17-7.19-1.76-10.78-2.93-17.97,3-2.26,4.49-3.39,7.49-5.66,1.43,8.76,2.14,13.14,3.57,21.9.14.86.38,1.42.73,1.67.35.25.95.3,1.81.16,1.85-.3,2.77-.45,4.62-.75.52,3.18.78,4.77,1.3,7.94-2.15.35-3.22.52-5.36.87Z"/>
    <path class="st1" d="M1057.76,907.08c1.23-.2,2.27.01,3.14.64.87.62,1.4,1.55,1.6,2.77.2,1.26,0,2.33-.62,3.21-.62.88-1.54,1.42-2.77,1.62-1.23.2-2.28-.03-3.17-.68-.89-.66-1.43-1.59-1.63-2.82-.2-1.22.02-2.27.66-3.14.64-.87,1.57-1.4,2.8-1.6ZM1069.76,892.84c1.85-.3,2.77-.45,4.62-.75.52,3.18.78,4.77,1.3,7.94-2.15.35-3.22.52-5.36.87-2.12.35-4.04.15-5.75-.59-1.46,1.26-3.23,2.06-5.32,2.4-2.14.35-3.22.52-5.36.87-.52-3.18-.78-4.77-1.3-7.94,1.85-.3,2.77-.45,4.62-.75.86-.14,1.42-.38,1.67-.73.25-.35.3-.95.16-1.81-.53-3.26-.8-4.89-1.33-8.14,3-2.26,4.49-3.39,7.49-5.66.81,4.99,1.22,7.48,2.03,12.46.14.86.38,1.42.73,1.67.34.25.95.3,1.81.16ZM1066.69,905.62c1.23-.2,2.27.01,3.14.64.87.62,1.4,1.55,1.6,2.77.2,1.26,0,2.33-.62,3.21-.62.88-1.54,1.42-2.77,1.62-1.23.2-2.28-.03-3.17-.68-.89-.66-1.43-1.59-1.63-2.82-.2-1.23.02-2.27.66-3.14.64-.87,1.57-1.4,2.8-1.6Z"/>
    <path class="st1" d="M1104.76,887.13c1.67-.27,2.5-.41,4.17-.68.52,3.18.78,4.77,1.3,7.94-1.69.28-2.53.41-4.22.69-2.52.41-4.6.47-6.24.18-1.65-.29-3.24-.99-4.78-2.1-3.78,3.1-8.25,5.07-13.41,5.91-2.76.45-4.14.68-6.9,1.13-.52-3.18-.78-4.77-1.29-7.94,2.78-.45,4.17-.68,6.95-1.13,4.93-.8,8.71-2.73,11.34-5.77-2.34-2.51-4.76-3.56-7.24-3.15-2.52.41-5.26,2.34-8.23,5.78-.46-2.8-.68-4.2-1.14-7,2.31-3.74,5.34-5.92,9.08-6.53.04,0,.06,0,.1-.02,2.68-.44,5.44.11,8.27,1.63s5.49,3.89,7.99,7.08c.18,1.11.27,1.67.45,2.78-.18.34-.49.84-.92,1.53,1.04.13,2.62.03,4.74-.32Z"/>
    <path class="st1" d="M1109.24,894.56c-.52-3.18-.78-4.77-1.3-7.94,1.05-.17,1.58-.26,2.63-.43,1.26-.2,2.07-.58,2.44-1.14.37-.55.45-1.49.23-2.81-1.06-6.52-1.59-9.77-2.66-16.29,2.99-2.28,4.49-3.42,7.48-5.7,1.35,8.28,2.03,12.42,3.38,20.7.57,3.51-.06,6.48-1.86,8.92-1.67,2.26-4.12,3.68-7.37,4.21-1.19.19-1.79.29-2.98.49Z"/>
    <path class="st1" d="M1176.07,883.66c-.01,3.26-1.5,6.02-4.47,8.22-2.53,1.88-5.89,3.15-10.03,3.83-5.79.94-10.4.01-13.81-2.79-2.55-2.1-4.11-4.9-4.68-8.41-.4-2.45-.21-4.71.58-6.77,2.99-1.16,4.49-1.74,7.48-2.9-.78,2.34-.97,4.66-.6,6.98.85,5.23,4.12,7.38,9.82,6.45,3.87-.63,6.25-1.7,7.12-3.2-1.83.3-2.74.45-4.57.74,1.13-3.45,1.7-5.17,2.83-8.62,3.67-.6,5.51-.9,9.19-1.5.52,3.18.78,4.77,1.3,7.94-.06,0-.09.01-.15.02ZM1159.12,907.58c-1.23.2-2.28-.03-3.17-.68-.89-.66-1.43-1.59-1.63-2.82-.2-1.23.02-2.27.66-3.14.64-.87,1.57-1.4,2.8-1.6,1.23-.2,2.27.01,3.14.64.87.62,1.4,1.55,1.6,2.77.2,1.26,0,2.33-.62,3.21-.62.88-1.54,1.42-2.77,1.62ZM1168.06,906.12c-1.23.2-2.28-.03-3.17-.68-.89-.66-1.43-1.59-1.63-2.82-.2-1.23.02-2.27.66-3.14.64-.87,1.57-1.4,2.8-1.6,1.23-.2,2.27.01,3.14.64.87.62,1.4,1.55,1.6,2.77.2,1.26,0,2.33-.62,3.21-.62.88-1.54,1.42-2.77,1.62Z"/>
    <path class="st1" d="M1204.81,870.82c1.67-.27,2.5-.41,4.17-.68.52,3.18.78,4.77,1.29,7.94-1.69.28-2.53.41-4.22.69-2.52.41-4.6.47-6.24.18-1.65-.29-3.24-.99-4.78-2.1-3.78,3.1-8.25,5.07-13.41,5.91-2.76.45-4.14.68-6.9,1.13-.52-3.18-.78-4.77-1.3-7.94,2.78-.45,4.17-.68,6.95-1.13,4.93-.8,8.71-2.73,11.34-5.77-2.34-2.51-4.76-3.56-7.24-3.15-2.52.41-5.26,2.34-8.23,5.78-.46-2.8-.69-4.2-1.14-7,2.31-3.74,5.34-5.92,9.08-6.53.04,0,.06,0,.1-.02,2.68-.44,5.44.11,8.27,1.63,2.83,1.53,5.49,3.89,7.99,7.08.18,1.11.27,1.67.45,2.78-.18.34-.49.84-.92,1.53,1.04.13,2.62.03,4.74-.32Z"/>
    <path class="st1" d="M1224.97,867.54c.98-4.85,2.75-8.95,5.35-12.24,2.83-3.59,6.37-5.73,10.57-6.41,4.07-.66,7.55.24,10.42,2.63,2.45,2.05,3.99,4.79,4.55,8.23.06.36.09.54.15.89.52,3.18-.1,5.81-1.77,7.88-1.47,1.82-3.56,2.98-6.27,3.42-8.9,1.45-13.35,2.18-22.25,3.63-2.12.35-4.04.15-5.75-.59-1.46,1.26-3.23,2.06-5.32,2.4-2.14.35-3.22.52-5.36.87-.52-3.18-.78-4.77-1.3-7.94,1.85-.3,2.77-.45,4.62-.75.86-.14,1.42-.38,1.67-.73.25-.35.3-.95.16-1.81-.4-2.46-.6-3.69-1-6.16,3-2.26,4.49-3.39,7.49-5.66.68,4.19,1.02,6.29,1.71,10.48.14.83.36,1.37.67,1.62.31.26.87.33,1.67.24ZM1247.75,861.58c-.03-.2-.05-.3-.08-.5-.26-1.59-.89-2.79-1.89-3.62-1-.82-2.2-1.12-3.59-.89-1.99.32-3.78,1.35-5.39,3.07-1.61,1.72-2.8,3.91-3.6,6.55,5.28-.86,7.93-1.29,13.21-2.15.79-.13,1.26-.32,1.39-.56.13-.24.11-.87-.06-1.9Z"/>
    <path class="st1" d="M1275.47,871.18c-.51-3.16-.77-4.74-1.29-7.89,1.07-.92,2.23-1.71,3.49-2.35-.98-1.61-1.61-3.32-1.91-5.14-.66-4.04.12-7.28,2.34-9.71,1.61-1.76,3.7-2.85,6.25-3.26,2.98-.49,5.75.24,8.3,2.16.48,2.96.72,4.44,1.21,7.4-3.07-1.78-5.54-2.51-7.39-2.21-.03,0-.1.02-.2.03-1.97.42-2.77,1.78-2.4,4.06.27,1.66,1,2.98,2.18,3.98.85-.2,1.27-.3,2.11-.5,3.35-.92,6.22-2.47,8.62-4.67.46,2.96.69,4.44,1.16,7.41-2.46,2.61-6.18,4.32-11.14,5.13-4.63.76-8.41,2.61-11.33,5.57Z"/>
    <path class="st1" d="M1305.46,862.57c-1.8-11.06-2.71-16.59-4.51-27.66,2.99-2.28,4.49-3.42,7.48-5.7,2.09,12.81,3.13,19.22,5.22,32.03-3.28.53-4.91.8-8.19,1.34Z"/>
    <path class="st1" d="M1318.62,860.43c1.13-3.45,1.7-5.17,2.83-8.62,2.76-.45,4.14-.67,6.9-1.12.99-.16,1.41-.74,1.25-1.73-.46-2.85-2.34-4.88-5.63-6.12,1.16-3.02,1.74-4.53,2.9-7.56,5.54,2.12,9.03,5.6,10.47,10.43.44,1.46.89,2.35,1.35,2.68.46.33,1.3.4,2.53.2,1.43-.23,2.14-.35,3.57-.58.52,3.18.78,4.77,1.3,7.94-1.57.26-2.35.38-3.92.64-2.25.37-4.32.19-6.2-.52-1.13,1.2-2.72,1.97-4.77,2.31-5.02.82-7.54,1.23-12.56,2.05ZM1326.35,831.9c-1.23.2-2.28-.03-3.17-.68-.89-.65-1.43-1.59-1.63-2.82-.2-1.22.02-2.27.66-3.14.64-.87,1.57-1.4,2.8-1.6,1.23-.2,2.27.01,3.14.64.87.63,1.4,1.55,1.6,2.77.2,1.26,0,2.33-.62,3.21-.62.88-1.54,1.42-2.77,1.62Z"/>
    <path class="st1" d="M1371,843.73c.52,3.18.78,4.77,1.3,7.94-10.88,1.77-16.32,2.66-27.21,4.43-.52-3.18-.78-4.77-1.3-7.94,2.22-.36,3.34-.54,5.56-.91-.72-1.28-1.21-2.74-1.48-4.4-.58-3.54.23-6.62,2.43-9.16,1.78-2.06,4.06-3.31,6.78-3.76,3.71-.6,6.97.55,9.79,3.45.46,2.8.68,4.2,1.14,7-3.01-2.4-5.9-3.37-8.68-2.92-.1.02-.18.03-.25.04-2.37.45-3.36,1.89-2.97,4.31.46,2.81,2.44,3.93,5.95,3.36,3.57-.58,5.36-.87,8.94-1.46ZM1356.64,826.96c-1.23.2-2.28-.03-3.17-.68-.89-.65-1.43-1.59-1.63-2.82s.02-2.27.66-3.14c.64-.87,1.57-1.4,2.8-1.6,1.22-.2,2.27.01,3.14.64.87.63,1.4,1.55,1.6,2.77.2,1.26,0,2.33-.62,3.21-.62.88-1.54,1.42-2.77,1.62Z"/>
  </g>
  <path class="st5" d="M1352.43,632.96"/>
  <g>
    <path class="st2" d="M542.75,668.97v-26.74c2.48-.37,4.77-.55,6.86-.55,6.49,0,9.73,2.74,9.73,8.21,0,3.55-1.47,6.07-4.4,7.53l5.33,11.55h-3.98l-4.82-10.58c-.37.06-.9.08-1.61.08-.99,0-2.05-.1-3.17-.3v10.79h-3.94ZM546.68,645.11v9.9c1.13.2,2.19.3,3.17.3,3.55,0,5.33-1.81,5.33-5.42,0-3.39-1.79-5.08-5.37-5.08-1.3,0-2.34.1-3.13.3Z"/>
    <path class="st2" d="M550.13,677.76c-12.36,0-22.41-10.06-22.41-22.41s10.06-22.41,22.41-22.41,22.41,10.06,22.41,22.41-10.06,22.41-22.41,22.41ZM550.13,634.48c-11.51,0-20.87,9.36-20.87,20.87s9.36,20.87,20.87,20.87,20.87-9.36,20.87-20.87-9.36-20.87-20.87-20.87Z"/>
  </g>
</svg>