<?xml version="1.0" encoding="UTF-8"?>
<svg id="Layer_1" data-name="Layer 1" xmlns="http://www.w3.org/2000/svg" xmlns:xlink="http://www.w3.org/1999/xlink" viewBox="0 0 1000 600">
  <defs>
    <style>
      .cls-1 {
        fill: url(#linear-gradient-61);
      }

      .cls-2 {
        fill: url(#linear-gradient-15);
      }

      .cls-3 {
        fill: url(#linear-gradient-13);
      }

      .cls-4 {
        fill: url(#linear-gradient-28);
      }

      .cls-5 {
        fill: url(#linear-gradient-65);
      }

      .cls-6 {
        fill: url(#linear-gradient-69);
      }

      .cls-7 {
        fill: url(#linear-gradient-53);
      }

      .cls-8 {
        fill: url(#linear-gradient-42);
      }

      .cls-9 {
        fill: url(#linear-gradient-46);
      }

      .cls-10 {
        fill: url(#linear-gradient-70);
      }

      .cls-11 {
        fill: #306a45;
      }

      .cls-12 {
        fill: url(#linear-gradient-60);
      }

      .cls-13 {
        fill: url(#linear-gradient-2);
      }

      .cls-14 {
        fill: url(#linear-gradient-64);
      }

      .cls-15 {
        fill: url(#linear-gradient-56);
      }

      .cls-16 {
        fill: url(#linear-gradient-43);
      }

      .cls-17 {
        fill: url(#linear-gradient-25);
      }

      .cls-18 {
        fill: url(#linear-gradient-10);
      }

      .cls-19 {
        fill: url(#linear-gradient-12);
      }

      .cls-20 {
        fill: url(#linear-gradient-40);
      }

      .cls-21 {
        fill: url(#linear-gradient-27);
      }

      .cls-22 {
        fill: url(#linear-gradient-68);
      }

      .cls-23 {
        fill: none;
        stroke: #d0dc27;
        stroke-miterlimit: 10;
      }

      .cls-24 {
        fill: url(#linear-gradient-37);
      }

      .cls-25 {
        fill: url(#linear-gradient-55);
      }

      .cls-26 {
        fill: #fff;
      }

      .cls-27 {
        fill: url(#linear-gradient-39);
      }

      .cls-28 {
        fill: url(#linear-gradient-52);
      }

      .cls-29 {
        fill: url(#linear-gradient-58);
      }

      .cls-30 {
        fill: url(#linear-gradient-47);
      }

      .cls-31 {
        fill: url(#linear-gradient-26);
      }

      .cls-32 {
        fill: url(#linear-gradient-4);
      }

      .cls-33 {
        fill: url(#linear-gradient-35);
      }

      .cls-34 {
        fill: url(#linear-gradient-30);
      }

      .cls-35 {
        fill: #a5ce3a;
      }

      .cls-36 {
        fill: url(#linear-gradient-71);
      }

      .cls-37 {
        fill: url(#linear-gradient-44);
      }

      .cls-38 {
        fill: url(#linear-gradient-49);
      }

      .cls-39 {
        fill: url(#linear-gradient-3);
      }

      .cls-40 {
        fill: url(#linear-gradient-34);
      }

      .cls-41 {
        fill: url(#linear-gradient-5);
      }

      .cls-42 {
        fill: url(#linear-gradient-38);
      }

      .cls-43 {
        fill: url(#linear-gradient-22);
      }

      .cls-44 {
        fill: url(#linear-gradient-24);
      }

      .cls-45 {
        fill: url(#linear-gradient-54);
      }

      .cls-46 {
        fill: url(#linear-gradient-33);
      }

      .cls-47 {
        fill: url(#linear-gradient-51);
      }

      .cls-48 {
        fill: url(#linear-gradient-8);
      }

      .cls-49 {
        fill: url(#linear-gradient-66);
      }

      .cls-50 {
        fill: url(#linear-gradient-57);
      }

      .cls-51 {
        fill: url(#linear-gradient-14);
      }

      .cls-52 {
        fill: url(#linear-gradient-62);
      }

      .cls-53 {
        fill: url(#linear-gradient-29);
      }

      .cls-54 {
        fill: url(#linear-gradient-20);
      }

      .cls-55 {
        fill: url(#linear-gradient-67);
      }

      .cls-56 {
        fill: url(#linear-gradient-17);
      }

      .cls-57 {
        fill: url(#linear-gradient-50);
      }

      .cls-58 {
        fill: url(#linear-gradient-7);
      }

      .cls-59 {
        fill: url(#linear-gradient-9);
      }

      .cls-60 {
        fill: url(#linear-gradient-59);
      }

      .cls-61 {
        fill: url(#linear-gradient-11);
      }

      .cls-62 {
        fill: url(#linear-gradient-19);
      }

      .cls-63 {
        fill: url(#linear-gradient-6);
      }

      .cls-64 {
        fill: #77c044;
      }

      .cls-65 {
        fill: url(#linear-gradient-36);
      }

      .cls-66 {
        fill: url(#linear-gradient-21);
      }

      .cls-67 {
        fill: url(#linear-gradient-45);
      }

      .cls-68 {
        fill: url(#linear-gradient-48);
      }

      .cls-69 {
        fill: url(#linear-gradient-32);
      }

      .cls-70 {
        fill: url(#linear-gradient-41);
      }

      .cls-71 {
        fill: url(#linear-gradient-16);
      }

      .cls-72 {
        fill: url(#linear-gradient);
      }

      .cls-73 {
        font-family: Montserrat-Medium, Montserrat;
        font-size: 19px;
        font-weight: 500;
      }

      .cls-74 {
        fill: url(#linear-gradient-23);
      }

      .cls-75 {
        fill: url(#linear-gradient-31);
      }

      .cls-76 {
        fill: url(#linear-gradient-63);
      }

      .cls-77 {
        fill: url(#linear-gradient-18);
      }
    </style>
    <linearGradient id="linear-gradient" x1="171.22" y1="173.57" x2="331.81" y2="173.57" gradientUnits="userSpaceOnUse">
      <stop offset="0" stop-color="#67c18a"/>
      <stop offset=".2" stop-color="#049d4f"/>
      <stop offset=".66" stop-color="$theme-color"/>
    </linearGradient>
    <linearGradient id="linear-gradient-2" x1="-1104.67" y1="403.42" x2="-935.69" y2="403.42" gradientTransform="translate(-844.56 141.2) rotate(160.34) scale(1 -1)" gradientUnits="userSpaceOnUse">
      <stop offset=".2" stop-color="#f4d50e"/>
      <stop offset=".51" stop-color="#fee700"/>
      <stop offset=".75" stop-color="#f7db08"/>
      <stop offset="1" stop-color="#f4d50e"/>
    </linearGradient>
    <linearGradient id="linear-gradient-3" x1="-1101.26" y1="372.26" x2="-1045.36" y2="367.51" xlink:href="#linear-gradient-2"/>
    <linearGradient id="linear-gradient-4" x1="-1059.12" y1="348.99" x2="-999.16" y2="348.99" gradientTransform="translate(-844.56 141.2) rotate(160.34) scale(1 -1)" xlink:href="#linear-gradient"/>
    <linearGradient id="linear-gradient-5" x1="-1000.21" y1="346.52" x2="-985.14" y2="346.52" gradientTransform="translate(-844.56 141.2) rotate(160.34) scale(1 -1)" xlink:href="#linear-gradient"/>
    <linearGradient id="linear-gradient-6" x1="-1045.74" y1="526.94" x2="-989.83" y2="522.19" xlink:href="#linear-gradient-2"/>
    <linearGradient id="linear-gradient-7" x1="-1003.59" y1="503.67" x2="-943.63" y2="503.67" gradientTransform="translate(-844.56 141.2) rotate(160.34) scale(1 -1)" gradientUnits="userSpaceOnUse">
      <stop offset="0" stop-color="$theme-color"/>
      <stop offset=".66" stop-color="#0b8242"/>
    </linearGradient>
    <linearGradient id="linear-gradient-8" x1="-944.68" y1="501.19" x2="-929.61" y2="501.19" xlink:href="#linear-gradient-7"/>
    <linearGradient id="linear-gradient-9" x1="183.18" y1="343.11" x2="287.98" y2="343.11" gradientTransform="matrix(1,0,0,1,0,0)" xlink:href="#linear-gradient-7"/>
    <linearGradient id="linear-gradient-10" x1="294.12" y1="333.16" x2="320.6" y2="333.16" gradientTransform="matrix(1,0,0,1,0,0)" xlink:href="#linear-gradient-7"/>
    <linearGradient id="linear-gradient-11" x1="200.26" y1="348.13" x2="210.8" y2="348.13" gradientTransform="matrix(1,0,0,1,0,0)" xlink:href="#linear-gradient-7"/>
    <linearGradient id="linear-gradient-12" x1="200.17" y1="348.14" x2="210.78" y2="348.14" gradientTransform="matrix(1,0,0,1,0,0)" xlink:href="#linear-gradient-7"/>
    <linearGradient id="linear-gradient-13" x1="200.18" y1="348.14" x2="210.79" y2="348.14" gradientTransform="matrix(1,0,0,1,0,0)" xlink:href="#linear-gradient-7"/>
    <linearGradient id="linear-gradient-14" x1="200.25" y1="348.12" x2="210.79" y2="348.12" gradientTransform="matrix(1,0,0,1,0,0)" xlink:href="#linear-gradient-7"/>
    <linearGradient id="linear-gradient-15" x1="263.08" y1="359.48" x2="273.62" y2="359.48" gradientTransform="matrix(1,0,0,1,0,0)" xlink:href="#linear-gradient-7"/>
    <linearGradient id="linear-gradient-16" x1="262.98" y1="359.49" x2="273.6" y2="359.49" gradientTransform="matrix(1,0,0,1,0,0)" xlink:href="#linear-gradient-7"/>
    <linearGradient id="linear-gradient-17" x1="263" y1="359.49" x2="273.61" y2="359.49" gradientTransform="matrix(1,0,0,1,0,0)" xlink:href="#linear-gradient-7"/>
    <linearGradient id="linear-gradient-18" x1="263.07" y1="359.47" x2="273.6" y2="359.47" gradientTransform="matrix(1,0,0,1,0,0)" xlink:href="#linear-gradient-7"/>
    <linearGradient id="linear-gradient-19" x1="301.04" y1="310.03" x2="311.58" y2="310.03" gradientTransform="matrix(1,0,0,1,0,0)" xlink:href="#linear-gradient-7"/>
    <linearGradient id="linear-gradient-20" x1="300.94" y1="310.04" x2="311.55" y2="310.04" gradientTransform="matrix(1,0,0,1,0,0)" xlink:href="#linear-gradient-7"/>
    <linearGradient id="linear-gradient-21" x1="300.96" y1="310.04" x2="311.57" y2="310.04" gradientTransform="matrix(1,0,0,1,0,0)" xlink:href="#linear-gradient-7"/>
    <linearGradient id="linear-gradient-22" x1="301.02" y1="310.03" x2="311.56" y2="310.03" gradientTransform="matrix(1,0,0,1,0,0)" xlink:href="#linear-gradient-7"/>
    <linearGradient id="linear-gradient-23" x1="277.49" y1="354.26" x2="288.03" y2="354.26" gradientTransform="matrix(1,0,0,1,0,0)" xlink:href="#linear-gradient-7"/>
    <linearGradient id="linear-gradient-24" x1="277.4" y1="354.27" x2="288.01" y2="354.27" gradientTransform="matrix(1,0,0,1,0,0)" xlink:href="#linear-gradient-7"/>
    <linearGradient id="linear-gradient-25" x1="277.41" y1="354.27" x2="288.02" y2="354.27" gradientTransform="matrix(1,0,0,1,0,0)" xlink:href="#linear-gradient-7"/>
    <linearGradient id="linear-gradient-26" x1="277.48" y1="354.26" x2="288.01" y2="354.26" gradientTransform="matrix(1,0,0,1,0,0)" xlink:href="#linear-gradient-7"/>
    <linearGradient id="linear-gradient-27" x1="255.31" y1="440.72" x2="316.16" y2="440.72" gradientTransform="matrix(1,0,0,1,0,0)" xlink:href="#linear-gradient-2"/>
    <linearGradient id="linear-gradient-28" x1="648.09" y1="171.71" x2="809.44" y2="171.71" xlink:href="#linear-gradient"/>
    <linearGradient id="linear-gradient-29" x1="644.34" y1="178.93" x2="813.32" y2="178.93" gradientTransform="matrix(1,0,0,1,0,0)" xlink:href="#linear-gradient-2"/>
    <linearGradient id="linear-gradient-30" x1="647.75" y1="147.77" x2="703.66" y2="143.02" gradientTransform="matrix(1,0,0,1,0,0)" xlink:href="#linear-gradient-2"/>
    <linearGradient id="linear-gradient-31" x1="689.89" y1="124.5" x2="749.86" y2="124.5" xlink:href="#linear-gradient"/>
    <linearGradient id="linear-gradient-32" x1="748.81" y1="122.03" x2="763.87" y2="122.03" xlink:href="#linear-gradient"/>
    <linearGradient id="linear-gradient-33" x1="655.17" y1="314.08" x2="711.08" y2="309.32" gradientTransform="matrix(1,0,0,1,0,0)" xlink:href="#linear-gradient-2"/>
    <linearGradient id="linear-gradient-34" x1="709.51" y1="348.88" x2="709.54" y2="348.88" gradientTransform="matrix(1,0,0,1,0,0)" xlink:href="#linear-gradient-7"/>
    <linearGradient id="linear-gradient-35" x1="709.51" y1="325.55" x2="736.55" y2="325.55" gradientTransform="matrix(1,0,0,1,0,0)" xlink:href="#linear-gradient-7"/>
    <linearGradient id="linear-gradient-36" x1="736.54" y1="327.77" x2="736.55" y2="327.77" gradientTransform="matrix(1,0,0,1,0,0)" xlink:href="#linear-gradient-7"/>
    <linearGradient id="linear-gradient-37" x1="719.17" y1="333.12" x2="736.55" y2="333.12" gradientTransform="matrix(1,0,0,1,0,0)" xlink:href="#linear-gradient-7"/>
    <linearGradient id="linear-gradient-38" x1="719.17" y1="338.59" x2="719.19" y2="338.59" gradientTransform="matrix(1,0,0,1,0,0)" xlink:href="#linear-gradient-7"/>
    <linearGradient id="linear-gradient-39" x1="719.18" y1="341.79" x2="733.6" y2="341.79" gradientTransform="matrix(1,0,0,1,0,0)" xlink:href="#linear-gradient-7"/>
    <linearGradient id="linear-gradient-40" x1="733.59" y1="344.89" x2="733.6" y2="344.89" gradientTransform="matrix(1,0,0,1,0,0)" xlink:href="#linear-gradient-7"/>
    <linearGradient id="linear-gradient-41" x1="719.18" y1="350.04" x2="733.6" y2="350.04" gradientTransform="matrix(1,0,0,1,0,0)" xlink:href="#linear-gradient-7"/>
    <linearGradient id="linear-gradient-42" x1="719.18" y1="355.87" x2="719.19" y2="355.87" gradientTransform="matrix(1,0,0,1,0,0)" xlink:href="#linear-gradient-7"/>
    <linearGradient id="linear-gradient-43" x1="719.18" y1="359.37" x2="737.36" y2="359.37" gradientTransform="matrix(1,0,0,1,0,0)" xlink:href="#linear-gradient-7"/>
    <linearGradient id="linear-gradient-44" x1="709.53" y1="368.31" x2="737.36" y2="368.31" gradientTransform="matrix(1,0,0,1,0,0)" xlink:href="#linear-gradient-7"/>
    <linearGradient id="linear-gradient-45" x1="737.35" y1="362.2" x2="737.36" y2="362.2" gradientTransform="matrix(1,0,0,1,0,0)" xlink:href="#linear-gradient-7"/>
    <linearGradient id="linear-gradient-46" x1="709.52" y1="346.97" x2="737.36" y2="346.97" gradientTransform="matrix(1,0,0,1,0,0)" xlink:href="#linear-gradient-7"/>
    <linearGradient id="linear-gradient-47" x1="709.51" y1="346.97" x2="737.35" y2="346.97" gradientTransform="matrix(1,0,0,1,0,0)" xlink:href="#linear-gradient-7"/>
    <linearGradient id="linear-gradient-48" x1="760.13" y1="332.28" x2="803.56" y2="332.28" gradientTransform="matrix(1,0,0,1,0,0)" xlink:href="#linear-gradient-7"/>
    <linearGradient id="linear-gradient-49" x1="674.73" y1="356.72" x2="692.38" y2="356.72" gradientTransform="matrix(1,0,0,1,0,0)" xlink:href="#linear-gradient-7"/>
    <linearGradient id="linear-gradient-50" x1="675.27" y1="339.37" x2="692.38" y2="339.37" gradientTransform="matrix(1,0,0,1,0,0)" xlink:href="#linear-gradient-7"/>
    <linearGradient id="linear-gradient-51" x1="675.26" y1="336.45" x2="675.28" y2="336.45" gradientTransform="matrix(1,0,0,1,0,0)" xlink:href="#linear-gradient-7"/>
    <linearGradient id="linear-gradient-52" x1="675.26" y1="330.3" x2="703.81" y2="330.3" gradientTransform="matrix(1,0,0,1,0,0)" xlink:href="#linear-gradient-7"/>
    <linearGradient id="linear-gradient-53" x1="687.24" y1="346.75" x2="703.81" y2="346.75" gradientTransform="matrix(1,0,0,1,0,0)" xlink:href="#linear-gradient-7"/>
    <linearGradient id="linear-gradient-54" x1="687.24" y1="364.02" x2="704.27" y2="364.02" gradientTransform="matrix(1,0,0,1,0,0)" xlink:href="#linear-gradient-7"/>
    <linearGradient id="linear-gradient-55" x1="674.74" y1="373.16" x2="704.27" y2="373.16" gradientTransform="matrix(1,0,0,1,0,0)" xlink:href="#linear-gradient-7"/>
    <linearGradient id="linear-gradient-56" x1="704.25" y1="366.93" x2="704.27" y2="366.93" gradientTransform="matrix(1,0,0,1,0,0)" xlink:href="#linear-gradient-7"/>
    <linearGradient id="linear-gradient-57" x1="674.75" y1="351.78" x2="704.27" y2="351.78" gradientTransform="matrix(1,0,0,1,0,0)" xlink:href="#linear-gradient-7"/>
    <linearGradient id="linear-gradient-58" x1="674.73" y1="351.77" x2="704.26" y2="351.77" gradientTransform="matrix(1,0,0,1,0,0)" xlink:href="#linear-gradient-7"/>
    <linearGradient id="linear-gradient-59" x1="744.54" y1="349.95" x2="744.56" y2="349.95" gradientTransform="matrix(1,0,0,1,0,0)" xlink:href="#linear-gradient-7"/>
    <linearGradient id="linear-gradient-60" x1="744.55" y1="333.93" x2="754.08" y2="333.93" gradientTransform="matrix(1,0,0,1,0,0)" xlink:href="#linear-gradient-7"/>
    <linearGradient id="linear-gradient-61" x1="744.54" y1="364.61" x2="754.06" y2="364.61" gradientTransform="matrix(1,0,0,1,0,0)" xlink:href="#linear-gradient-7"/>
    <linearGradient id="linear-gradient-62" x1="754.05" y1="348.59" x2="754.08" y2="348.59" gradientTransform="matrix(1,0,0,1,0,0)" xlink:href="#linear-gradient-7"/>
    <linearGradient id="linear-gradient-63" x1="744.56" y1="349.28" x2="754.08" y2="349.28" gradientTransform="matrix(1,0,0,1,0,0)" xlink:href="#linear-gradient-7"/>
    <linearGradient id="linear-gradient-64" x1="744.54" y1="349.27" x2="754.06" y2="349.27" gradientTransform="matrix(1,0,0,1,0,0)" xlink:href="#linear-gradient-7"/>
    <linearGradient id="linear-gradient-65" x1="697.31" y1="290.8" x2="757.28" y2="290.8" gradientTransform="matrix(1,0,0,1,0,0)" xlink:href="#linear-gradient-7"/>
    <linearGradient id="linear-gradient-66" x1="756.23" y1="288.33" x2="771.29" y2="288.33" gradientTransform="matrix(1,0,0,1,0,0)" xlink:href="#linear-gradient-7"/>
    <linearGradient id="linear-gradient-67" x1="744.1" y1="325.54" x2="754.63" y2="325.54" gradientTransform="matrix(1,0,0,1,0,0)" xlink:href="#linear-gradient-7"/>
    <linearGradient id="linear-gradient-68" x1="744" y1="325.55" x2="754.61" y2="325.55" gradientTransform="matrix(1,0,0,1,0,0)" xlink:href="#linear-gradient-7"/>
    <linearGradient id="linear-gradient-69" x1="744.01" y1="325.56" x2="754.63" y2="325.56" gradientTransform="matrix(1,0,0,1,0,0)" xlink:href="#linear-gradient-7"/>
    <linearGradient id="linear-gradient-70" x1="744.08" y1="325.54" x2="754.62" y2="325.54" gradientTransform="matrix(1,0,0,1,0,0)" xlink:href="#linear-gradient-7"/>
    <linearGradient id="linear-gradient-71" x1="650.69" y1="463.67" x2="704.75" y2="463.67" gradientTransform="matrix(1,0,0,1,0,0)" xlink:href="#linear-gradient-2"/>
  </defs>
  <text class="cls-73" transform="translate(145.54 74.66)"><tspan x="0" y="0">One color arabic</tspan></text>
  <line class="cls-23" x1="133.31" y1="85.95" x2="393" y2="85.95"/>
  <text class="cls-73" transform="translate(611.22 74.66)"><tspan x="0" y="0">One color English</tspan></text>
  <line class="cls-23" x1="598.99" y1="85.95" x2="858.68" y2="85.95"/>
  <g>
    <path class="cls-72" d="M331.72,168.77c-.83,10.6-7.53,17.67-9.95,20.16-15.63,16.03-32.04,6.33-71.94,15.85-25.28,6.03-39.43,14.87-57.44,9.14-9.95-3.17-14.41-8.68-15.6-10.24-6.22-8.2-5.66-17.74-5.47-22.03.6-13.45,8.09-22.63,11.15-26.4,1.97-2.42,4.02-4.49,6.03-6.26,3.97-3.48,7.77-5.77,10.54-7.21,1.87.95,4.57,2.21,7.91,3.45.13.05.26.09.39.15.73.27,1.48.55,2.27.83.13.05.26.09.38.13.24.09.49.17.74.26,1.11.39,2.27.78,3.48,1.15,6.14,1.9,13.37,3.33,20.66,1.87,12.62-2.53,20.33-12.71,23.25-17.17,0,0,0-.02,0-.02.27-.4.49-.75.67-1.05.2.79.41,1.52.64,2.2,1.39,4.24,3.36,6.37,5,7.52.28.2.55.37.81.51,8.65,4.87,18-7.04,35.59-6.01,2.12.13,6.54.44,11.4,2.31,2.45.94,5,2.27,7.43,4.19,7.72,6.09,12.87,16.29,12.06,26.67Z"/>
    <path class="cls-13" d="M173.89,208.45c17.04,27.74,76.47,17.99,81.66,17.08,33.7-5.89,80.25-26.7,81.41-53.81.36-8.31-3.4-20.73-12.7-28.07-3.99-3.15-8.33-4.83-12.03-5.73,2.45.94,5.01,2.28,7.43,4.19,7.72,6.09,12.88,16.28,12.06,26.67-.83,10.6-7.54,17.66-9.96,20.16-15.63,16.04-32.04,6.33-71.94,15.85-25.28,6.03-39.43,14.87-57.43,9.14-9.96-3.17-14.42-8.68-15.61-10.25-6.22-8.19-5.66-17.73-5.46-22.03.6-13.45,8.08-22.63,11.15-26.4,1.97-2.42,4.02-4.49,6.03-6.26-2.82,2.22-5.8,5.02-8.63,8.49-3.23,3.96-11.11,13.63-11.74,27.79-.43,9.62,2.65,18.14,5.75,23.18Z"/>
    <path class="cls-39" d="M267.73,137.41c8.65,4.87,18.01-7.05,35.6-6.01,2.87.17,11.63.68,18.82,6.5-3.68-15.63-18.18-26.83-34.77-25.82-11,.66-20.45,6.54-26.09,15.09,1.59,6.56,4.42,9.1,6.43,10.24Z"/>
    <path class="cls-32" d="M263.7,112.14c.67-3.78,1.34-7.56,2.01-11.34-2.46-.21-5.88-.31-9.9.17-3.71.45-15.69,1.95-25.15,10.7-13.76,12.73-13.14,30.29-13.01,32.85,3.18.8,14.38,3.22,25.99-2.69,17.23-8.78,19.85-28.01,20.06-29.7h0Z"/>
    <path class="cls-41" d="M202.03,124.49c-1.58-.27-3.15-.55-4.73-.82-.08,1.02-.12,2.45.09,4.12.19,1.54.84,6.53,4.5,10.46,5.33,5.71,12.64,5.42,13.71,5.36.33-1.33,1.32-6-1.17-10.82-3.69-7.16-11.7-8.22-12.41-8.3h0Z"/>
    <path class="cls-26" d="M287.87,168.22c-.8,4.79-3.55,9.01-4.1,9.89-.13.22-.41.66-.79,1.18,0,0-2.92,3.98-8.79,6.42-4.67,1.94-22.56,6.11-47.25,9.72-.78,1.84-4.8,10.74-14.54,14.19-5.93,2.1-10.95,1.11-11.96.89-7.26-1.56-12.95-6.82-15.46-12.86-1.88-4.53-1.58-8.56-1.46-10.25,1.25-17,22.17-36.33,27.23-40.79,1.11.39,2.27.78,3.48,1.15-14.56,17.2-22.76,32.14-22.37,38.87.26,4.55,2.35,7.61,2.35,7.61,2.45,3.6,6.02,4.89,6.94,5.19.88.29,5.64,1.76,10.53-.82,5.03-2.66,6.53-7.67,6.95-9.48,1.87-8.28-4.46-14.66-4.89-15.08,3.28-2.83,6.57-5.66,9.84-8.48,2.54,5.66,3.94,10,4.78,13.17.36,1.37.89,3.56,2.78,4.82,1.97,1.32,4.37.89,5.57.71,4.86-.7,16.1-2.97,30.82-6.45.7-.18,1.68-.52,2.74-1.13,3.4-1.98,4.78-5.22,5.2-6.39,1.8-4.97-.31-9.38-.72-10.19,3.33-3.05,6.67-6.11,9.99-9.16,1.1,1.91,4.6,8.58,3.15,17.28Z"/>
    <path class="cls-26" d="M320.72,163.07c-1.22,11.82-11.55,22.42-26.36,26.86v-10.32c8.44-3.46,14.03-9.55,14.39-16.05.09-1.58-.09-3.9-1.43-6.68,3.33-3.06,6.67-6.11,9.99-9.16,2.1,3.88,4.02,9.24,3.4,15.36Z"/>
    <g>
      <path class="cls-26" d="M211.02,182.69c-.12-5.06-6.96-5.35-9.57-1.5-2.63,3.87.56,9.39,5.84,7.42,2.6-.97,3.96-3.49,3.73-5.92h0Z"/>
      <path class="cls-26" d="M210.99,182.53c.47,4.1-4.9,8.83-9,5.45-3.65-3.01-.47-9.59,4.46-9.53,2.65.04,4.43,1.67,4.54,4.08h0Z"/>
      <path class="cls-26" d="M211.01,182.54c.47,4.1-4.9,8.83-9,5.45-3.65-3.01-.47-9.59,4.46-9.53,2.65.04,4.43,1.67,4.54,4.08h0Z"/>
      <path class="cls-26" d="M211.01,182.68c-.12-5.06-6.96-5.35-9.57-1.5s.56,9.39,5.84,7.42c2.6-.97,3.96-3.49,3.73-5.92h0Z"/>
    </g>
    <g>
      <path class="cls-26" d="M273.84,194.03c-.12-5.06-6.96-5.35-9.57-1.5-2.63,3.87.56,9.39,5.84,7.42,2.6-.97,3.96-3.49,3.73-5.92h0Z"/>
      <path class="cls-26" d="M273.81,193.88c.47,4.1-4.9,8.83-9,5.45-3.65-3.01-.47-9.59,4.46-9.53,2.65.04,4.43,1.67,4.54,4.08h0Z"/>
      <path class="cls-26" d="M273.83,193.89c.47,4.1-4.9,8.83-9,5.45-3.65-3.01-.47-9.59,4.46-9.53,2.65.04,4.43,1.67,4.54,4.08h0Z"/>
      <path class="cls-26" d="M273.82,194.03c-.12-5.06-6.96-5.35-9.57-1.5-2.63,3.87.56,9.39,5.84,7.42,2.6-.97,3.96-3.49,3.73-5.92h0Z"/>
    </g>
    <g>
      <path class="cls-26" d="M311.79,144.59c-.12-5.06-6.96-5.35-9.57-1.5-2.63,3.87.56,9.39,5.84,7.42,2.6-.97,3.96-3.49,3.73-5.92h0Z"/>
      <path class="cls-26" d="M311.77,144.44c.47,4.1-4.9,8.83-9,5.45-3.65-3.01-.47-9.59,4.46-9.53,2.65.04,4.43,1.67,4.54,4.08h0Z"/>
      <path class="cls-26" d="M311.78,144.44c.47,4.1-4.9,8.83-9,5.45-3.65-3.01-.47-9.59,4.46-9.53,2.65.04,4.43,1.67,4.54,4.08h0Z"/>
      <path class="cls-26" d="M311.78,144.58c-.12-5.06-6.96-5.35-9.57-1.5-2.63,3.87.56,9.39,5.84,7.42,2.6-.97,3.96-3.49,3.73-5.92h0Z"/>
    </g>
    <g>
      <path class="cls-26" d="M288.25,188.82c-.12-5.06-6.96-5.35-9.57-1.5-2.63,3.87.56,9.39,5.84,7.42,2.6-.97,3.96-3.49,3.73-5.92h0Z"/>
      <path class="cls-26" d="M288.22,188.67c.47,4.1-4.9,8.83-9,5.45-3.65-3.01-.47-9.59,4.46-9.53,2.65.04,4.43,1.67,4.54,4.08h0Z"/>
      <path class="cls-26" d="M288.24,188.67c.47,4.1-4.9,8.83-9,5.45-3.65-3.01-.47-9.59,4.46-9.53,2.65.04,4.43,1.67,4.54,4.08h0Z"/>
      <path class="cls-26" d="M288.23,188.81c-.12-5.06-6.96-5.35-9.57-1.5-2.63,3.87.56,9.39,5.84,7.42,2.6-.97,3.96-3.49,3.73-5.92h0Z"/>
    </g>
    <path class="cls-63" d="M267.49,301.75c8.65,4.87,18.01-7.05,35.6-6.01,2.87.17,11.63.68,18.82,6.5-3.68-15.63-18.18-26.83-34.77-25.82-11,.66-20.45,6.54-26.09,15.09,1.59,6.56,4.42,9.1,6.43,10.24Z"/>
    <path class="cls-58" d="M263.45,276.48c.67-3.78,1.34-7.56,2.01-11.34-2.46-.21-5.88-.31-9.9.17-3.71.45-15.69,1.95-25.15,10.7-13.76,12.73-13.14,30.29-13.01,32.85,3.18.8,14.38,3.22,25.99-2.69,17.23-8.78,19.85-28.01,20.06-29.7h0Z"/>
    <path class="cls-48" d="M201.79,288.83c-1.58-.27-3.15-.55-4.73-.82-.08,1.02-.12,2.45.09,4.12.19,1.54.84,6.53,4.5,10.46,5.33,5.71,12.64,5.42,13.71,5.36.33-1.33,1.32-6-1.17-10.82-3.69-7.16-11.7-8.22-12.41-8.3h0Z"/>
    <path class="cls-59" d="M287.63,332.56c-.8,4.79-3.55,9.01-4.1,9.89-.13.22-.41.66-.79,1.18,0,0-2.92,3.98-8.79,6.42-4.67,1.94-22.56,6.11-47.25,9.72-.78,1.84-4.8,10.74-14.54,14.19-5.93,2.1-10.95,1.11-11.96.89-7.26-1.56-12.95-6.82-15.46-12.86-1.88-4.53-1.58-8.56-1.46-10.25,1.25-17,22.17-36.33,27.23-40.79,1.11.39,2.27.78,3.48,1.15-14.56,17.2-22.76,32.14-22.37,38.87.26,4.55,2.35,7.61,2.35,7.61,2.45,3.6,6.02,4.89,6.94,5.19.88.29,5.64,1.76,10.53-.82,5.03-2.66,6.53-7.67,6.95-9.48,1.87-8.28-4.46-14.66-4.89-15.08,3.28-2.83,6.57-5.66,9.84-8.48,2.54,5.66,3.94,10,4.78,13.17.36,1.37.89,3.56,2.78,4.82,1.97,1.32,4.37.89,5.57.71,4.86-.7,16.1-2.97,30.82-6.45.7-.18,1.68-.52,2.74-1.13,3.4-1.98,4.78-5.22,5.2-6.39,1.8-4.97-.31-9.38-.72-10.19,3.33-3.05,6.67-6.11,9.99-9.16,1.1,1.91,4.6,8.58,3.15,17.28Z"/>
    <path class="cls-18" d="M320.48,327.41c-1.22,11.82-11.55,22.42-26.36,26.86v-10.32c8.44-3.46,14.03-9.55,14.39-16.05.09-1.58-.09-3.9-1.43-6.68,3.33-3.06,6.67-6.11,9.99-9.16,2.1,3.88,4.02,9.24,3.4,15.36Z"/>
    <g>
      <path class="cls-61" d="M210.78,347.03c-.12-5.06-6.96-5.35-9.57-1.5-2.63,3.87.56,9.39,5.84,7.42,2.6-.97,3.96-3.49,3.73-5.92h0Z"/>
      <path class="cls-19" d="M210.75,346.88c.47,4.1-4.9,8.83-9,5.45-3.65-3.01-.47-9.59,4.46-9.53,2.65.04,4.43,1.67,4.54,4.08h0Z"/>
      <path class="cls-3" d="M210.76,346.88c.47,4.1-4.9,8.83-9,5.45-3.65-3.01-.47-9.59,4.46-9.53,2.65.04,4.43,1.67,4.54,4.08h0Z"/>
      <path class="cls-51" d="M210.76,347.02c-.12-5.06-6.96-5.35-9.57-1.5-2.63,3.87.56,9.39,5.84,7.42,2.6-.97,3.96-3.49,3.73-5.92h0Z"/>
    </g>
    <g>
      <path class="cls-2" d="M273.59,358.38c-.12-5.06-6.96-5.35-9.57-1.5-2.63,3.87.56,9.39,5.84,7.42,2.6-.97,3.96-3.49,3.73-5.92h0Z"/>
      <path class="cls-71" d="M273.57,358.22c.47,4.1-4.9,8.83-9,5.45-3.65-3.01-.47-9.59,4.46-9.53,2.65.04,4.43,1.67,4.54,4.08h0Z"/>
      <path class="cls-56" d="M273.58,358.23c.47,4.1-4.9,8.83-9,5.45-3.65-3.01-.47-9.59,4.46-9.53,2.65.04,4.43,1.67,4.54,4.08h0Z"/>
      <path class="cls-77" d="M273.58,358.37c-.12-5.06-6.96-5.35-9.57-1.5-2.63,3.87.56,9.39,5.84,7.42,2.6-.97,3.96-3.49,3.73-5.92h0Z"/>
    </g>
    <g>
      <path class="cls-62" d="M311.55,308.93c-.12-5.06-6.96-5.35-9.57-1.5-2.63,3.87.56,9.39,5.84,7.42,2.6-.97,3.96-3.49,3.73-5.92h0Z"/>
      <path class="cls-54" d="M311.52,308.78c.47,4.1-4.9,8.83-9,5.45-3.65-3.01-.47-9.59,4.46-9.53,2.65.04,4.43,1.67,4.54,4.08h0Z"/>
      <path class="cls-66" d="M311.54,308.78c.47,4.1-4.9,8.83-9,5.45-3.65-3.01-.47-9.59,4.46-9.53,2.65.04,4.43,1.67,4.54,4.08h0Z"/>
      <path class="cls-43" d="M311.54,308.92c-.12-5.06-6.96-5.35-9.57-1.5-2.63,3.87.56,9.39,5.84,7.42,2.6-.97,3.96-3.49,3.73-5.92h0Z"/>
    </g>
    <g>
      <path class="cls-74" d="M288.01,353.16c-.12-5.06-6.96-5.35-9.57-1.5-2.63,3.87.56,9.39,5.84,7.42,2.6-.97,3.96-3.49,3.73-5.92h0Z"/>
      <path class="cls-44" d="M287.98,353.01c.47,4.1-4.9,8.83-9,5.45-3.65-3.01-.47-9.59,4.46-9.53,2.65.04,4.43,1.67,4.54,4.08h0Z"/>
      <path class="cls-17" d="M287.99,353.01c.47,4.1-4.9,8.83-9,5.45-3.65-3.01-.47-9.59,4.46-9.53,2.65.04,4.43,1.67,4.54,4.08h0Z"/>
      <path class="cls-31" d="M287.99,353.15c-.12-5.06-6.96-5.35-9.57-1.5-2.63,3.87.56,9.39,5.84,7.42,2.6-.97,3.96-3.49,3.73-5.92h0Z"/>
    </g>
    <g>
      <path class="cls-11" d="M225.17,218.98c.32-.05.48-.08.8-.13.07.45.11.68.19,1.14-.31.05-.46.08-.77.13-.15.02-.3.03-.46.02-.06.48-.27.88-.63,1.2-.32.29-.71.47-1.18.54-.72.12-1.3-.02-1.77-.42-.35-.3-.57-.69-.65-1.17-.06-.35-.03-.68.07-.97.45-.18.67-.27,1.12-.45-.12.32-.15.67-.09,1.06.05.31.18.54.37.68.2.14.45.19.77.14.3-.05.52-.17.67-.37.15-.2.19-.44.15-.73-.21-1.29-.32-1.94-.53-3.23.43-.33.64-.49,1.07-.82.2,1.25.31,1.88.51,3.13,0,.02,0,.03,0,.04.02.1.05.17.1.21.05.03.14.04.26.02Z"/>
      <path class="cls-11" d="M233.05,217.7c.26-.04.4-.06.66-.11.07.45.11.68.19,1.14-.31.05-.46.08-.77.13-.31.05-.59.02-.82-.08-.19.18-.45.29-.76.34-1.27.21-1.91.31-3.18.52-.3.05-.58.02-.82-.08-.21.18-.46.29-.76.34-.31.05-.46.08-.77.13-.07-.45-.11-.68-.19-1.14.26-.04.4-.06.66-.11.12-.02.2-.05.24-.1.04-.05.04-.14.02-.26-.06-.35-.09-.53-.14-.88.43-.32.64-.49,1.07-.81.1.6.15.9.24,1.5.02.12.05.2.1.23s.12.05.24.03c.14-.69.39-1.28.76-1.75.4-.51.91-.82,1.51-.92.58-.09,1.08.03,1.49.38.35.29.57.68.65,1.18,0,.05.01.08.02.13.03.17.15.24.35.2ZM231.32,217.98c.11-.02.18-.05.2-.08.02-.03.02-.13,0-.27,0-.03,0-.04-.01-.07-.04-.23-.13-.4-.27-.52-.14-.12-.31-.16-.51-.13-.28.05-.54.19-.77.44-.23.25-.4.56-.51.94.76-.12,1.13-.18,1.89-.31ZM230.62,215.36c-.18.03-.33,0-.45-.1-.13-.09-.21-.23-.23-.4s0-.32.09-.45c.09-.12.22-.2.4-.23.17-.03.32,0,.45.09.12.09.2.22.23.4.03.18,0,.33-.09.46-.09.13-.22.2-.4.23Z"/>
      <path class="cls-11" d="M233.75,218.75c-.07-.45-.11-.68-.19-1.14l.86-.14c-.1-.16-.16-.34-.19-.54-.09-.53,0-.98.24-1.34.22-.32.54-.52.98-.59.44-.07.81.02,1.11.26.25.21.42.5.48.89.04.24.06.37.1.61.07.42,0,.77-.2,1.07-.2.3-.52.48-.95.55-.9.15-1.34.22-2.24.36ZM235.39,214.72c-.18.03-.33,0-.45-.1s-.2-.23-.23-.4c-.03-.18,0-.33.09-.45.09-.12.22-.2.4-.23.18-.03.33,0,.45.09.12.09.2.22.23.4.03.18,0,.33-.09.46-.09.13-.22.2-.4.23ZM235.86,216.3c-.02-.15-.1-.22-.23-.2-.23.04-.31.24-.25.6.06.4.21.58.44.54.13-.02.18-.11.15-.26-.04-.27-.07-.41-.11-.68Z"/>
      <path class="cls-11" d="M237.51,213.31c.08-.23.12-.34.19-.56l.23-.04c-.07-.09-.12-.19-.14-.3-.03-.17.01-.33.12-.47.1-.13.23-.21.4-.23.17-.03.33.01.49.12.03.2.05.3.08.5-.15-.1-.29-.14-.41-.11-.08.01-.13.04-.16.08-.03.04-.04.08-.03.14.01.07.05.13.13.2.3-.05.45-.07.75-.12-.08.23-.12.34-.19.56-.59.1-.88.14-1.47.24ZM238.57,217.96c-.24-1.47-.36-2.2-.6-3.67.43-.33.64-.49,1.07-.82.28,1.72.42,2.58.7,4.3-.47.08-.7.11-1.17.19Z"/>
      <path class="cls-11" d="M244.21,217.04c-.47.08-.87-.02-1.19-.3-.27-.24-.44-.57-.51-.99-.07-.46,0-.88.25-1.27.21-.34.53-.61.94-.82.53.08.95.28,1.27.6.28.27.46.61.52,1.01.08.49-.01.9-.26,1.22-.22.29-.54.47-.95.54-.03,0-.04,0-.07.01ZM242.91,213.13c-.18.03-.33,0-.45-.1s-.2-.23-.23-.4c-.03-.17,0-.32.09-.45.09-.12.22-.2.4-.23s.32,0,.45.09c.12.09.2.22.23.4.03.18,0,.33-.09.46-.09.13-.22.2-.4.23ZM244.02,215.91s.04,0,.07-.01c.2-.03.29-.18.24-.43-.05-.33-.21-.56-.46-.7-.19.22-.26.48-.21.79.04.27.16.38.36.35ZM244.19,212.93c-.18.03-.33,0-.45-.1s-.2-.23-.23-.4c-.03-.17,0-.32.09-.45.09-.12.22-.2.4-.23.18-.03.33,0,.45.09.12.09.2.22.23.4.03.18,0,.33-.09.46-.09.13-.22.2-.4.23Z"/>
      <path class="cls-11" d="M248.18,216.4c-.45.07-.82-.01-1.11-.26-.26-.21-.43-.52-.49-.91-.17-1.03-.25-1.54-.42-2.57.43-.32.64-.49,1.07-.81.2,1.25.31,1.88.51,3.13.02.12.05.2.1.24.05.04.14.04.26.02.26-.04.4-.06.66-.11.07.45.11.68.19,1.14-.31.05-.46.08-.77.13Z"/>
      <path class="cls-11" d="M249.36,216.79c.18-.03.32,0,.45.09.12.09.2.22.23.4.03.18,0,.33-.09.46-.09.13-.22.2-.4.23-.18.03-.33,0-.45-.1-.13-.09-.2-.23-.23-.4-.03-.18,0-.33.09-.45.09-.12.22-.2.4-.23ZM251.08,214.76c.26-.04.4-.06.66-.11.07.45.11.68.19,1.14-.31.05-.46.08-.77.13-.3.05-.58.02-.82-.08-.21.18-.46.29-.76.34-.31.05-.46.08-.77.13-.07-.45-.11-.68-.19-1.14.26-.04.4-.06.66-.11.12-.02.2-.05.24-.1.04-.05.04-.14.02-.26-.08-.47-.11-.7-.19-1.16.43-.32.64-.49,1.07-.81.12.71.17,1.07.29,1.78.02.12.05.2.1.24.05.04.14.04.26.02ZM250.64,216.59c.18-.03.32,0,.45.09.12.09.2.22.23.4.03.18,0,.33-.09.46-.09.13-.22.2-.4.23-.18.03-.33,0-.45-.1-.13-.09-.2-.23-.23-.4-.03-.18,0-.33.09-.45.09-.12.22-.2.4-.23Z"/>
      <path class="cls-11" d="M256.08,213.94c.24-.04.36-.06.6-.1.07.45.11.68.19,1.14-.24.04-.36.06-.6.1-.36.06-.66.07-.89.03-.24-.04-.46-.14-.68-.3-.54.44-1.18.72-1.92.85-.4.06-.59.1-.99.16-.07-.45-.11-.68-.19-1.14.4-.06.6-.1.99-.16.71-.12,1.25-.39,1.62-.83-.34-.36-.68-.51-1.04-.45-.36.06-.75.33-1.18.83-.07-.4-.1-.6-.16-1,.33-.54.76-.85,1.3-.93,0,0,0,0,.01,0,.38-.06.78.02,1.18.23s.79.56,1.14,1.01c.03.16.04.24.06.4-.03.05-.07.12-.13.22.15.02.38,0,.68-.05Z"/>
      <path class="cls-11" d="M256.72,215c-.07-.45-.11-.68-.19-1.14.15-.02.23-.04.38-.06.18-.03.3-.08.35-.16.05-.08.06-.21.03-.4-.15-.93-.23-1.4-.38-2.33.43-.33.64-.49,1.07-.82.19,1.18.29,1.78.48,2.96.08.5,0,.93-.27,1.28-.24.32-.59.53-1.05.6-.17.03-.26.04-.43.07Z"/>
      <path class="cls-11" d="M266.29,213.44c0,.47-.21.86-.64,1.18-.36.27-.84.45-1.43.55-.83.14-1.49,0-1.98-.4-.36-.3-.59-.7-.67-1.2-.06-.35-.03-.67.08-.97.43-.17.64-.25,1.07-.41-.11.33-.14.67-.09,1,.12.75.59,1.06,1.4.92.55-.09.89-.24,1.02-.46-.26.04-.39.06-.65.11.16-.49.24-.74.4-1.23.53-.09.79-.13,1.31-.21.07.45.11.68.19,1.14,0,0-.01,0-.02,0ZM263.86,216.87c-.18.03-.33,0-.45-.1-.13-.09-.2-.23-.23-.4s0-.32.09-.45c.09-.12.22-.2.4-.23.18-.03.32,0,.45.09.12.09.2.22.23.4.03.18,0,.33-.09.46-.09.13-.22.2-.4.23ZM265.14,216.66c-.18.03-.33,0-.45-.1-.13-.09-.2-.23-.23-.4-.03-.18,0-.32.09-.45.09-.12.22-.2.4-.23.18-.03.32,0,.45.09.12.09.2.22.23.4.03.18,0,.33-.09.46-.09.13-.22.2-.4.23Z"/>
      <path class="cls-11" d="M270.4,211.61c.24-.04.36-.06.6-.1.07.45.11.68.19,1.14-.24.04-.36.06-.6.1-.36.06-.66.07-.89.03-.24-.04-.46-.14-.68-.3-.54.44-1.18.72-1.92.85-.39.06-.59.1-.99.16-.07-.45-.11-.68-.19-1.14.4-.06.6-.1.99-.16.71-.12,1.25-.39,1.62-.83-.34-.36-.68-.51-1.04-.45-.36.06-.75.33-1.18.83-.07-.4-.1-.6-.16-1,.33-.54.76-.85,1.3-.93,0,0,0,0,.01,0,.38-.06.78.02,1.18.23.41.22.79.56,1.14,1.01.03.16.04.24.06.4-.03.05-.07.12-.13.22.15.02.38,0,.68-.05Z"/>
      <path class="cls-11" d="M273.28,211.14c.14-.69.39-1.28.76-1.75.4-.51.91-.82,1.51-.92.58-.09,1.08.03,1.49.38.35.29.57.68.65,1.18,0,.05.01.08.02.13.07.45-.01.83-.25,1.13-.21.26-.51.43-.9.49-1.27.21-1.91.31-3.18.52-.3.05-.58.02-.82-.08-.21.18-.46.29-.76.34-.31.05-.46.08-.77.13-.07-.45-.11-.68-.19-1.14.26-.04.4-.06.66-.11.12-.02.2-.05.24-.1.04-.05.04-.14.02-.26-.06-.35-.09-.53-.14-.88.43-.32.64-.49,1.07-.81.1.6.15.9.24,1.5.02.12.05.2.1.23.05.04.12.05.24.03ZM276.54,210.28s0-.04-.01-.07c-.04-.23-.13-.4-.27-.52-.14-.12-.31-.16-.51-.13-.28.05-.54.19-.77.44-.23.25-.4.56-.51.94.76-.12,1.13-.18,1.89-.31.11-.02.18-.05.2-.08.02-.03.02-.13,0-.27Z"/>
      <path class="cls-11" d="M280.51,211.66c-.07-.45-.11-.68-.18-1.13.15-.13.32-.24.5-.34-.14-.23-.23-.48-.27-.74-.09-.58.02-1.04.33-1.39.23-.25.53-.41.89-.47.43-.07.82.03,1.19.31.07.42.1.64.17,1.06-.44-.25-.79-.36-1.06-.32,0,0-.01,0-.03,0-.28.06-.4.25-.34.58.04.24.14.43.31.57.12-.03.18-.04.3-.07.48-.13.89-.35,1.23-.67.07.42.1.64.17,1.06-.35.37-.88.62-1.59.73-.66.11-1.2.37-1.62.8Z"/>
      <path class="cls-11" d="M284.8,210.43c-.26-1.58-.39-2.37-.65-3.96.43-.33.64-.49,1.07-.82.3,1.83.45,2.75.75,4.58-.47.08-.7.11-1.17.19Z"/>
      <path class="cls-11" d="M286.68,210.12c.16-.49.24-.74.4-1.23.39-.06.59-.1.99-.16.14-.02.2-.11.18-.25-.07-.41-.34-.7-.81-.87.17-.43.25-.65.41-1.08.79.3,1.29.8,1.5,1.49.06.21.13.34.19.38.07.05.19.06.36.03.2-.03.31-.05.51-.08.07.45.11.68.19,1.14-.22.04-.34.05-.56.09-.32.05-.62.03-.89-.07-.16.17-.39.28-.68.33-.72.12-1.08.18-1.8.29ZM287.79,206.04c-.18.03-.33,0-.45-.1-.13-.09-.2-.23-.23-.4-.03-.18,0-.32.09-.45.09-.12.22-.2.4-.23.18-.03.33,0,.45.09.12.09.2.22.23.4.03.18,0,.33-.09.46s-.22.2-.4.23Z"/>
      <path class="cls-11" d="M294.18,207.73l.19,1.14c-1.56.25-2.34.38-3.89.63-.07-.45-.11-.68-.19-1.14l.8-.13c-.1-.18-.17-.39-.21-.63-.08-.51.03-.95.35-1.31.26-.29.58-.47.97-.54.53-.09,1,.08,1.4.49.07.4.1.6.16,1-.43-.34-.84-.48-1.24-.42-.01,0-.03,0-.04,0-.34.07-.48.27-.42.62.07.4.35.56.85.48.51-.08.77-.13,1.28-.21ZM292.12,205.33c-.18.03-.33,0-.45-.1-.13-.09-.2-.23-.23-.4s0-.32.09-.45c.09-.12.22-.2.4-.23.18-.03.32,0,.45.09.12.09.2.22.23.4.03.18,0,.33-.09.46-.09.13-.22.2-.4.23Z"/>
    </g>
    <g>
      <path class="cls-26" d="M175.67,182.73v-3.83c.36-.05.68-.08.98-.08.93,0,1.39.39,1.39,1.17,0,.51-.21.87-.63,1.08l.76,1.65h-.57l-.69-1.51c-.05,0-.13.01-.23.01-.14,0-.29-.01-.45-.04v1.54h-.56ZM176.24,179.31v1.42c.16.03.31.04.45.04.51,0,.76-.26.76-.77,0-.48-.26-.73-.77-.73-.19,0-.34.01-.45.04Z"/>
      <path class="cls-26" d="M176.73,183.98c-1.77,0-3.21-1.44-3.21-3.21s1.44-3.21,3.21-3.21,3.21,1.44,3.21,3.21-1.44,3.21-3.21,3.21ZM176.73,177.79c-1.65,0-2.99,1.34-2.99,2.99s1.34,2.99,2.99,2.99,2.99-1.34,2.99-2.99-1.34-2.99-2.99-2.99Z"/>
    </g>
    <path class="cls-21" d="M261.74,452.83c8.65,4.87,18.01-7.05,35.6-6.01,2.87.17,11.63.68,18.82,6.5-3.68-15.63-18.18-26.83-34.77-25.82-11,.66-20.45,6.54-26.09,15.09,1.59,6.56,4.42,9.1,6.43,10.24Z"/>
    <path class="cls-35" d="M257.7,427.56c.67-3.78,1.34-7.56,2.01-11.34-2.46-.21-5.88-.31-9.9.17-3.71.45-15.69,1.95-25.15,10.7-13.76,12.73-13.14,30.29-13.01,32.85,3.18.8,14.38,3.22,25.99-2.69,17.23-8.78,19.85-28.01,20.06-29.7h0Z"/>
    <path class="cls-35" d="M196.04,439.91c-1.58-.27-3.15-.55-4.73-.82-.08,1.02-.12,2.45.09,4.12.19,1.54.84,6.53,4.5,10.46,5.33,5.71,12.64,5.42,13.71,5.36.33-1.33,1.32-6-1.17-10.82-3.69-7.16-11.7-8.22-12.41-8.3h0Z"/>
    <path class="cls-35" d="M281.88,483.64c-.8,4.79-3.55,9.01-4.1,9.89-.13.22-.41.66-.79,1.18,0,0-2.92,3.98-8.79,6.42-4.67,1.94-22.56,6.11-47.25,9.72-.78,1.84-4.8,10.74-14.54,14.19-5.93,2.1-10.95,1.11-11.96.89-7.26-1.56-12.95-6.82-15.46-12.86-1.88-4.53-1.58-8.56-1.46-10.25,1.25-17,22.17-36.33,27.23-40.79,1.11.39,2.27.78,3.48,1.15-14.56,17.2-22.76,32.14-22.37,38.87.26,4.55,2.35,7.61,2.35,7.61,2.45,3.6,6.02,4.89,6.94,5.19.88.29,5.64,1.76,10.53-.82,5.03-2.66,6.53-7.67,6.95-9.48,1.87-8.28-4.46-14.66-4.89-15.08,3.28-2.83,6.57-5.66,9.84-8.48,2.54,5.66,3.94,10,4.78,13.17.36,1.37.89,3.56,2.78,4.82,1.97,1.32,4.37.89,5.57.71,4.86-.7,16.1-2.97,30.82-6.45.7-.18,1.68-.52,2.74-1.13,3.4-1.98,4.78-5.22,5.2-6.39,1.8-4.97-.31-9.38-.72-10.19,3.33-3.05,6.67-6.11,9.99-9.16,1.1,1.91,4.6,8.58,3.15,17.28Z"/>
    <path class="cls-35" d="M314.73,478.49c-1.22,11.82-11.55,22.42-26.36,26.86v-10.32c8.44-3.46,14.03-9.55,14.39-16.05.09-1.58-.09-3.9-1.43-6.68,3.33-3.06,6.67-6.11,9.99-9.16,2.1,3.88,4.02,9.24,3.4,15.36Z"/>
    <g>
      <path class="cls-35" d="M205.03,498.11c-.12-5.06-6.96-5.35-9.57-1.5-2.63,3.87.56,9.39,5.84,7.42,2.6-.97,3.96-3.49,3.73-5.92h0Z"/>
      <path class="cls-35" d="M205,497.96c.47,4.1-4.9,8.83-9,5.45-3.65-3.01-.47-9.59,4.46-9.53,2.65.04,4.43,1.67,4.54,4.08h0Z"/>
      <path class="cls-35" d="M205.02,497.96c.47,4.1-4.9,8.83-9,5.45-3.65-3.01-.47-9.59,4.46-9.53,2.65.04,4.43,1.67,4.54,4.08h0Z"/>
      <path class="cls-35" d="M205.01,498.1c-.12-5.06-6.96-5.35-9.57-1.5-2.63,3.87.56,9.39,5.84,7.42,2.6-.97,3.96-3.49,3.73-5.92h0Z"/>
    </g>
    <g>
      <path class="cls-35" d="M267.84,509.46c-.12-5.06-6.96-5.35-9.57-1.5-2.63,3.87.56,9.39,5.84,7.42,2.6-.97,3.96-3.49,3.73-5.92h0Z"/>
      <path class="cls-35" d="M267.82,509.31c.47,4.1-4.9,8.83-9,5.45-3.65-3.01-.47-9.59,4.46-9.53,2.65.04,4.43,1.67,4.54,4.08h0Z"/>
      <path class="cls-35" d="M267.83,509.31c.47,4.1-4.9,8.83-9,5.45-3.65-3.01-.47-9.59,4.46-9.53,2.65.04,4.43,1.67,4.54,4.08h0Z"/>
      <path class="cls-35" d="M267.83,509.45c-.12-5.06-6.96-5.35-9.57-1.5s.56,9.39,5.84,7.42c2.6-.97,3.96-3.49,3.73-5.92h0Z"/>
    </g>
    <g>
      <path class="cls-35" d="M305.8,460.01c-.12-5.06-6.96-5.35-9.57-1.5-2.63,3.87.56,9.39,5.84,7.42,2.6-.97,3.96-3.49,3.73-5.92h0Z"/>
      <path class="cls-35" d="M305.77,459.86c.47,4.1-4.9,8.83-9,5.45-3.65-3.01-.47-9.59,4.46-9.53,2.65.04,4.43,1.67,4.54,4.08h0Z"/>
      <path class="cls-35" d="M305.79,459.87c.47,4.1-4.9,8.83-9,5.45-3.65-3.01-.47-9.59,4.46-9.53,2.65.04,4.43,1.67,4.54,4.08h0Z"/>
      <path class="cls-35" d="M305.79,460.01c-.12-5.06-6.96-5.35-9.57-1.5-2.63,3.87.56,9.39,5.84,7.42,2.6-.97,3.96-3.49,3.73-5.92h0Z"/>
    </g>
    <g>
      <path class="cls-35" d="M282.26,504.24c-.12-5.06-6.96-5.35-9.57-1.5-2.63,3.87.56,9.39,5.84,7.42,2.6-.97,3.96-3.49,3.73-5.92h0Z"/>
      <path class="cls-35" d="M282.23,504.09c.47,4.1-4.9,8.83-9,5.45-3.65-3.01-.47-9.59,4.46-9.53,2.65.04,4.43,1.67,4.54,4.08h0Z"/>
      <path class="cls-35" d="M282.24,504.1c.47,4.1-4.9,8.83-9,5.45-3.65-3.01-.47-9.59,4.46-9.53,2.65.04,4.43,1.67,4.54,4.08h0Z"/>
      <path class="cls-35" d="M282.24,504.24c-.12-5.06-6.96-5.35-9.57-1.5-2.63,3.87.56,9.39,5.84,7.42,2.6-.97,3.96-3.49,3.73-5.92h0Z"/>
    </g>
  </g>
  <g>
    <path class="cls-4" d="M808.25,177.99c-.59,1.88-2.94,8.57-11.25,14.9-15.02,11.45-31.32,7.89-57.16,10.72-40.78,4.46-52.97,19.12-73.08,9.28-3.12-1.53-11.81-5.93-16.16-15.63-4.26-9.51-2.84-20.84,2.39-29.18,1.63-2.61,3.59-4.73,5.58-6.44,3.94-3.4,8-5.18,9.95-6.01,16.22-6.9,29.03,1.18,35.54-6.32.19-.22.39-.47.58-.75,1.16-1.64,2.29-4.31,2.18-8.77-.02-.72-.06-1.48-.15-2.29.28.22.6.48.99.77,0,0,0,.02.02.02,4.25,3.22,14.94,10.21,27.67,8.35,9.11-1.33,16.67-6.82,22.33-11.44.1-.09.21-.17.32-.26.65-.53,1.26-1.05,1.86-1.55.1-.09.21-.18.32-.27,2.73-2.29,4.84-4.39,6.29-5.92,3.09.43,7.45,1.3,12.35,3.25,2.49.99,5.12,2.24,7.79,3.86,4.15,2.51,14.3,8.64,19.38,21.1,1.63,3.98,5.37,12.77,2.27,22.58Z"/>
    <path class="cls-53" d="M812.58,181.51c-6.71,31.85-65.96,42.67-71.15,43.56-33.72,5.8-84.56,1.86-94.77-23.28-3.14-7.71-3.78-20.67,2.51-30.71,2.7-4.31,6.22-7.35,9.4-9.45-1.99,1.71-3.95,3.83-5.58,6.44-5.22,8.33-6.65,19.67-2.39,29.18,4.35,9.7,13.04,14.1,16.16,15.63,20.12,9.84,32.3-4.82,73.08-9.28,25.83-2.83,42.14.73,57.16-10.72,8.31-6.33,10.65-13.02,11.25-14.9,3.1-9.81-.64-18.6-2.27-22.58-5.09-12.46-15.23-18.59-19.38-21.1-2.67-1.62-5.3-2.87-7.79-3.86,3.4,1.15,7.15,2.77,10.99,5.09,4.38,2.65,15.05,9.1,20.4,22.22,3.64,8.92,3.61,17.97,2.39,23.77Z"/>
    <path class="cls-34" d="M700.3,146.19c-6.51,7.5-19.33-.58-35.54,6.32-2.65,1.12-10.73,4.56-15.54,12.46-1.79-15.96,8.1-31.38,24.05-36.02,10.58-3.08,21.46-.73,29.64,5.43.71,6.71-1.1,10.05-2.61,11.81Z"/>
    <g>
      <path class="cls-11" d="M690.34,222.82c-.3-1.8-.45-2.71-.76-4.51.43-.07.65-.11,1.08-.18.12.7.18,1.06.3,1.76.72-.12,1.08-.18,1.79-.3-.12-.7-.18-1.06-.3-1.76.44-.07.66-.11,1.1-.18.3,1.8.45,2.7.76,4.51-.44.07-.66.11-1.1.18-.13-.75-.19-1.13-.32-1.88-.72.12-1.08.18-1.79.3.13.75.19,1.13.32,1.88-.43.07-.65.11-1.08.18Z"/>
      <path class="cls-11" d="M698.24,220.19c-.87.15-1.31.22-2.19.37.04.16.14.29.3.39.16.1.32.14.49.11.02,0,.03,0,.05,0,.28-.05.59-.2.91-.46.14.21.21.31.34.51-.12.16-.3.31-.55.45-.25.14-.48.23-.71.27-.57.09-1.03.02-1.39-.23-.35-.24-.57-.63-.66-1.16-.09-.51.01-.96.3-1.35.26-.36.65-.58,1.13-.66.52-.09.96,0,1.31.29.31.25.51.61.59,1.09.03.16.04.24.07.39ZM695.87,219.83c.48-.08.72-.12,1.2-.2-.09-.38-.32-.54-.69-.48-.35.06-.52.29-.51.68Z"/>
      <path class="cls-11" d="M701.87,220.89c-.34.06-.52.09-.86.14-.05-.11-.07-.17-.12-.28-.2.29-.48.47-.84.53-.72.12-1.13-.17-1.25-.88-.06-.35.04-.64.31-.88.28-.26.74-.44,1.37-.55,0,0,0,0,0,0,0,0,0,0,0,0-.03-.18-.08-.29-.15-.33-.07-.04-.2-.05-.39-.02-.33.06-.61.2-.83.45-.13-.15-.26-.32-.4-.5.25-.25.47-.43.68-.55.21-.12.46-.2.75-.25.37-.06.67.02.93.25.25.22.42.56.49,1.01.13.75.19,1.12.31,1.87ZM700.55,219.61c-.23.04-.41.11-.54.22-.13.11-.18.23-.16.37,0,0,0,0,0,0,.05.21.16.31.32.28,0,0,0,0,.01,0,.13-.02.24-.09.32-.2.08-.11.11-.23.1-.36-.02-.13-.03-.2-.06-.33Z"/>
      <path class="cls-11" d="M703.07,215.96c.31,1.84.46,2.76.77,4.59-.43.07-.64.11-1.07.18-.27-1.62-.41-2.42-.68-4.04.39-.29.58-.44.97-.74Z"/>
      <path class="cls-11" d="M706.59,219.2c.18.19.26.29.44.48-.33.37-.73.6-1.2.68-.31.05-.54.01-.7-.11-.16-.13-.27-.36-.33-.7-.1-.62-.16-.93-.26-1.55-.17.03-.26.04-.43.07-.06-.34-.09-.51-.14-.85.18-.03.26-.04.44-.07-.04-.21-.05-.32-.09-.53.26-.2.59-.45.98-.75.07.44.11.66.18,1.1.36-.06.53-.09.89-.15.06.34.09.51.14.85-.36.06-.54.09-.9.15.09.56.14.83.23,1.39,0,0,0,.03,0,.05,0,.01,0,.03,0,.04.03.17.1.24.21.22.12-.02.3-.12.53-.31Z"/>
      <path class="cls-11" d="M707.08,215.9c.39-.31.58-.46.97-.77.12.7.18,1.06.3,1.76,0-.05.05-.13.13-.23.08-.1.17-.18.26-.25.13-.09.26-.15.38-.17.42-.07.74-.01.96.18.22.19.37.55.46,1.07.13.75.19,1.13.32,1.89-.43.07-.64.11-1.07.18-.12-.74-.19-1.11-.31-1.85-.06-.38-.26-.55-.6-.49-.22.04-.37.12-.44.25.15.9.23,1.35.38,2.26-.43.07-.64.11-1.07.18-.27-1.6-.4-2.4-.67-4Z"/>
      <path class="cls-11" d="M714.21,215.49c-.29,1.57-.43,2.35-.72,3.92-.12.63-.39.99-.8,1.06-.35.06-.74-.03-1.15-.28.08-.2.15-.39.19-.55.21.09.38.13.52.1.08-.01.14-.08.21-.21.06-.13.1-.27.12-.45-.08.01-.12.02-.2.03-.65-1.22-.98-1.83-1.63-3.05.42-.07.63-.11,1.05-.18.27.57.59,1.2.94,1.89.17-.85.25-1.27.42-2.12.42-.07.63-.11,1.05-.18Z"/>
      <path class="cls-11" d="M717.08,218.33c-.3-1.8-.45-2.71-.76-4.51,1.23-.21,1.84-.31,3.07-.52.06.35.09.52.15.87-.79.13-1.18.2-1.97.33.06.36.09.54.15.9.66-.11.98-.17,1.64-.28.06.35.09.52.15.87-.66.11-.98.17-1.64.28.13.75.19,1.12.31,1.87-.44.07-.66.11-1.1.18Z"/>
      <path class="cls-11" d="M721.48,214.18c.54-.09.99.03,1.36.35.3.27.49.63.56,1.08.09.53-.03,1-.36,1.39-.26.32-.6.51-.99.58-.46.08-.88-.03-1.26-.32-.35-.27-.57-.63-.65-1.1-.09-.53,0-.98.26-1.35.24-.34.6-.56,1.08-.64ZM721.22,215.98c.1.61.34.88.71.82.36-.06.49-.39.39-1-.11-.65-.35-.94-.71-.88-.37.06-.49.42-.39,1.06Z"/>
      <path class="cls-11" d="M725.23,213.55c.54-.09.99.03,1.36.35.3.27.49.63.56,1.08.09.53-.03,1-.36,1.39-.26.32-.6.51-.99.58-.46.08-.88-.03-1.26-.32-.35-.27-.57-.63-.65-1.1-.09-.53,0-.98.26-1.35.24-.34.6-.56,1.08-.64ZM724.97,215.35c.1.61.34.88.71.82.36-.06.49-.39.39-1-.11-.65-.35-.94-.71-.88-.37.06-.49.42-.39,1.06Z"/>
      <path class="cls-11" d="M729.7,213.03c-.06-.36-.09-.54-.15-.9.39-.31.58-.46.97-.77.31,1.83.46,2.75.77,4.58-.34.06-.52.09-.86.14-.08-.13-.12-.19-.21-.32-.05.13-.15.25-.3.36-.15.11-.32.18-.49.21-.52.09-.95-.01-1.27-.3-.26-.23-.43-.57-.5-1.01-.11-.65,0-1.17.31-1.57.23-.29.53-.47.9-.53.31-.05.59-.02.83.09ZM729.88,214.09c-.13-.35-.35-.5-.64-.45-.21.04-.37.15-.46.34-.09.19-.11.43-.06.73.11.64.34.93.71.87.23-.04.39-.18.49-.43.06-.15.08-.28.07-.38-.05-.27-.07-.41-.11-.68Z"/>
      <path class="cls-11" d="M733.36,213.16c-.06-.34-.09-.52-.14-.86.21-.03.31-.05.52-.09-.03-.17-.04-.25-.07-.41-.06-.33-.02-.59.09-.76.12-.17.33-.29.65-.34.43-.07.85,0,1.26.24-.12.25-.18.37-.31.62-.23-.11-.39-.15-.48-.14-.12.02-.16.13-.13.32.02.11.03.17.05.28.36-.06.54-.09.9-.15.06.34.09.52.14.86-.36.06-.54.09-.9.15.16.95.24,1.42.4,2.37-.43.07-.64.11-1.07.18-.16-.95-.24-1.42-.4-2.37-.21.03-.31.05-.52.09Z"/>
      <path class="cls-11" d="M737.55,211.48c.54-.09.99.03,1.36.35.3.27.49.63.56,1.08.09.53-.03,1-.36,1.39-.26.32-.6.51-.99.58-.46.08-.88-.03-1.26-.32-.35-.27-.57-.63-.65-1.1-.09-.53,0-.98.26-1.35.24-.34.6-.56,1.08-.64ZM737.29,213.28c.1.61.34.88.71.82.36-.06.49-.39.39-1-.11-.65-.35-.94-.71-.88-.37.06-.49.42-.39,1.06Z"/>
      <path class="cls-11" d="M740.81,211.02c.05.09.08.14.13.23.01-.08.08-.17.2-.27.13-.1.25-.15.37-.17.46-.08.84.1,1.14.53-.33.25-.5.37-.83.62-.17-.17-.34-.24-.5-.22-.13.02-.2.1-.22.23.15.9.23,1.35.38,2.24-.42.07-.63.11-1.05.18-.22-1.29-.33-1.94-.54-3.23.36-.06.54-.09.9-.15Z"/>
      <path class="cls-11" d="M748.08,213.13c-.34.06-.52.09-.86.14-.05-.11-.07-.17-.12-.28-.19.29-.48.47-.84.53-.72.12-1.13-.17-1.25-.88-.06-.35.04-.64.31-.88.28-.26.74-.44,1.37-.55,0,0,0,0,0,0,0,0,0,0,0,0-.03-.18-.08-.29-.15-.33-.07-.04-.2-.05-.39-.02-.33.06-.61.2-.83.45-.13-.15-.26-.32-.4-.5.25-.25.47-.43.68-.55.21-.12.46-.2.75-.25.37-.06.67.02.93.25.25.22.42.56.49,1.01.13.75.19,1.12.31,1.87ZM746.76,211.85c-.23.04-.41.11-.54.22-.13.11-.18.23-.16.37,0,0,0,0,0,0,.05.21.16.31.32.28,0,0,0,0,.01,0,.13-.02.24-.09.32-.2.08-.11.11-.23.1-.36-.02-.13-.03-.2-.06-.33Z"/>
      <path class="cls-11" d="M750.87,212.65c-.3-1.8-.45-2.7-.75-4.49.34-.12.79-.23,1.35-.32.61-.1,1.1-.04,1.45.2.28.19.44.47.51.84.04.21-.03.42-.19.63-.16.21-.35.33-.56.37-.01,0-.03,0-.05,0,0,0,0,0,0,0,.33-.02.6.05.83.22.22.17.36.41.42.73.08.46-.06.84-.42,1.14-.31.26-.75.45-1.34.55-.49.08-.91.12-1.25.11ZM751.35,208.78c.06.35.09.53.15.88.18-.03.27-.04.44-.07.18-.03.3-.08.36-.16s.08-.2.05-.36c-.05-.31-.28-.44-.69-.37-.11.02-.21.05-.31.09ZM751.64,210.53c.07.44.11.67.19,1.11.13.03.26.04.4.01.4-.07.57-.27.51-.62-.07-.45-.31-.64-.72-.57-.15.03-.23.04-.38.06Z"/>
      <path class="cls-11" d="M757.72,210.19c-.87.15-1.31.22-2.19.37.04.16.14.29.3.39.16.1.32.14.49.11.02,0,.03,0,.05,0,.28-.05.59-.2.91-.46.14.21.21.31.34.51-.12.16-.3.31-.55.45-.25.14-.48.23-.71.27-.57.09-1.03.02-1.39-.23-.35-.24-.57-.63-.66-1.16-.09-.51.01-.96.3-1.35.26-.36.65-.58,1.13-.66.52-.09.96,0,1.31.29.31.25.51.61.59,1.09.03.16.04.24.07.39ZM755.35,209.84c.48-.08.72-.12,1.2-.2-.09-.38-.32-.54-.69-.48-.35.06-.52.29-.51.68Z"/>
      <path class="cls-11" d="M760.48,210.15c.18.19.26.29.44.48-.33.37-.73.6-1.2.68-.31.05-.54.01-.7-.11-.16-.13-.27-.36-.33-.7-.1-.62-.16-.93-.26-1.55-.17.03-.26.04-.43.07-.06-.34-.09-.51-.14-.85.18-.03.27-.04.44-.07-.04-.21-.05-.32-.09-.53.26-.2.59-.45.98-.75.07.44.11.66.18,1.1.36-.06.53-.09.89-.15.06.34.09.51.14.85-.36.06-.54.09-.9.15.09.56.14.83.23,1.39,0,0,0,.03,0,.05,0,.01,0,.03,0,.04.03.17.1.24.21.22.12-.02.3-.12.53-.31Z"/>
      <path class="cls-11" d="M763.48,209.65c.18.19.26.29.44.48-.33.37-.73.6-1.2.68-.31.05-.54.01-.7-.11-.16-.13-.27-.36-.33-.7-.1-.62-.16-.93-.26-1.55-.17.03-.26.04-.43.07-.06-.34-.09-.51-.14-.85.18-.03.26-.04.44-.07-.04-.21-.05-.32-.09-.53.26-.2.59-.45.98-.75.07.44.11.66.18,1.1.36-.06.53-.09.89-.15.06.34.09.51.14.85-.36.06-.54.09-.9.15.09.56.14.83.23,1.39,0,0,0,.03,0,.05,0,.01,0,.03,0,.04.03.17.1.24.21.22.12-.02.3-.12.53-.31Z"/>
      <path class="cls-11" d="M767.48,208.56c-.87.15-1.31.22-2.19.37.04.16.14.29.3.39.16.1.32.14.49.11.02,0,.03,0,.05,0,.28-.05.59-.2.91-.46.14.21.21.31.34.51-.12.16-.3.31-.55.45-.25.14-.48.23-.71.27-.57.09-1.03.02-1.39-.23-.35-.24-.57-.63-.66-1.16-.09-.51.01-.96.3-1.35.26-.36.65-.58,1.13-.66.52-.09.96,0,1.31.29.31.25.51.61.59,1.09.03.16.04.24.07.39ZM765.11,208.2c.48-.08.72-.12,1.2-.2-.09-.38-.32-.54-.69-.48-.35.06-.52.29-.51.68Z"/>
      <path class="cls-11" d="M768.77,206.33c.05.09.08.14.13.23.01-.08.08-.17.2-.27.13-.1.25-.15.37-.17.46-.08.84.1,1.14.53-.33.25-.5.37-.83.62-.17-.17-.34-.24-.5-.22-.13.02-.2.1-.22.23.15.9.23,1.35.38,2.24-.42.07-.63.11-1.05.18-.22-1.29-.33-1.94-.54-3.23.36-.06.54-.09.9-.15Z"/>
      <path class="cls-11" d="M773.43,208.87c-.3-1.8-.45-2.71-.76-4.51.44-.07.66-.11,1.1-.18.24,1.46.37,2.18.61,3.64.66-.11.99-.17,1.65-.28.06.35.09.52.15.87-1.1.18-1.65.28-2.75.46Z"/>
      <path class="cls-11" d="M776.2,204.14s0,0,0-.01c-.03-.18,0-.34.1-.48.1-.15.23-.23.4-.26.18-.03.34,0,.49.11.15.1.23.24.27.42,0,0,0,0,0,.01.07.4-.13.67-.54.74-.39.06-.65-.13-.72-.52ZM777.54,204.85c.22,1.29.33,1.94.54,3.23-.43.07-.65.11-1.08.18-.22-1.29-.33-1.94-.54-3.23.43-.07.65-.11,1.08-.18Z"/>
      <path class="cls-11" d="M778.39,205.6l-.14-.86c.21-.03.31-.05.52-.09-.03-.17-.04-.25-.07-.41-.06-.33-.02-.59.09-.76.12-.17.33-.29.65-.34.43-.07.85,0,1.26.24-.12.25-.18.37-.31.62-.23-.11-.39-.15-.48-.14-.12.02-.16.13-.13.32.02.11.03.17.05.28.36-.06.54-.09.9-.15.06.34.09.52.14.86-.36.06-.54.09-.9.15.16.95.24,1.42.4,2.37-.43.07-.64.11-1.07.18-.16-.95-.24-1.42-.4-2.37-.21.03-.31.05-.52.09Z"/>
      <path class="cls-11" d="M784.64,205.67l-2.19.37c.04.16.14.29.3.39.16.1.32.14.49.11.02,0,.03,0,.05,0,.28-.05.59-.2.91-.46.14.21.21.31.34.51-.12.16-.3.31-.55.45-.25.14-.48.23-.71.27-.57.09-1.03.02-1.39-.23-.35-.24-.57-.63-.66-1.16-.09-.51.01-.96.3-1.35.26-.36.65-.58,1.13-.66.52-.09.96,0,1.31.29.31.25.51.61.59,1.09.03.16.04.24.07.39ZM782.26,205.32c.48-.08.72-.12,1.2-.2-.09-.38-.32-.54-.69-.48-.35.06-.52.29-.51.68Z"/>
    </g>
    <path class="cls-64" d="M770.68,165.95l-1.23-1.59h.01c6.67,8.61,13.65,16.97,20.89,25.1h-.01c-6.8-7.64-13.36-15.47-19.66-23.52h0Z"/>
    <g>
      <polygon class="cls-26" points="702.11 203.99 702.09 161.16 702.1 161.17 702.12 204 702.11 203.99 702.11 203.99"/>
      <polygon class="cls-26" points="702.09 161.16 729.12 157.33 729.13 157.34 702.1 161.17 702.09 161.16 702.09 161.16"/>
      <polygon class="cls-26" points="729.12 157.33 729.12 165.59 729.13 165.59 729.13 157.34 729.12 157.33 729.12 157.33"/>
      <polygon class="cls-26" points="729.12 165.59 711.75 168.05 711.77 168.06 729.13 165.59 729.12 165.59 729.12 165.59"/>
      <polygon class="cls-26" points="711.75 168.05 711.76 176.51 711.77 176.51 711.77 168.06 711.75 168.05 711.75 168.05"/>
      <polygon class="cls-26" points="711.76 176.51 726.17 174.46 726.18 174.47 711.77 176.51 711.76 176.51 711.76 176.51"/>
      <polygon class="cls-26" points="726.17 174.46 726.17 182.71 726.18 182.71 726.18 174.47 726.17 174.46 726.17 174.46"/>
      <polygon class="cls-26" points="726.17 182.71 711.76 184.76 711.77 184.77 726.18 182.71 726.17 182.71 726.17 182.71"/>
      <polygon class="cls-26" points="711.76 184.76 711.76 194.36 711.77 194.37 711.77 184.77 711.76 184.76 711.76 184.76"/>
      <polygon class="cls-26" points="711.76 194.36 729.93 191.77 729.94 191.78 711.77 194.37 711.76 194.36 711.76 194.36"/>
      <polygon class="cls-26" points="729.93 200.01 702.11 203.99 702.12 204 729.94 200.02 729.93 200.01 729.93 200.01"/>
      <polygon class="cls-26" points="729.93 191.77 729.93 200.01 729.94 200.02 729.94 191.78 729.93 191.77 729.93 191.77"/>
      <path class="cls-26" d="M729.94,191.78v8.24s-27.82,3.98-27.82,3.98l-.02-42.83,27.03-3.83v8.25s-17.36,2.46-17.36,2.46v8.46s14.42-2.05,14.42-2.05v8.25s-14.41,2.05-14.41,2.05v9.6c6.06-.86,12.11-1.73,18.17-2.59Z"/>
      <path class="cls-26" d="M729.93,200.01v-8.24s-18.17,2.59-18.17,2.59v-9.6s14.41-2.05,14.41-2.05v-8.25s-14.42,2.05-14.42,2.05v-8.46s17.36-2.46,17.36-2.46v-8.25s-27.03,3.83-27.03,3.83l.02,42.83c9.27-1.33,18.55-2.65,27.82-3.98Z"/>
    </g>
    <path class="cls-26" d="M793.02,190.99c-2.71.38-5.4.77-8.11,1.16-6.8-7.64-13.36-15.5-19.63-23.58l-.02,26.39-9.44,1.35.03-42.76,7.88-1.11c3.31,4.06,6.63,8.12,9.93,12.21,3.34,4.13,6.58,8.25,9.77,12.34.98-2,2.29-5.28,2.57-9.48-.3-3.24-1.44-10.55-6.96-17.26-9.61-11.68-24.3-11.61-26.33-11.57.75-.56,1.5-1.11,2.24-1.67.57-.45,1.15-.9,1.72-1.35,1.08,0,23.18.58,34.29,19.62,9.79,16.78,2.85,33.86,2.06,35.72Z"/>
    <g>
      <polygon class="cls-26" points="667.31 201.79 684.95 171.85 684.96 171.86 667.33 201.8 667.34 208.97 667.32 208.97 667.31 201.79 667.31 201.79"/>
      <polygon class="cls-26" points="684.95 171.85 667.85 174.28 667.86 174.28 684.96 171.86 684.95 171.85 684.95 171.85"/>
      <polygon class="cls-26" points="667.85 174.28 667.84 166.01 667.85 166.02 667.86 174.28 667.85 174.28 667.85 174.28"/>
      <polygon class="cls-26" points="667.84 166.01 696.38 161.97 696.39 161.97 667.85 166.02 667.84 166.01 667.84 166.01"/>
      <polygon class="cls-26" points="696.38 170.5 679.82 198.92 679.83 198.93 696.39 170.51 696.39 161.97 696.38 161.97 696.38 170.5 696.38 170.5"/>
      <polygon class="cls-26" points="679.82 198.92 696.83 196.49 696.85 196.5 679.83 198.93 679.82 198.92 679.82 198.92"/>
      <polygon class="cls-26" points="696.84 204.75 667.32 208.97 667.34 208.97 696.85 204.75 696.84 204.75 696.84 204.75"/>
      <polygon class="cls-26" points="696.83 196.49 696.84 204.75 696.85 204.75 696.85 196.5 696.83 196.49 696.83 196.49"/>
      <path class="cls-26" d="M696.85,196.5v8.25s-29.51,4.22-29.51,4.22v-7.18s17.63-29.94,17.63-29.94l-17.1,2.43v-8.27s28.53-4.04,28.53-4.04v8.53s-16.56,28.42-16.56,28.42c5.67-.81,11.34-1.62,17.01-2.43Z"/>
      <path class="cls-26" d="M696.84,204.75v-8.25s-17.02,2.43-17.02,2.43l16.56-28.42v-8.53s-28.54,4.04-28.54,4.04v8.27s17.11-2.43,17.11-2.43l-17.63,29.94v7.18c9.85-1.41,19.69-2.82,29.52-4.22Z"/>
    </g>
    <g>
      <polygon class="cls-26" points="737.12 198.98 737.13 168.3 737.14 168.31 737.14 198.99 737.12 198.98 737.12 198.98"/>
      <polygon class="cls-26" points="737.13 168.3 746.64 166.95 746.66 166.96 737.14 168.31 737.13 168.3 737.13 168.3"/>
      <polygon class="cls-26" points="746.63 197.62 737.12 198.98 737.14 198.99 746.64 197.63 746.63 197.62 746.63 197.62"/>
      <polygon class="cls-26" points="746.64 166.95 746.63 197.62 746.64 197.63 746.66 166.96 746.64 166.95 746.64 166.95"/>
      <path class="cls-26" d="M746.66,166.96v30.67s-9.52,1.36-9.52,1.36v-30.68c3.18-.45,6.35-.9,9.52-1.35Z"/>
      <path class="cls-26" d="M746.63,197.62v-30.67s-9.5,1.35-9.5,1.35v30.68c3.16-.45,6.33-.91,9.5-1.36Z"/>
    </g>
    <path class="cls-75" d="M695.6,121.04c-1.9-3.33-3.81-6.67-5.71-10,2.24-1.02,5.43-2.27,9.38-3.17,3.64-.82,15.43-3.45,27.28,1.61,17.24,7.36,22.57,24.11,23.3,26.56-2.72,1.83-12.46,7.87-25.38,6.21-19.18-2.47-28.12-19.7-28.88-21.22h0Z"/>
    <path class="cls-69" d="M757.83,111.92c1.39-.79,2.78-1.57,4.18-2.36.42.94.94,2.27,1.3,3.91.34,1.52,1.41,6.44-.72,11.36-3.1,7.17-10.08,9.36-11.11,9.66-.76-1.14-3.26-5.2-2.54-10.58,1.06-7.99,8.25-11.68,8.89-11.99h0Z"/>
    <g>
      <path class="cls-26" d="M801.6,165.94v-3.83c.36-.05.68-.08.98-.08.93,0,1.39.39,1.39,1.17,0,.51-.21.87-.63,1.08l.76,1.65h-.57l-.69-1.51c-.05,0-.13.01-.23.01-.14,0-.29-.01-.45-.04v1.54h-.56ZM802.17,162.53v1.42c.16.03.31.04.45.04.51,0,.76-.26.76-.77,0-.48-.26-.73-.77-.73-.19,0-.34.01-.45.04Z"/>
      <path class="cls-26" d="M802.66,167.2c-1.77,0-3.21-1.44-3.21-3.21s1.44-3.21,3.21-3.21,3.21,1.44,3.21,3.21-1.44,3.21-3.21,3.21ZM802.66,161.01c-1.65,0-2.99,1.34-2.99,2.99s1.34,2.99,2.99,2.99,2.99-1.34,2.99-2.99-1.34-2.99-2.99-2.99Z"/>
    </g>
    <g>
      <path class="cls-26" d="M747.19,158.14c-.12-5.06-6.96-5.35-9.57-1.5s.56,9.39,5.84,7.42c2.6-.97,3.96-3.49,3.73-5.92h0Z"/>
      <path class="cls-26" d="M747.16,157.99c.47,4.1-4.9,8.83-9,5.45-3.65-3.01-.47-9.59,4.46-9.53,2.65.04,4.43,1.67,4.54,4.08h0Z"/>
      <path class="cls-26" d="M747.18,157.99c.47,4.1-4.9,8.83-9,5.45-3.65-3.01-.47-9.59,4.46-9.53,2.65.04,4.43,1.67,4.54,4.08h0Z"/>
      <path class="cls-26" d="M747.17,158.13c-.12-5.06-6.96-5.35-9.57-1.5-2.63,3.87.56,9.39,5.84,7.42,2.6-.97,3.96-3.49,3.73-5.92h0Z"/>
    </g>
    <path class="cls-46" d="M707.72,312.5c-6.51,7.5-19.33-.58-35.54,6.32-2.65,1.12-10.73,4.56-15.54,12.46-1.79-15.96,8.1-31.38,24.05-36.02,10.58-3.08,21.46-.73,29.64,5.43.71,6.71-1.1,10.05-2.61,11.81Z"/>
    <g>
      <polygon class="cls-40" points="709.53 370.29 709.51 327.46 709.52 327.47 709.54 370.3 709.53 370.29 709.53 370.29"/>
      <polygon class="cls-33" points="709.51 327.46 736.54 323.64 736.55 323.64 709.52 327.47 709.51 327.46 709.51 327.46"/>
      <polygon class="cls-65" points="736.54 323.64 736.54 331.89 736.55 331.9 736.55 323.64 736.54 323.64 736.54 323.64"/>
      <polygon class="cls-24" points="736.54 331.89 719.17 334.35 719.19 334.36 736.55 331.9 736.54 331.89 736.54 331.89"/>
      <polygon class="cls-42" points="719.17 334.35 719.18 342.81 719.19 342.82 719.19 334.36 719.17 334.35 719.17 334.35"/>
      <polygon class="cls-27" points="719.18 342.81 733.59 340.76 733.6 340.77 719.19 342.82 719.18 342.81 719.18 342.81"/>
      <polygon class="cls-20" points="733.59 340.76 733.59 349.01 733.6 349.02 733.6 340.77 733.59 340.76 733.59 340.76"/>
      <polygon class="cls-70" points="733.59 349.01 719.18 351.06 719.19 351.07 733.6 349.02 733.59 349.01 733.59 349.01"/>
      <polygon class="cls-8" points="719.18 351.06 719.18 360.67 719.19 360.67 719.19 351.07 719.18 351.06 719.18 351.06"/>
      <polygon class="cls-16" points="719.18 360.67 737.35 358.07 737.36 358.08 719.19 360.67 719.18 360.67 719.18 360.67"/>
      <polygon class="cls-37" points="737.35 366.32 709.53 370.29 709.54 370.3 737.36 366.32 737.35 366.32 737.35 366.32"/>
      <polygon class="cls-67" points="737.35 358.07 737.35 366.32 737.36 366.32 737.36 358.08 737.35 358.07 737.35 358.07"/>
      <path class="cls-9" d="M737.36,358.08v8.24s-27.82,3.98-27.82,3.98l-.02-42.83,27.03-3.83v8.25s-17.36,2.46-17.36,2.46v8.46s14.42-2.05,14.42-2.05v8.25s-14.41,2.05-14.41,2.05v9.6c6.06-.86,12.11-1.73,18.17-2.59Z"/>
      <path class="cls-30" d="M737.35,366.32v-8.24s-18.17,2.59-18.17,2.59v-9.6s14.41-2.05,14.41-2.05v-8.25s-14.42,2.05-14.42,2.05v-8.46s17.36-2.46,17.36-2.46v-8.25s-27.03,3.83-27.03,3.83l.02,42.83c9.27-1.33,18.55-2.65,27.82-3.98Z"/>
    </g>
    <path class="cls-68" d="M800.43,357.29c-2.71.38-5.4.77-8.11,1.16-6.8-7.64-13.36-15.5-19.63-23.58l-.02,26.39-9.44,1.35.03-42.76,7.88-1.11c3.31,4.06,6.63,8.12,9.93,12.21,3.34,4.13,6.58,8.25,9.77,12.34.98-2,2.29-5.28,2.57-9.48-.3-3.24-1.44-10.55-6.96-17.26-9.61-11.68-24.3-11.61-26.33-11.57.75-.56,1.5-1.11,2.24-1.67.57-.45,1.15-.9,1.72-1.35,1.08,0,23.18.58,34.29,19.62,9.79,16.78,2.85,33.86,2.06,35.72Z"/>
    <g>
      <polygon class="cls-38" points="674.73 368.1 692.37 338.16 692.38 338.16 674.75 368.1 674.75 375.28 674.74 375.27 674.73 368.1 674.73 368.1"/>
      <polygon class="cls-57" points="692.37 338.16 675.27 340.58 675.28 340.59 692.38 338.16 692.37 338.16 692.37 338.16"/>
      <polygon class="cls-47" points="675.27 340.58 675.26 332.31 675.27 332.32 675.28 340.59 675.27 340.58 675.27 340.58"/>
      <polygon class="cls-28" points="675.26 332.31 703.8 328.27 703.81 328.28 675.27 332.32 675.26 332.31 675.26 332.31"/>
      <polygon class="cls-7" points="703.8 336.8 687.24 365.23 687.25 365.23 703.81 336.81 703.81 328.28 703.8 328.27 703.8 336.8 703.8 336.8"/>
      <polygon class="cls-45" points="687.24 365.23 704.25 362.8 704.27 362.8 687.25 365.23 687.24 365.23 687.24 365.23"/>
      <polygon class="cls-25" points="704.26 371.05 674.74 375.27 674.75 375.28 704.27 371.06 704.26 371.05 704.26 371.05"/>
      <polygon class="cls-15" points="704.25 362.8 704.26 371.05 704.27 371.06 704.27 362.8 704.25 362.8 704.25 362.8"/>
      <path class="cls-50" d="M704.27,362.8v8.25s-29.51,4.22-29.51,4.22v-7.18s17.63-29.94,17.63-29.94l-17.1,2.43v-8.27s28.53-4.04,28.53-4.04v8.53s-16.56,28.42-16.56,28.42c5.67-.81,11.34-1.62,17.01-2.43Z"/>
      <path class="cls-29" d="M704.26,371.05v-8.25s-17.02,2.43-17.02,2.43l16.56-28.42v-8.53s-28.54,4.04-28.54,4.04v8.27s17.11-2.43,17.11-2.43l-17.63,29.94v7.18c9.85-1.41,19.69-2.82,29.52-4.22Z"/>
    </g>
    <g>
      <polygon class="cls-60" points="744.54 365.29 744.55 334.61 744.56 334.61 744.56 365.29 744.54 365.29 744.54 365.29"/>
      <polygon class="cls-12" points="744.55 334.61 754.06 333.26 754.08 333.26 744.56 334.61 744.55 334.61 744.55 334.61"/>
      <polygon class="cls-1" points="754.05 363.93 744.54 365.29 744.56 365.29 754.06 363.93 754.05 363.93 754.05 363.93"/>
      <polygon class="cls-52" points="754.06 333.26 754.05 363.93 754.06 363.93 754.08 333.26 754.06 333.26 754.06 333.26"/>
      <path class="cls-76" d="M754.08,333.26v30.67s-9.52,1.36-9.52,1.36v-30.68c3.18-.45,6.35-.9,9.52-1.35Z"/>
      <path class="cls-14" d="M754.05,363.93v-30.67s-9.5,1.35-9.5,1.35v30.68c3.16-.45,6.33-.91,9.5-1.36Z"/>
    </g>
    <path class="cls-5" d="M703.02,287.34c-1.9-3.33-3.81-6.67-5.71-10,2.24-1.02,5.43-2.27,9.38-3.17,3.64-.82,15.43-3.45,27.28,1.61,17.24,7.36,22.57,24.11,23.3,26.56-2.72,1.83-12.46,7.87-25.38,6.21-19.18-2.47-28.12-19.7-28.88-21.22h0Z"/>
    <path class="cls-49" d="M765.25,278.22c1.39-.79,2.78-1.57,4.18-2.36.42.94.94,2.27,1.3,3.91.34,1.52,1.41,6.44-.72,11.36-3.1,7.17-10.08,9.36-11.11,9.66-.76-1.14-3.26-5.2-2.54-10.58,1.06-7.99,8.25-11.68,8.89-11.99h0Z"/>
    <g>
      <path class="cls-55" d="M754.61,324.44c-.12-5.06-6.96-5.35-9.57-1.5-2.63,3.87.56,9.39,5.84,7.42,2.6-.97,3.96-3.49,3.73-5.92h0Z"/>
      <path class="cls-22" d="M754.58,324.29c.47,4.1-4.9,8.83-9,5.45-3.65-3.01-.47-9.59,4.46-9.53,2.65.04,4.43,1.67,4.54,4.08h0Z"/>
      <path class="cls-6" d="M754.6,324.29c.47,4.1-4.9,8.83-9,5.45-3.65-3.01-.47-9.59,4.46-9.53,2.65.04,4.43,1.67,4.54,4.08h0Z"/>
      <path class="cls-10" d="M754.59,324.44c-.12-5.06-6.96-5.35-9.57-1.5-2.63,3.87.56,9.39,5.84,7.42,2.6-.97,3.96-3.49,3.73-5.92h0Z"/>
    </g>
    <path class="cls-36" d="M701.97,463.58c-6.51,7.5-19.33-.58-35.54,6.32-2.65,1.12-10.73,4.56-15.54,12.46-1.79-15.96,8.1-31.38,24.05-36.02,10.58-3.08,21.46-.73,29.64,5.43.71,6.71-1.1,10.05-2.61,11.81Z"/>
    <g>
      <polygon class="cls-35" points="703.78 521.38 703.76 478.55 703.77 478.55 703.79 521.38 703.78 521.38 703.78 521.38"/>
      <polygon class="cls-35" points="703.76 478.55 730.79 474.72 730.8 474.73 703.77 478.55 703.76 478.55 703.76 478.55"/>
      <polygon class="cls-35" points="730.79 474.72 730.79 482.97 730.8 482.98 730.8 474.73 730.79 474.72 730.79 474.72"/>
      <polygon class="cls-35" points="730.79 482.97 713.43 485.44 713.44 485.44 730.8 482.98 730.79 482.97 730.79 482.97"/>
      <polygon class="cls-35" points="713.43 485.44 713.43 493.89 713.44 493.9 713.44 485.44 713.43 485.44 713.43 485.44"/>
      <polygon class="cls-35" points="713.43 493.89 727.84 491.85 727.85 491.85 713.44 493.9 713.43 493.89 713.43 493.89"/>
      <polygon class="cls-35" points="727.84 491.85 727.84 500.09 727.85 500.1 727.85 491.85 727.84 491.85 727.84 491.85"/>
      <polygon class="cls-35" points="727.84 500.09 713.43 502.15 713.44 502.15 727.85 500.1 727.84 500.09 727.84 500.09"/>
      <polygon class="cls-35" points="713.43 502.15 713.43 511.75 713.44 511.76 713.44 502.15 713.43 502.15 713.43 502.15"/>
      <polygon class="cls-35" points="713.43 511.75 731.6 509.16 731.61 509.16 713.44 511.76 713.43 511.75 713.43 511.75"/>
      <polygon class="cls-35" points="731.6 517.4 703.78 521.38 703.79 521.38 731.61 517.41 731.6 517.4 731.6 517.4"/>
      <polygon class="cls-35" points="731.6 509.16 731.6 517.4 731.61 517.41 731.61 509.16 731.6 509.16 731.6 509.16"/>
      <path class="cls-35" d="M731.61,509.16v8.24s-27.82,3.98-27.82,3.98l-.02-42.83,27.03-3.83v8.25s-17.36,2.46-17.36,2.46v8.46s14.42-2.05,14.42-2.05v8.25s-14.41,2.05-14.41,2.05v9.6c6.06-.86,12.11-1.73,18.17-2.59Z"/>
      <path class="cls-35" d="M731.6,517.4v-8.24s-18.17,2.59-18.17,2.59v-9.6s14.41-2.05,14.41-2.05v-8.25s-14.42,2.05-14.42,2.05v-8.46s17.36-2.46,17.36-2.46v-8.25s-27.03,3.83-27.03,3.83l.02,42.83c9.27-1.33,18.55-2.65,27.82-3.98Z"/>
    </g>
    <path class="cls-35" d="M794.69,508.38c-2.71.38-5.4.77-8.11,1.16-6.8-7.64-13.36-15.5-19.63-23.58l-.02,26.39-9.44,1.35.03-42.76,7.88-1.11c3.31,4.06,6.63,8.12,9.93,12.21,3.34,4.13,6.58,8.25,9.77,12.34.98-2,2.29-5.28,2.57-9.48-.3-3.24-1.44-10.55-6.96-17.26-9.61-11.68-24.3-11.61-26.33-11.57.75-.56,1.5-1.11,2.24-1.67.57-.45,1.15-.9,1.72-1.35,1.08,0,23.18.58,34.29,19.62,9.79,16.78,2.85,33.86,2.06,35.72Z"/>
    <g>
      <polygon class="cls-35" points="668.99 519.18 686.62 489.24 686.63 489.25 669 519.19 669.01 526.36 668.99 526.35 668.99 519.18 668.99 519.18"/>
      <polygon class="cls-35" points="686.62 489.24 669.52 491.67 669.53 491.67 686.63 489.25 686.62 489.24 686.62 489.24"/>
      <polygon class="cls-35" points="669.52 491.67 669.51 483.4 669.52 483.4 669.53 491.67 669.52 491.67 669.52 491.67"/>
      <polygon class="cls-35" points="669.51 483.4 698.05 479.35 698.06 479.36 669.52 483.4 669.51 483.4 669.51 483.4"/>
      <polygon class="cls-35" points="698.05 487.89 681.49 516.31 681.5 516.32 698.06 487.89 698.06 479.36 698.05 479.35 698.05 487.89 698.05 487.89"/>
      <polygon class="cls-35" points="681.49 516.31 698.51 513.88 698.52 513.89 681.5 516.32 681.49 516.31 681.49 516.31"/>
      <polygon class="cls-35" points="698.51 522.13 668.99 526.35 669.01 526.36 698.52 522.14 698.51 522.13 698.51 522.13"/>
      <polygon class="cls-35" points="698.51 513.88 698.51 522.13 698.52 522.14 698.52 513.89 698.51 513.88 698.51 513.88"/>
      <path class="cls-35" d="M698.52,513.89v8.25s-29.51,4.22-29.51,4.22v-7.18s17.63-29.94,17.63-29.94l-17.1,2.43v-8.27s28.53-4.04,28.53-4.04v8.53s-16.56,28.42-16.56,28.42c5.67-.81,11.34-1.62,17.01-2.43Z"/>
      <path class="cls-35" d="M698.51,522.13v-8.25s-17.02,2.43-17.02,2.43l16.56-28.42v-8.53s-28.54,4.04-28.54,4.04v8.27s17.11-2.43,17.11-2.43l-17.63,29.94v7.18c9.85-1.41,19.69-2.82,29.52-4.22Z"/>
    </g>
    <g>
      <polygon class="cls-35" points="738.79 516.37 738.8 485.69 738.81 485.7 738.81 516.38 738.79 516.37 738.79 516.37"/>
      <polygon class="cls-35" points="738.8 485.69 748.31 484.34 748.33 484.35 738.81 485.7 738.8 485.69 738.8 485.69"/>
      <polygon class="cls-35" points="748.3 515.01 738.79 516.37 738.81 516.38 748.31 515.02 748.3 515.01 748.3 515.01"/>
      <polygon class="cls-35" points="748.31 484.34 748.3 515.01 748.31 515.02 748.33 484.35 748.31 484.34 748.31 484.34"/>
      <path class="cls-35" d="M748.33,484.35v30.67s-9.52,1.36-9.52,1.36v-30.68c3.18-.45,6.35-.9,9.52-1.35Z"/>
      <path class="cls-35" d="M748.3,515.01v-30.67s-9.5,1.35-9.5,1.35v30.68c3.16-.45,6.33-.91,9.5-1.36Z"/>
    </g>
    <path class="cls-35" d="M697.27,438.43c-1.9-3.33-3.81-6.67-5.71-10,2.24-1.02,5.43-2.27,9.38-3.17,3.64-.82,15.43-3.45,27.28,1.61,17.24,7.36,22.57,24.11,23.3,26.56-2.72,1.83-12.46,7.87-25.38,6.21-19.18-2.47-28.12-19.7-28.88-21.22h0Z"/>
    <path class="cls-35" d="M759.5,429.31c1.39-.79,2.78-1.57,4.18-2.36.42.94.94,2.27,1.3,3.91.34,1.52,1.41,6.44-.72,11.36-3.1,7.17-10.08,9.36-11.11,9.66-.76-1.14-3.26-5.2-2.54-10.58,1.06-7.99,8.25-11.68,8.89-11.99h0Z"/>
    <g>
      <path class="cls-35" d="M748.86,475.52c-.12-5.06-6.96-5.35-9.57-1.5-2.63,3.87.56,9.39,5.84,7.42,2.6-.97,3.96-3.49,3.73-5.92h0Z"/>
      <path class="cls-35" d="M748.83,475.37c.47,4.1-4.9,8.83-9,5.45-3.65-3.01-.47-9.59,4.46-9.53,2.65.04,4.43,1.67,4.54,4.08h0Z"/>
      <path class="cls-35" d="M748.85,475.38c.47,4.1-4.9,8.83-9,5.45-3.65-3.01-.47-9.59,4.46-9.53,2.65.04,4.43,1.67,4.54,4.08h0Z"/>
      <path class="cls-35" d="M748.84,475.52c-.12-5.06-6.96-5.35-9.57-1.5s.56,9.39,5.84,7.42c2.6-.97,3.96-3.49,3.73-5.92h0Z"/>
    </g>
  </g>
</svg>