<?xml version="1.0" encoding="UTF-8"?>
<svg id="Layer_1" data-name="Layer 1" xmlns="http://www.w3.org/2000/svg" xmlns:xlink="http://www.w3.org/1999/xlink" viewBox="0 0 1000 600">
  <defs>
    <style>
      .cls-1 {
        fill: #306a45;
      }

      .cls-2 {
        fill: url(#linear-gradient-2);
      }

      .cls-3 {
        fill: url(#linear-gradient-10);
      }

      .cls-4 {
        fill: none;
        stroke: #d0dc27;
        stroke-miterlimit: 10;
      }

      .cls-5 {
        fill: #fff;
      }

      .cls-6 {
        fill: url(#linear-gradient-4);
      }

      .cls-7 {
        fill: url(#linear-gradient-3);
      }

      .cls-8 {
        fill: url(#linear-gradient-5);
      }

      .cls-9 {
        fill: url(#linear-gradient-8);
      }

      .cls-10 {
        fill: url(#linear-gradient-7);
      }

      .cls-11 {
        fill: url(#linear-gradient-9);
      }

      .cls-12 {
        fill: url(#linear-gradient-6);
      }

      .cls-13 {
        fill: #77c044;
      }

      .cls-14 {
        fill: url(#linear-gradient);
      }

      .cls-15 {
        font-family: Montserrat-Medium, Montserrat;
        font-size: 19px;
        font-weight: 500;
      }
    </style>
    <linearGradient id="linear-gradient" x1="120.49" y1="355.88" x2="396.08" y2="355.88" gradientUnits="userSpaceOnUse">
      <stop offset="0" stop-color="#67c18a"/>
      <stop offset=".2" stop-color="#049d4f"/>
      <stop offset=".66" stop-color="$theme-color"/>
    </linearGradient>
    <linearGradient id="linear-gradient-2" x1="-1320.66" y1="616.95" x2="-1030.67" y2="616.95" gradientTransform="translate(-1055.78 177.81) rotate(160.34) scale(1 -1)" gradientUnits="userSpaceOnUse">
      <stop offset=".2" stop-color="#f4d50e"/>
      <stop offset=".51" stop-color="#fee700"/>
      <stop offset=".75" stop-color="#f7db08"/>
      <stop offset="1" stop-color="#f4d50e"/>
    </linearGradient>
    <linearGradient id="linear-gradient-3" x1="-1314.81" y1="563.47" x2="-1218.87" y2="555.32" xlink:href="#linear-gradient-2"/>
    <linearGradient id="linear-gradient-4" x1="-1242.48" y1="523.53" x2="-1139.58" y2="523.53" gradientTransform="translate(-1055.78 177.81) rotate(160.34) scale(1 -1)" xlink:href="#linear-gradient"/>
    <linearGradient id="linear-gradient-5" x1="-1141.38" y1="519.29" x2="-1115.53" y2="519.29" gradientTransform="translate(-1055.78 177.81) rotate(160.34) scale(1 -1)" xlink:href="#linear-gradient"/>
    <linearGradient id="linear-gradient-6" x1="559.93" y1="348.12" x2="836.82" y2="348.12" xlink:href="#linear-gradient"/>
    <linearGradient id="linear-gradient-7" x1="553.5" y1="360.51" x2="843.49" y2="360.51" gradientTransform="matrix(1,0,0,1,0,0)" xlink:href="#linear-gradient-2"/>
    <linearGradient id="linear-gradient-8" x1="559.35" y1="307.03" x2="655.29" y2="298.88" gradientTransform="matrix(1,0,0,1,0,0)" xlink:href="#linear-gradient-2"/>
    <linearGradient id="linear-gradient-9" x1="631.67" y1="267.09" x2="734.57" y2="267.09" xlink:href="#linear-gradient"/>
    <linearGradient id="linear-gradient-10" x1="732.77" y1="262.85" x2="758.63" y2="262.85" xlink:href="#linear-gradient"/>
  </defs>
  <text class="cls-15" transform="translate(145.54 128.98)"><tspan x="0" y="0">Arabic version </tspan></text>
  <line class="cls-4" x1="133.31" y1="140.27" x2="393" y2="140.27"/>
  <text class="cls-15" transform="translate(567.01 128.98)"><tspan x="0" y="0">English version</tspan></text>
  <line class="cls-4" x1="554.78" y1="140.27" x2="814.47" y2="140.27"/>
  <g>
    <path class="cls-14" d="M395.93,347.65c-1.43,18.19-12.92,30.32-17.08,34.6-26.83,27.52-54.99,10.86-123.46,27.19-43.39,10.35-67.67,25.52-98.57,15.68-17.08-5.44-24.73-14.89-26.78-17.58-10.68-14.07-9.71-30.44-9.38-37.8,1.04-23.09,13.88-38.84,19.14-45.3,3.38-4.16,6.91-7.71,10.35-10.74,6.81-5.96,13.34-9.91,18.09-12.37,3.22,1.63,7.83,3.8,13.57,5.92.22.08.44.16.67.26,1.25.46,2.54.94,3.9,1.43.22.08.44.15.66.23.42.15.83.3,1.27.44,1.91.67,3.9,1.33,5.96,1.97,10.54,3.26,22.95,5.71,35.46,3.2,21.66-4.35,34.89-21.81,39.9-29.47,0-.01.01-.03.01-.04.46-.69.83-1.29,1.14-1.8.34,1.36.7,2.61,1.09,3.78,2.38,7.27,5.76,10.93,8.58,12.91.48.34.94.63,1.39.88,14.85,8.36,30.9-12.09,61.08-10.31,3.63.22,11.23.75,19.56,3.97,4.2,1.62,8.59,3.9,12.75,7.19,13.25,10.45,22.09,27.95,20.69,45.77Z"/>
    <path class="cls-2" d="M125.07,415.73c29.24,47.6,131.23,30.88,140.14,29.31,57.84-10.1,137.73-45.81,139.71-92.34.62-14.27-5.83-35.58-21.79-48.18-6.86-5.41-14.29-8.28-20.64-9.84,4.21,1.62,8.59,3.91,12.75,7.19,13.25,10.45,22.1,27.94,20.7,45.77-1.43,18.19-12.93,30.31-17.09,34.59-26.83,27.52-54.99,10.87-123.46,27.2-43.38,10.35-67.67,25.52-98.56,15.68-17.09-5.44-24.74-14.9-26.78-17.59-10.68-14.06-9.71-30.43-9.38-37.8,1.02-23.08,13.87-38.84,19.14-45.3,3.38-4.16,6.9-7.71,10.35-10.74-4.84,3.82-9.95,8.61-14.82,14.56-5.54,6.8-19.06,23.39-20.14,47.68-.74,16.51,4.54,31.12,9.87,39.78Z"/>
    <path class="cls-7" d="M286.12,293.82c14.85,8.35,30.9-12.09,61.09-10.31,4.92.28,19.96,1.17,32.3,11.16-6.32-26.83-31.2-46.04-59.66-44.32-18.88,1.13-35.1,11.22-44.76,25.9,2.73,11.26,7.58,15.61,11.04,17.57Z"/>
    <path class="cls-6" d="M279.19,250.45c1.15-6.49,2.3-12.97,3.45-19.46-4.22-.36-10.08-.54-16.99.3-6.36.77-26.93,3.34-43.16,18.36-23.61,21.85-22.55,51.99-22.32,56.38,5.46,1.38,24.68,5.53,44.59-4.62,29.57-15.06,34.07-48.07,34.42-50.96h0Z"/>
    <path class="cls-8" d="M173.37,271.64c-2.7-.47-5.41-.94-8.11-1.4-.14,1.76-.21,4.2.15,7.08.33,2.65,1.44,11.21,7.72,17.95,9.14,9.8,21.7,9.31,23.53,9.2.57-2.28,2.26-10.29-2-18.57-6.33-12.29-20.08-14.11-21.29-14.25h0Z"/>
    <path class="cls-5" d="M320.68,346.69c-1.37,8.23-6.08,15.45-7.04,16.98-.23.38-.7,1.14-1.36,2.03,0,0-5.01,6.82-15.09,11.01-8.01,3.33-38.72,10.49-81.08,16.68-1.35,3.15-8.24,18.43-24.95,24.35-10.18,3.61-18.79,1.9-20.53,1.52-12.45-2.68-22.23-11.7-26.53-22.06-3.23-7.77-2.72-14.69-2.5-17.59,2.14-29.17,38.04-62.34,46.73-70,1.91.67,3.9,1.33,5.96,1.97-24.99,29.51-39.05,55.15-38.39,66.7.44,7.81,4.03,13.06,4.03,13.06,4.2,6.18,10.33,8.39,11.91,8.9,1.51.5,9.68,3.02,18.07-1.41,8.63-4.56,11.21-13.17,11.93-16.28,3.22-14.22-7.65-25.16-8.39-25.89,5.63-4.86,11.27-9.71,16.89-14.55,4.35,9.71,6.76,17.16,8.2,22.6.62,2.35,1.54,6.11,4.77,8.28,3.39,2.27,7.51,1.52,9.56,1.23,8.35-1.2,27.62-5.09,52.89-11.07,1.2-.31,2.88-.89,4.7-1.94,5.83-3.39,8.2-8.95,8.93-10.96,3.1-8.53-.54-16.1-1.24-17.49,5.72-5.24,11.44-10.49,17.15-15.72,1.88,3.28,7.9,14.73,5.4,29.66Z"/>
    <path class="cls-5" d="M377.05,337.86c-2.1,20.29-19.83,38.47-45.23,46.09v-17.72c14.49-5.94,24.07-16.4,24.7-27.54.15-2.72-.16-6.69-2.45-11.47,5.72-5.25,11.44-10.49,17.15-15.72,3.61,6.65,6.91,15.86,5.83,26.36Z"/>
    <g>
      <path class="cls-5" d="M188.8,371.52c-.21-8.69-11.94-9.19-16.43-2.57-4.51,6.64.96,16.12,10.02,12.73,4.47-1.67,6.8-5.98,6.41-10.16h0Z"/>
      <path class="cls-5" d="M188.75,371.26c.81,7.04-8.41,15.15-15.45,9.35-6.27-5.17-.81-16.46,7.66-16.35,4.55.06,7.6,2.86,7.79,7h0Z"/>
      <path class="cls-5" d="M188.78,371.27c.81,7.04-8.41,15.15-15.45,9.35-6.27-5.17-.81-16.46,7.66-16.35,4.55.06,7.6,2.86,7.79,7h0Z"/>
      <path class="cls-5" d="M188.77,371.51c-.21-8.69-11.94-9.19-16.43-2.57-4.51,6.64.96,16.12,10.02,12.73,4.47-1.67,6.8-5.98,6.41-10.16h0Z"/>
    </g>
    <g>
      <path class="cls-5" d="M296.6,390.99c-.21-8.69-11.94-9.19-16.43-2.57-4.51,6.64.96,16.12,10.02,12.73,4.47-1.67,6.8-5.98,6.41-10.16h0Z"/>
      <path class="cls-5" d="M296.55,390.73c.81,7.04-8.41,15.15-15.45,9.35-6.27-5.17-.81-16.46,7.66-16.35,4.55.06,7.6,2.86,7.79,7h0Z"/>
      <path class="cls-5" d="M296.57,390.74c.81,7.04-8.41,15.15-15.45,9.35-6.27-5.17-.81-16.46,7.66-16.35,4.55.06,7.6,2.86,7.79,7h0Z"/>
      <path class="cls-5" d="M296.57,390.98c-.21-8.69-11.94-9.19-16.43-2.57-4.51,6.64.96,16.12,10.02,12.73,4.47-1.67,6.8-5.98,6.41-10.16h0Z"/>
    </g>
    <g>
      <path class="cls-5" d="M361.73,306.14c-.21-8.69-11.94-9.19-16.43-2.57-4.51,6.64.96,16.12,10.02,12.73,4.47-1.67,6.8-5.98,6.41-10.16h0Z"/>
      <path class="cls-5" d="M361.69,305.88c.81,7.04-8.41,15.15-15.45,9.35-6.27-5.17-.81-16.46,7.66-16.35,4.55.06,7.6,2.86,7.79,7h0Z"/>
      <path class="cls-5" d="M361.71,305.89c.81,7.04-8.41,15.15-15.45,9.35-6.27-5.17-.81-16.46,7.66-16.35,4.55.06,7.6,2.86,7.79,7h0Z"/>
      <path class="cls-5" d="M361.71,306.13c-.21-8.69-11.94-9.19-16.43-2.57-4.51,6.64.96,16.12,10.02,12.73,4.47-1.67,6.8-5.98,6.41-10.16h0Z"/>
    </g>
    <g>
      <path class="cls-5" d="M321.33,382.04c-.21-8.69-11.94-9.19-16.43-2.57-4.51,6.64.96,16.12,10.02,12.73,4.47-1.67,6.8-5.98,6.41-10.16h0Z"/>
      <path class="cls-5" d="M321.28,381.78c.81,7.04-8.41,15.15-15.45,9.35-6.27-5.17-.81-16.46,7.66-16.35,4.55.06,7.6,2.86,7.79,7h0Z"/>
      <path class="cls-5" d="M321.31,381.79c.81,7.04-8.41,15.15-15.45,9.35-6.27-5.17-.81-16.46,7.66-16.35,4.55.06,7.6,2.86,7.79,7h0Z"/>
      <path class="cls-5" d="M321.3,382.03c-.21-8.69-11.94-9.19-16.43-2.57-4.51,6.64.96,16.12,10.02,12.73,4.47-1.67,6.8-5.98,6.41-10.16h0Z"/>
    </g>
    <g>
      <path class="cls-1" d="M213.07,433.8c.55-.09.82-.13,1.37-.22.13.78.19,1.17.32,1.95-.53.09-.79.13-1.32.21-.25.04-.51.05-.78.03-.11.82-.47,1.51-1.08,2.07-.54.49-1.22.8-2.03.93-1.23.2-2.24-.04-3.03-.72-.61-.52-.98-1.19-1.12-2.01-.1-.6-.06-1.16.12-1.67.77-.31,1.15-.47,1.91-.78-.21.54-.26,1.15-.15,1.81.09.54.3.93.64,1.17.34.25.78.32,1.32.24.51-.08.89-.29,1.14-.63.25-.34.33-.76.25-1.26-.36-2.22-.54-3.33-.9-5.55.73-.56,1.1-.84,1.84-1.4.35,2.15.53,3.23.88,5.38,0,.03,0,.05,0,.06.03.18.09.3.18.35.09.06.24.07.45.03Z"/>
      <path class="cls-1" d="M226.59,431.6c.45-.07.68-.11,1.13-.18.13.78.19,1.17.32,1.95-.53.09-.79.13-1.32.21-.54.09-1.01.04-1.41-.15-.33.31-.77.5-1.31.59-2.18.36-3.28.53-5.46.89-.52.08-.99.04-1.41-.15-.36.31-.79.51-1.31.59-.53.09-.79.13-1.32.21-.13-.78-.19-1.17-.32-1.95.45-.07.68-.11,1.13-.18.21-.03.35-.09.41-.18.06-.09.07-.23.04-.44-.1-.6-.15-.91-.25-1.51.74-.56,1.1-.83,1.84-1.39.17,1.03.25,1.54.42,2.57.03.2.09.34.17.4s.21.08.41.06c.24-1.19.68-2.2,1.31-3,.69-.88,1.56-1.41,2.6-1.57,1-.16,1.85.06,2.56.65.6.5.98,1.18,1.12,2.02.01.09.02.13.04.22.05.29.25.41.61.35ZM223.63,432.08c.19-.03.31-.08.34-.14.03-.06.03-.21-.01-.47,0-.05-.01-.07-.02-.12-.06-.39-.22-.69-.46-.89-.25-.2-.54-.27-.88-.22-.49.08-.93.33-1.32.75-.39.42-.69.96-.88,1.61,1.3-.21,1.95-.32,3.24-.53ZM222.43,427.59c-.3.05-.56,0-.78-.17-.22-.16-.35-.39-.4-.69s0-.56.16-.77c.16-.21.39-.34.69-.39.3-.05.56,0,.77.16.21.15.34.38.39.68.05.31,0,.57-.15.79-.15.22-.38.35-.68.4Z"/>
      <path class="cls-1" d="M227.8,433.41c-.13-.78-.19-1.17-.32-1.95l1.48-.24c-.16-.28-.27-.59-.33-.92-.15-.91,0-1.68.41-2.3.38-.55.93-.89,1.67-1.01.76-.12,1.39.03,1.9.44.44.35.72.86.82,1.53.07.42.1.63.17,1.05.12.72,0,1.33-.35,1.83-.35.51-.89.82-1.62.94-1.54.25-2.3.38-3.84.63ZM230.62,426.49c-.3.05-.56,0-.78-.17s-.35-.39-.4-.69c-.05-.3,0-.56.16-.77.16-.21.39-.34.69-.39.3-.05.56,0,.77.16.21.15.34.38.39.68.05.31,0,.57-.15.79-.15.22-.38.35-.68.4ZM231.42,429.21c-.04-.26-.17-.37-.39-.34-.39.06-.53.4-.43,1.02.11.68.36.99.75.93.22-.04.31-.18.27-.44-.08-.47-.11-.7-.19-1.17Z"/>
      <path class="cls-1" d="M234.25,424.07c.13-.39.2-.58.33-.97l.4-.07c-.13-.15-.2-.33-.23-.51-.05-.3.02-.57.21-.81.17-.22.39-.35.69-.4.29-.05.57.02.85.2.06.35.08.52.14.87-.26-.17-.5-.23-.71-.2-.13.02-.22.07-.28.15-.05.07-.06.14-.05.23.02.11.09.23.22.34.52-.08.78-.13,1.29-.21-.13.39-.2.58-.33.97-1.01.16-1.51.25-2.52.41ZM236.08,432.06c-.41-2.52-.62-3.78-1.03-6.3.73-.56,1.1-.84,1.84-1.4.48,2.95.72,4.43,1.2,7.38-.8.13-1.21.2-2.01.33Z"/>
      <path class="cls-1" d="M245.75,430.48c-.81.13-1.5-.04-2.05-.52-.47-.41-.76-.97-.88-1.7-.13-.79.02-1.51.43-2.17.36-.58.9-1.05,1.61-1.41.91.14,1.64.49,2.18,1.02.48.47.78,1.05.9,1.73.14.84-.02,1.54-.45,2.1-.38.5-.92.81-1.63.93-.05,0-.07.01-.12.02ZM243.53,423.77c-.3.05-.56,0-.78-.17s-.35-.39-.4-.69c-.05-.3,0-.56.16-.77.16-.21.39-.34.69-.39s.56,0,.77.16c.21.15.34.38.39.68.05.31,0,.57-.15.79-.15.22-.38.35-.68.4ZM245.43,428.53s.07-.01.12-.02c.35-.06.49-.3.42-.73-.09-.56-.36-.96-.8-1.2-.33.37-.45.82-.37,1.35.07.45.28.65.62.6ZM245.72,423.41c-.3.05-.56,0-.78-.17s-.35-.39-.4-.69c-.05-.3,0-.56.16-.77.16-.21.39-.34.69-.39.3-.05.56,0,.77.16.21.15.34.38.39.68.05.31,0,.57-.15.79-.15.22-.38.35-.68.4Z"/>
      <path class="cls-1" d="M252.56,429.37c-.76.12-1.4-.02-1.91-.44-.45-.37-.73-.89-.84-1.56-.29-1.77-.43-2.65-.72-4.41.74-.56,1.1-.83,1.84-1.39.35,2.15.53,3.23.88,5.38.03.21.09.35.18.41.09.06.23.07.44.04.45-.07.68-.11,1.13-.18.13.78.19,1.17.32,1.95-.53.09-.79.13-1.32.21Z"/>
      <path class="cls-1" d="M254.59,430.05c.3-.05.56,0,.77.16.21.15.34.38.39.68.05.31,0,.57-.15.79-.15.22-.38.35-.68.4-.3.05-.56,0-.78-.17-.22-.16-.35-.39-.4-.69-.05-.3,0-.56.16-.77.16-.21.39-.34.69-.39ZM257.53,426.56c.45-.07.68-.11,1.13-.18.13.78.19,1.17.32,1.95-.53.09-.79.13-1.32.21-.52.08-.99.04-1.41-.15-.36.31-.79.51-1.31.59-.53.09-.79.13-1.32.21-.13-.78-.19-1.17-.32-1.95.45-.07.68-.11,1.13-.18.21-.03.35-.09.41-.18.06-.09.07-.23.04-.44-.13-.8-.2-1.2-.33-2,.74-.56,1.1-.83,1.84-1.39.2,1.22.3,1.84.5,3.06.03.21.09.35.18.41.08.06.23.07.44.04ZM256.78,429.7c.3-.05.56,0,.77.16.21.15.34.38.39.68.05.31,0,.57-.15.79-.15.22-.38.35-.68.4-.3.05-.56,0-.78-.17-.22-.16-.35-.39-.4-.69-.05-.3,0-.56.16-.77.16-.21.39-.34.69-.39Z"/>
      <path class="cls-1" d="M266.13,425.16c.41-.07.61-.1,1.02-.17.13.78.19,1.17.32,1.95-.41.07-.62.1-1.04.17-.62.1-1.13.12-1.53.04-.4-.07-.79-.24-1.17-.52-.93.76-2.03,1.24-3.29,1.45-.68.11-1.02.17-1.69.28-.13-.78-.19-1.17-.32-1.95.68-.11,1.02-.17,1.71-.28,1.21-.2,2.14-.67,2.79-1.42-.58-.62-1.17-.87-1.78-.77-.62.1-1.29.57-2.02,1.42-.11-.69-.17-1.03-.28-1.72.57-.92,1.31-1.45,2.23-1.6,0,0,.01,0,.02,0,.66-.11,1.34.03,2.03.4s1.35.95,1.96,1.74c.04.27.07.41.11.68-.05.08-.12.21-.23.38.26.03.64,0,1.16-.08Z"/>
      <path class="cls-1" d="M267.23,426.98c-.13-.78-.19-1.17-.32-1.95.26-.04.39-.06.65-.11.31-.05.51-.14.6-.28.09-.14.11-.37.06-.69-.26-1.6-.39-2.4-.65-4,.73-.56,1.1-.84,1.84-1.4.33,2.03.5,3.05.83,5.08.14.86-.02,1.59-.46,2.19-.41.56-1.01.9-1.81,1.03-.29.05-.44.07-.73.12Z"/>
      <path class="cls-1" d="M283.64,424.3c0,.8-.37,1.48-1.1,2.02-.62.46-1.45.77-2.46.94-1.42.23-2.55,0-3.39-.69-.63-.52-1.01-1.2-1.15-2.07-.1-.6-.05-1.16.14-1.66.73-.28,1.1-.43,1.84-.71-.19.57-.24,1.14-.15,1.71.21,1.28,1.01,1.81,2.41,1.58.95-.16,1.53-.42,1.75-.79-.45.07-.67.11-1.12.18.28-.85.42-1.27.69-2.12.9-.15,1.35-.22,2.26-.37.13.78.19,1.17.32,1.95-.01,0-.02,0-.04,0ZM279.48,430.18c-.3.05-.56,0-.78-.17-.22-.16-.35-.39-.4-.69-.05-.3,0-.56.16-.77.16-.21.39-.34.69-.39.3-.05.56,0,.77.16.21.15.34.38.39.68.05.31,0,.57-.15.79-.15.22-.38.35-.68.4ZM281.67,429.82c-.3.05-.56,0-.78-.17-.22-.16-.35-.39-.4-.69-.05-.3,0-.56.16-.77.16-.21.39-.34.69-.39.3-.05.56,0,.77.16.21.15.34.38.39.68.05.31,0,.57-.15.79-.15.22-.38.35-.68.4Z"/>
      <path class="cls-1" d="M290.69,421.15c.41-.07.61-.1,1.02-.17.13.78.19,1.17.32,1.95-.41.07-.62.1-1.04.17-.62.1-1.13.12-1.53.04-.4-.07-.79-.24-1.17-.52-.93.76-2.02,1.24-3.29,1.45-.68.11-1.02.17-1.69.28-.13-.78-.19-1.17-.32-1.95.68-.11,1.02-.17,1.71-.28,1.21-.2,2.14-.67,2.79-1.42-.58-.62-1.17-.87-1.78-.77-.62.1-1.29.57-2.02,1.42-.11-.69-.17-1.03-.28-1.72.57-.92,1.31-1.45,2.23-1.6,0,0,.01,0,.02,0,.66-.11,1.34.03,2.03.4.7.37,1.35.95,1.96,1.74.04.27.07.41.11.68-.05.08-.12.21-.23.38.26.03.64,0,1.16-.08Z"/>
      <path class="cls-1" d="M295.64,420.34c.24-1.19.68-2.2,1.31-3,.69-.88,1.56-1.41,2.6-1.57,1-.16,1.85.06,2.56.65.6.5.98,1.18,1.12,2.02.01.09.02.13.04.22.13.78-.02,1.43-.44,1.94-.36.45-.87.73-1.54.84-2.18.36-3.28.53-5.46.89-.52.08-.99.04-1.41-.15-.36.31-.79.51-1.31.59-.53.09-.79.13-1.32.21-.13-.78-.19-1.17-.32-1.95.45-.07.68-.11,1.13-.18.21-.03.35-.09.41-.18.06-.09.07-.23.04-.44-.1-.6-.15-.91-.25-1.51.74-.56,1.1-.83,1.84-1.39.17,1.03.25,1.54.42,2.57.03.2.09.34.17.4.08.06.21.08.41.06ZM301.24,418.88s-.01-.07-.02-.12c-.06-.39-.22-.69-.46-.89-.25-.2-.54-.27-.88-.22-.49.08-.93.33-1.32.75-.39.42-.69.96-.88,1.61,1.3-.21,1.95-.32,3.24-.53.19-.03.31-.08.34-.14.03-.06.03-.21-.01-.47Z"/>
      <path class="cls-1" d="M308.04,421.24c-.13-.78-.19-1.16-.32-1.94.26-.23.55-.42.86-.58-.24-.39-.4-.82-.47-1.26-.16-.99.03-1.79.57-2.38.39-.43.91-.7,1.53-.8.73-.12,1.41.06,2.04.53.12.73.18,1.09.3,1.82-.75-.44-1.36-.62-1.82-.54,0,0-.02,0-.05,0-.48.1-.68.44-.59,1,.07.41.24.73.53.98.21-.05.31-.07.52-.12.82-.23,1.53-.61,2.12-1.15.11.73.17,1.09.28,1.82-.6.64-1.52,1.06-2.74,1.26-1.14.19-2.07.64-2.78,1.37Z"/>
      <path class="cls-1" d="M315.41,419.13c-.44-2.72-.66-4.07-1.11-6.79.73-.56,1.1-.84,1.84-1.4.51,3.15.77,4.72,1.28,7.86-.8.13-1.21.2-2.01.33Z"/>
      <path class="cls-1" d="M318.64,418.6c.28-.85.42-1.27.69-2.12.68-.11,1.02-.17,1.69-.28.24-.04.35-.18.31-.43-.11-.7-.58-1.2-1.38-1.5.28-.74.43-1.11.71-1.86,1.36.52,2.22,1.37,2.57,2.56.11.36.22.58.33.66.11.08.32.1.62.05.35-.06.53-.09.88-.14.13.78.19,1.17.32,1.95-.39.06-.58.09-.96.16-.55.09-1.06.05-1.52-.13-.28.3-.67.48-1.17.57-1.23.2-1.85.3-3.08.5ZM320.54,411.59c-.3.05-.56,0-.78-.17-.22-.16-.35-.39-.4-.69-.05-.3,0-.56.16-.77.16-.21.39-.34.69-.39.3-.05.56,0,.77.16.21.15.34.38.39.68.05.31,0,.57-.15.79s-.38.35-.68.4Z"/>
      <path class="cls-1" d="M331.5,414.5l.32,1.95c-2.67.44-4.01.65-6.68,1.09-.13-.78-.19-1.17-.32-1.95l1.37-.22c-.18-.31-.3-.67-.36-1.08-.14-.87.06-1.63.6-2.25.44-.51,1-.81,1.66-.92.91-.15,1.71.13,2.4.85.11.69.17,1.03.28,1.72-.74-.59-1.45-.83-2.13-.72-.02,0-.04,0-.06,0-.58.11-.83.46-.73,1.06.11.69.6.97,1.46.83.88-.14,1.32-.21,2.19-.36ZM327.97,410.38c-.3.05-.56,0-.78-.17-.22-.16-.35-.39-.4-.69s0-.56.16-.77c.16-.21.39-.34.69-.39.3-.05.56,0,.77.16.21.15.34.38.39.68.05.31,0,.57-.15.79-.15.22-.38.35-.68.4Z"/>
    </g>
    <g>
      <path class="cls-5" d="M128.14,371.59v-6.57c.61-.09,1.17-.14,1.68-.14,1.59,0,2.39.67,2.39,2.02,0,.87-.36,1.49-1.08,1.85l1.31,2.84h-.98l-1.18-2.6c-.09.01-.22.02-.39.02-.24,0-.5-.02-.78-.07v2.65h-.97ZM129.1,365.73v2.43c.28.05.54.07.78.07.87,0,1.31-.44,1.31-1.33,0-.83-.44-1.25-1.32-1.25-.32,0-.57.02-.77.07Z"/>
      <path class="cls-5" d="M129.95,373.75c-3.03,0-5.5-2.47-5.5-5.5s2.47-5.5,5.5-5.5,5.5,2.47,5.5,5.5-2.47,5.5-5.5,5.5ZM129.95,363.12c-2.83,0-5.12,2.3-5.12,5.12s2.3,5.13,5.12,5.13,5.12-2.3,5.12-5.13-2.3-5.12-5.12-5.12Z"/>
    </g>
  </g>
  <g>
    <path class="cls-12" d="M834.77,358.89c-1.02,3.23-5.04,14.71-19.3,25.58-25.78,19.65-53.76,13.54-98.09,18.39-69.98,7.66-90.89,32.81-125.42,15.93-5.35-2.63-20.26-10.18-27.73-26.82-7.32-16.32-4.87-35.77,4.09-50.07,2.81-4.49,6.17-8.12,9.58-11.06,6.76-5.83,13.73-8.89,17.08-10.31,27.83-11.83,49.82,2.02,60.99-10.84.33-.38.66-.81,1-1.29,1.99-2.82,3.93-7.4,3.74-15.05-.03-1.23-.11-2.53-.26-3.93.47.38,1.03.83,1.69,1.31,0,.01.01.03.03.03,7.29,5.53,25.63,17.53,47.48,14.33,15.64-2.29,28.6-11.7,38.32-19.64.18-.15.37-.3.54-.45,1.11-.91,2.17-1.8,3.2-2.66.18-.16.37-.31.54-.46,4.69-3.93,8.31-7.54,10.79-10.15,5.3.73,12.78,2.24,21.2,5.57,4.27,1.69,8.78,3.85,13.36,6.63,7.13,4.31,24.53,14.83,33.26,36.22,2.79,6.83,9.22,21.92,3.89,38.75Z"/>
    <path class="cls-10" d="M842.21,364.94c-11.52,54.66-113.19,73.23-122.11,74.75-57.86,9.95-145.11,3.2-162.64-39.94-5.38-13.23-6.48-35.47,4.31-52.7,4.64-7.4,10.67-12.61,16.13-16.21-3.42,2.94-6.78,6.57-9.58,11.06-8.96,14.3-11.41,33.75-4.09,50.07,7.47,16.64,22.38,24.19,27.73,26.82,34.52,16.89,55.44-8.27,125.42-15.93,44.34-4.85,72.31,1.26,98.09-18.39,14.26-10.87,18.28-22.35,19.3-25.58,5.33-16.83-1.1-31.92-3.89-38.75-8.73-21.39-26.13-31.91-33.26-36.22-4.58-2.78-9.09-4.93-13.36-6.63,5.84,1.97,12.27,4.76,18.85,8.73,7.51,4.54,25.82,15.61,35.01,38.13,6.25,15.3,6.19,30.84,4.09,40.78Z"/>
    <path class="cls-9" d="M649.53,304.32c-11.17,12.86-33.17-.99-60.99,10.84-4.54,1.92-18.41,7.82-26.66,21.37-3.08-27.39,13.89-53.85,41.27-61.81,18.16-5.29,36.83-1.25,50.87,9.33,1.22,11.52-1.88,17.25-4.49,20.26Z"/>
    <g>
      <path class="cls-1" d="M632.44,435.83c-.52-3.09-.78-4.64-1.3-7.74.74-.12,1.11-.19,1.85-.31.2,1.21.3,1.81.51,3.02,1.23-.21,1.85-.31,3.08-.52-.2-1.21-.3-1.81-.51-3.02.75-.13,1.13-.19,1.88-.32.52,3.09.78,4.64,1.3,7.74-.75.13-1.13.19-1.88.32-.22-1.29-.33-1.94-.54-3.23-1.23.21-1.85.31-3.08.52.22,1.29.33,1.94.54,3.23-.74.12-1.11.19-1.85.31Z"/>
      <path class="cls-1" d="M645.99,431.3c-1.5.25-2.25.38-3.75.63.07.27.24.5.51.67.27.17.55.23.84.19.03,0,.05,0,.09-.01.49-.08,1.01-.35,1.56-.79.24.35.35.53.59.88-.2.28-.52.54-.94.77-.42.24-.83.39-1.22.46-.97.16-1.77.03-2.39-.4-.6-.42-.97-1.08-1.13-1.99-.15-.87.02-1.65.52-2.31.45-.61,1.11-.99,1.95-1.13.9-.15,1.64.01,2.24.49.54.43.88,1.05,1.02,1.88.05.27.07.4.11.67ZM641.92,430.69c.82-.14,1.23-.21,2.05-.34-.15-.65-.55-.93-1.18-.82-.6.1-.89.49-.87,1.16Z"/>
      <path class="cls-1" d="M652.22,432.51c-.59.1-.89.15-1.48.25-.08-.19-.12-.29-.21-.48-.33.5-.82.8-1.44.91-1.23.21-1.95-.3-2.15-1.51-.1-.59.07-1.1.53-1.51.49-.44,1.27-.75,2.36-.94,0,0,0,0,.01,0,0,0,0,0,0-.01-.05-.3-.13-.49-.25-.57-.12-.08-.34-.09-.67-.03-.57.1-1.05.35-1.43.77-.22-.26-.45-.54-.69-.87.42-.43.81-.75,1.17-.94.36-.2.78-.34,1.28-.42.63-.11,1.16.04,1.59.42.43.38.71.96.84,1.73.22,1.28.32,1.92.54,3.2ZM649.95,430.31c-.39.07-.7.19-.92.38-.22.19-.32.4-.28.64,0,0,0,0,0,.01.09.36.27.52.55.49,0,0,.01,0,.02,0,.23-.04.41-.15.55-.34.14-.19.2-.39.17-.61-.04-.22-.06-.34-.09-.56Z"/>
      <path class="cls-1" d="M654.28,424.05c.53,3.15.79,4.73,1.32,7.88-.73.12-1.1.18-1.83.31-.47-2.77-.7-4.16-1.16-6.93.67-.5,1-.76,1.67-1.26Z"/>
      <path class="cls-1" d="M660.33,429.61c.3.33.45.49.75.82-.57.64-1.26,1.03-2.07,1.16-.53.09-.93.02-1.21-.19-.28-.22-.46-.62-.56-1.21-.18-1.06-.27-1.59-.45-2.65-.3.05-.45.08-.75.13-.1-.59-.15-.88-.25-1.47.3-.05.45-.08.76-.13-.06-.36-.09-.54-.15-.9.45-.34,1.01-.77,1.68-1.29.13.75.19,1.13.32,1.88.61-.1.92-.15,1.53-.26.1.59.15.88.25,1.47-.62.1-.92.16-1.54.26.16.95.24,1.43.4,2.38,0,.02,0,.05,0,.09,0,.02,0,.04.01.06.05.29.17.41.36.38.21-.04.51-.21.9-.53Z"/>
      <path class="cls-1" d="M661.16,423.94c.67-.53,1-.79,1.66-1.32.2,1.21.3,1.81.51,3.02,0-.09.08-.23.22-.4.14-.17.29-.31.44-.42.23-.16.45-.25.66-.29.73-.12,1.28-.02,1.65.31.38.33.64.94.79,1.83.22,1.3.33,1.94.54,3.24-.73.12-1.1.18-1.83.31-.21-1.27-.32-1.91-.53-3.18-.11-.66-.45-.94-1.02-.85-.38.06-.64.21-.76.43.26,1.55.39,2.32.65,3.87-.73.12-1.1.18-1.83.31-.46-2.75-.69-4.12-1.15-6.87Z"/>
      <path class="cls-1" d="M673.39,423.24c-.49,2.69-.74,4.04-1.23,6.73-.2,1.09-.66,1.69-1.38,1.81-.6.1-1.26-.06-1.98-.48.14-.35.25-.66.33-.94.35.16.65.22.9.18.13-.02.25-.14.35-.35.11-.22.17-.47.2-.77-.14.02-.21.03-.34.06-1.12-2.09-1.67-3.14-2.79-5.24.72-.12,1.08-.18,1.8-.3.47.98,1,2.06,1.61,3.25.29-1.46.43-2.18.72-3.64.72-.12,1.09-.18,1.81-.3Z"/>
      <path class="cls-1" d="M678.32,428.12c-.52-3.09-.78-4.64-1.3-7.74,2.11-.35,3.16-.53,5.27-.88.1.6.15.89.25,1.49-1.35.23-2.03.34-3.38.57.1.62.16.92.26,1.54,1.12-.19,1.69-.28,2.81-.47.1.6.15.89.25,1.49-1.12.19-1.69.28-2.81.47.22,1.29.32,1.93.54,3.21-.75.13-1.13.19-1.88.32Z"/>
      <path class="cls-1" d="M685.87,421c.93-.16,1.7.04,2.33.6.51.46.83,1.08.97,1.86.15.91-.05,1.71-.62,2.39-.45.55-1.02.88-1.71.99-.78.13-1.5-.05-2.17-.55-.61-.46-.97-1.09-1.11-1.89-.15-.9,0-1.68.45-2.31.42-.59,1.04-.95,1.85-1.09ZM685.42,424.09c.18,1.04.58,1.51,1.22,1.4.62-.1.84-.68.67-1.72-.19-1.11-.59-1.61-1.22-1.5-.63.11-.85.71-.66,1.82Z"/>
      <path class="cls-1" d="M692.31,419.91c.93-.16,1.7.04,2.33.6.51.46.83,1.08.97,1.86.15.91-.05,1.71-.62,2.39-.45.55-1.02.88-1.71.99-.78.13-1.5-.05-2.17-.55-.61-.46-.97-1.09-1.11-1.89-.15-.9,0-1.68.45-2.31.42-.59,1.04-.95,1.85-1.09ZM691.87,423.01c.18,1.04.58,1.51,1.22,1.4.62-.1.84-.68.67-1.72-.19-1.11-.59-1.61-1.22-1.5-.63.11-.85.71-.66,1.82Z"/>
      <path class="cls-1" d="M699.98,419.03c-.1-.62-.16-.92-.26-1.54.67-.53,1-.79,1.66-1.32.53,3.14.79,4.72,1.32,7.86-.59.1-.89.15-1.48.25-.14-.22-.21-.33-.36-.54-.08.22-.25.43-.51.62-.26.19-.54.31-.84.36-.9.15-1.62-.02-2.17-.51-.44-.4-.73-.98-.86-1.73-.19-1.11-.01-2.01.53-2.69.4-.5.92-.81,1.54-.91.54-.09,1.01-.04,1.42.16ZM700.28,420.84c-.23-.6-.59-.86-1.1-.77-.37.06-.63.25-.78.58-.16.32-.19.74-.1,1.26.18,1.1.59,1.6,1.22,1.49.39-.07.67-.31.84-.73.11-.26.15-.48.12-.66-.08-.46-.12-.7-.2-1.16Z"/>
      <path class="cls-1" d="M706.26,419.24c-.1-.59-.15-.89-.25-1.48.36-.06.54-.09.89-.15-.05-.28-.07-.43-.12-.71-.1-.57-.04-1,.16-1.3.2-.3.57-.49,1.11-.58.74-.12,1.46.01,2.17.42-.21.43-.31.64-.52,1.07-.4-.18-.67-.26-.82-.24-.2.03-.28.22-.22.55.03.2.05.29.08.49.62-.1.92-.16,1.54-.26.1.59.15.89.25,1.48-.62.1-.92.16-1.54.26.27,1.63.41,2.44.68,4.07-.73.12-1.1.18-1.83.31-.27-1.63-.41-2.44-.68-4.07-.36.06-.54.09-.89.15Z"/>
      <path class="cls-1" d="M713.46,416.36c.93-.16,1.7.04,2.33.6.51.46.83,1.08.97,1.86.15.91-.05,1.71-.62,2.39-.45.55-1.02.88-1.71.99-.78.13-1.5-.05-2.17-.55-.61-.46-.97-1.09-1.11-1.89-.15-.9,0-1.68.45-2.31.42-.59,1.04-.95,1.85-1.09ZM713.01,419.45c.18,1.04.58,1.51,1.22,1.4.62-.1.84-.68.67-1.72-.19-1.11-.59-1.61-1.22-1.5-.63.11-.85.71-.66,1.82Z"/>
      <path class="cls-1" d="M719.04,415.58c.09.16.14.24.23.4.02-.14.14-.29.35-.45.22-.17.42-.27.63-.3.78-.13,1.44.17,1.96.91-.57.43-.85.64-1.42,1.07-.29-.29-.58-.42-.85-.37-.22.04-.34.17-.37.4.26,1.54.39,2.31.65,3.85-.72.12-1.08.18-1.8.3-.37-2.22-.56-3.33-.93-5.55.62-.1.93-.16,1.55-.26Z"/>
      <path class="cls-1" d="M731.52,419.18c-.59.1-.89.15-1.48.25-.08-.19-.12-.29-.21-.48-.33.5-.82.8-1.44.91-1.23.21-1.95-.3-2.15-1.51-.1-.59.07-1.1.53-1.51.49-.44,1.27-.75,2.36-.94,0,0,0,0,.01,0,0,0,0,0,0-.01-.05-.3-.13-.49-.25-.57-.12-.08-.34-.09-.67-.03-.57.1-1.05.35-1.43.77-.22-.26-.45-.54-.69-.87.42-.43.81-.75,1.17-.94.36-.2.78-.34,1.28-.42.63-.11,1.16.04,1.59.42.43.38.71.96.84,1.73.22,1.28.32,1.92.54,3.2ZM729.26,416.99c-.39.07-.7.19-.92.38-.22.19-.32.4-.28.64,0,0,0,0,0,.01.09.36.27.52.55.49,0,0,.01,0,.02,0,.23-.04.41-.15.55-.34.14-.19.2-.39.17-.61-.04-.22-.06-.34-.09-.56Z"/>
      <path class="cls-1" d="M736.31,418.37c-.52-3.08-.78-4.63-1.3-7.71.58-.21,1.35-.39,2.32-.55,1.05-.18,1.88-.06,2.48.35.47.32.76.81.87,1.45.06.36-.05.72-.32,1.08-.27.36-.6.57-.96.63-.02,0-.05,0-.09.01,0,0,0,0,0,.01.56-.04,1.04.09,1.42.38.38.29.62.71.71,1.26.13.78-.11,1.43-.71,1.96-.53.45-1.29.77-2.29.94-.85.14-1.56.21-2.14.2ZM737.13,411.73c.1.6.15.9.25,1.5.3-.05.45-.08.76-.13.31-.05.52-.15.63-.28s.14-.34.09-.62c-.09-.54-.49-.75-1.19-.63-.19.03-.37.08-.54.15ZM737.64,414.73c.13.76.19,1.14.32,1.91.22.06.45.06.68.02.68-.11.98-.47.88-1.06-.13-.77-.54-1.09-1.23-.97-.26.04-.39.07-.65.11Z"/>
      <path class="cls-1" d="M748.07,414.15c-1.5.25-2.25.38-3.75.63.07.27.24.5.51.67.27.17.55.23.84.19.03,0,.05,0,.09-.01.49-.08,1.01-.35,1.56-.79.24.35.35.53.59.88-.2.28-.52.54-.94.77-.42.24-.83.39-1.22.46-.97.16-1.77.03-2.39-.4-.6-.42-.97-1.08-1.13-1.99-.15-.87.02-1.65.52-2.31.45-.61,1.11-.99,1.95-1.13.9-.15,1.64.01,2.24.49.54.43.88,1.05,1.02,1.88.05.27.07.4.11.67ZM744,413.54c.82-.14,1.23-.21,2.05-.34-.15-.65-.55-.93-1.18-.82-.6.1-.89.49-.87,1.16Z"/>
      <path class="cls-1" d="M752.81,414.08c.3.33.45.49.75.82-.57.64-1.26,1.03-2.07,1.16-.53.09-.93.02-1.21-.19-.28-.22-.46-.62-.56-1.21-.18-1.06-.27-1.59-.45-2.65-.3.05-.45.08-.75.13-.1-.59-.15-.88-.25-1.47.3-.05.45-.08.76-.13-.06-.36-.09-.54-.15-.9.45-.34,1.01-.77,1.68-1.29.13.75.19,1.13.32,1.88.61-.1.92-.15,1.53-.26.1.59.15.88.25,1.47-.62.1-.92.16-1.54.26.16.95.24,1.43.4,2.38,0,.02,0,.05,0,.09,0,.02,0,.04.01.06.05.29.17.41.36.38.21-.04.51-.21.9-.53Z"/>
      <path class="cls-1" d="M757.94,413.21c.3.33.45.49.75.82-.57.64-1.26,1.03-2.07,1.16-.53.09-.93.02-1.21-.19-.28-.22-.46-.62-.56-1.21-.18-1.06-.27-1.59-.45-2.65-.3.05-.45.08-.75.13-.1-.59-.15-.88-.25-1.47.3-.05.45-.08.76-.13-.06-.36-.09-.54-.15-.9.45-.34,1.01-.77,1.68-1.29.13.75.19,1.13.32,1.88.61-.1.92-.15,1.53-.26.1.59.15.88.25,1.47-.62.1-.92.16-1.54.26.16.95.24,1.43.4,2.38,0,.02,0,.05,0,.09,0,.02,0,.04.01.06.05.29.17.41.36.38.21-.04.51-.21.9-.53Z"/>
      <path class="cls-1" d="M764.82,411.34c-1.5.25-2.25.38-3.75.63.07.27.24.5.51.67.27.17.55.23.84.19.03,0,.05,0,.09-.01.49-.08,1.01-.35,1.56-.79.24.35.35.53.59.88-.2.28-.52.54-.94.77-.42.24-.83.39-1.22.46-.97.16-1.77.03-2.39-.4-.6-.42-.97-1.08-1.13-1.99-.15-.87.02-1.65.52-2.31.45-.61,1.11-.99,1.95-1.13.9-.15,1.64.01,2.24.49.54.43.88,1.05,1.02,1.88.05.27.07.4.11.67ZM760.74,410.73c.82-.14,1.23-.21,2.05-.34-.15-.65-.55-.93-1.18-.82-.6.1-.89.49-.87,1.16Z"/>
      <path class="cls-1" d="M767.03,407.52c.09.16.14.24.23.4.02-.14.14-.29.35-.45.22-.17.42-.27.63-.3.78-.13,1.44.17,1.96.91-.57.43-.85.64-1.42,1.07-.29-.29-.58-.42-.85-.37-.22.04-.34.17-.37.4.26,1.54.39,2.31.65,3.85-.72.12-1.08.18-1.8.3-.37-2.22-.56-3.33-.93-5.55.62-.1.93-.16,1.55-.26Z"/>
      <path class="cls-1" d="M775.02,411.88c-.52-3.09-.78-4.64-1.3-7.74.75-.13,1.13-.19,1.88-.32.42,2.5.63,3.75,1.05,6.25,1.13-.19,1.7-.29,2.84-.48.1.6.15.89.25,1.49-1.89.32-2.83.48-4.72.79Z"/>
      <path class="cls-1" d="M779.78,403.76s0-.01,0-.02c-.05-.3,0-.58.18-.83.17-.25.4-.4.69-.45.31-.05.59.01.84.19.25.18.4.42.45.73,0,0,0,.01,0,.02.11.68-.23,1.15-.93,1.26-.66.1-1.12-.23-1.23-.9ZM782.07,404.99c.37,2.22.56,3.33.93,5.55-.74.12-1.11.19-1.86.31-.37-2.22-.56-3.33-.93-5.55.74-.12,1.11-.19,1.86-.31Z"/>
      <path class="cls-1" d="M783.53,406.26c-.1-.59-.15-.89-.25-1.48.36-.06.54-.09.89-.15-.05-.28-.07-.43-.12-.71-.1-.57-.04-1,.16-1.3.2-.3.57-.49,1.11-.58.74-.12,1.46.01,2.17.41-.21.43-.31.64-.52,1.07-.4-.18-.67-.26-.82-.24-.2.03-.28.22-.22.55.03.2.05.29.08.49.62-.1.92-.16,1.54-.26.1.59.15.89.25,1.48-.62.1-.92.16-1.54.26.27,1.63.41,2.44.68,4.07-.73.12-1.1.18-1.83.31-.27-1.63-.41-2.44-.68-4.07-.36.06-.54.09-.89.15Z"/>
      <path class="cls-1" d="M794.26,406.4l-3.75.63c.07.27.24.5.51.67.27.17.55.23.84.19.03,0,.05,0,.09-.01.49-.08,1.01-.35,1.56-.79.24.35.35.53.59.88-.2.28-.52.54-.94.77-.42.24-.83.39-1.22.46-.97.16-1.77.03-2.39-.4-.6-.42-.97-1.08-1.13-1.99-.15-.87.02-1.65.52-2.31.45-.61,1.11-.99,1.95-1.13.9-.15,1.64.01,2.24.49.54.43.88,1.05,1.02,1.88.05.27.07.4.11.67ZM790.19,405.79c.82-.14,1.23-.21,2.05-.34-.15-.65-.55-.93-1.18-.82-.6.1-.89.49-.87,1.16Z"/>
    </g>
    <path class="cls-13" d="M770.3,338.22l-2.12-2.72h.02c11.45,14.78,23.43,29.13,35.86,43.08h-.02c-11.66-13.11-22.93-26.55-33.74-40.36h0Z"/>
    <g>
      <polygon class="cls-5" points="652.63 403.51 652.6 330.01 652.62 330.02 652.65 403.52 652.63 403.51 652.63 403.51"/>
      <polygon class="cls-5" points="652.6 330.01 698.98 323.44 699 323.45 652.62 330.02 652.6 330.01 652.6 330.01"/>
      <polygon class="cls-5" points="698.98 323.44 698.98 337.6 699 337.61 699 323.45 698.98 323.44 698.98 323.44"/>
      <polygon class="cls-5" points="698.98 337.6 669.18 341.83 669.2 341.84 699 337.61 698.98 337.6 698.98 337.6"/>
      <polygon class="cls-5" points="669.18 341.83 669.19 356.35 669.21 356.36 669.2 341.84 669.18 341.83 669.18 341.83"/>
      <polygon class="cls-5" points="669.19 356.35 693.92 352.83 693.95 352.84 669.21 356.36 669.19 356.35 669.19 356.35"/>
      <polygon class="cls-5" points="693.92 352.83 693.92 366.99 693.94 367 693.95 352.84 693.92 352.83 693.92 352.83"/>
      <polygon class="cls-5" points="693.92 366.99 669.19 370.51 669.21 370.52 693.94 367 693.92 366.99 693.92 366.99"/>
      <polygon class="cls-5" points="669.19 370.51 669.19 386.99 669.21 387 669.21 370.52 669.19 370.51 669.19 370.51"/>
      <polygon class="cls-5" points="669.19 386.99 700.37 382.54 700.39 382.55 669.21 387 669.19 386.99 669.19 386.99"/>
      <polygon class="cls-5" points="700.37 396.68 652.63 403.51 652.65 403.52 700.39 396.69 700.37 396.68 700.37 396.68"/>
      <polygon class="cls-5" points="700.37 382.54 700.37 396.68 700.39 396.69 700.39 382.55 700.37 382.54 700.37 382.54"/>
      <path class="cls-5" d="M700.39,382.55v14.14s-47.74,6.83-47.74,6.83l-.03-73.5,46.38-6.57v14.16s-29.8,4.23-29.8,4.23v14.52s24.74-3.52,24.74-3.52v14.16s-24.73,3.52-24.73,3.52v16.48c10.4-1.48,20.79-2.97,31.18-4.45Z"/>
      <path class="cls-5" d="M700.37,396.68v-14.14s-31.18,4.45-31.18,4.45v-16.48s24.73-3.52,24.73-3.52v-14.16s-24.74,3.52-24.74,3.52v-14.52s29.79-4.23,29.79-4.23v-14.16s-46.38,6.57-46.38,6.57l.03,73.5c15.91-2.28,31.83-4.55,47.74-6.83Z"/>
    </g>
    <path class="cls-5" d="M808.63,381.2c-4.64.66-9.27,1.32-13.92,1.99-11.68-13.12-22.94-26.6-33.69-40.47l-.04,45.29-16.19,2.32.05-73.37,13.52-1.91c5.68,6.97,11.39,13.94,17.04,20.95,5.73,7.08,11.3,14.16,16.77,21.18,1.68-3.43,3.92-9.06,4.4-16.27-.51-5.56-2.47-18.1-11.95-29.63-16.49-20.05-41.7-19.92-45.18-19.85,1.28-.95,2.57-1.91,3.85-2.86.98-.78,1.97-1.55,2.95-2.33,1.86.02,39.78.99,58.84,33.67,16.8,28.8,4.89,58.11,3.53,61.29Z"/>
    <g>
      <polygon class="cls-5" points="592.92 399.74 623.18 348.36 623.2 348.37 592.94 399.75 592.95 412.06 592.93 412.05 592.92 399.74 592.92 399.74"/>
      <polygon class="cls-5" points="623.18 348.36 593.84 352.52 593.86 352.53 623.2 348.37 623.18 348.36 623.18 348.36"/>
      <polygon class="cls-5" points="593.84 352.52 593.82 338.33 593.84 338.34 593.86 352.53 593.84 352.52 593.84 352.52"/>
      <polygon class="cls-5" points="593.82 338.33 642.79 331.39 642.81 331.4 593.84 338.34 593.82 338.33 593.82 338.33"/>
      <polygon class="cls-5" points="642.8 346.04 614.38 394.81 614.4 394.82 642.82 346.05 642.81 331.4 642.79 331.39 642.8 346.04 642.8 346.04"/>
      <polygon class="cls-5" points="614.38 394.81 643.58 390.64 643.6 390.66 614.4 394.82 614.38 394.81 614.38 394.81"/>
      <polygon class="cls-5" points="643.59 404.8 592.93 412.05 592.95 412.06 643.61 404.81 643.59 404.8 643.59 404.8"/>
      <polygon class="cls-5" points="643.58 390.64 643.59 404.8 643.61 404.81 643.6 390.66 643.58 390.64 643.58 390.64"/>
      <path class="cls-5" d="M643.6,390.66v14.16s-50.65,7.25-50.65,7.25v-12.31s30.25-51.38,30.25-51.38l-29.35,4.16-.02-14.19,48.97-6.93v14.64s-28.41,48.78-28.41,48.78l29.2-4.17Z"/>
      <path class="cls-5" d="M643.59,404.8v-14.16s-29.21,4.17-29.21,4.17l28.42-48.78v-14.64s-48.98,6.93-48.98,6.93l.02,14.19,29.35-4.16-30.26,51.38v12.31c16.9-2.42,33.78-4.83,50.67-7.25Z"/>
    </g>
    <g>
      <polygon class="cls-5" points="712.72 394.91 712.73 342.27 712.75 342.28 712.74 394.93 712.72 394.91 712.72 394.91"/>
      <polygon class="cls-5" points="712.73 342.27 729.06 339.95 729.08 339.96 712.75 342.28 712.73 342.27 712.73 342.27"/>
      <polygon class="cls-5" points="729.03 392.58 712.72 394.91 712.74 394.93 729.06 392.59 729.03 392.58 729.03 392.58"/>
      <polygon class="cls-5" points="729.06 339.95 729.03 392.58 729.06 392.59 729.08 339.96 729.06 339.95 729.06 339.95"/>
      <path class="cls-5" d="M729.08,339.96l-.02,52.63-16.31,2.33v-52.65c5.45-.77,10.9-1.55,16.34-2.32Z"/>
      <path class="cls-5" d="M729.03,392.58l.02-52.63-16.32,2.32v52.65c5.43-.78,10.86-1.56,16.3-2.33Z"/>
    </g>
    <path class="cls-11" d="M641.46,261.16c-3.27-5.72-6.53-11.44-9.8-17.16,3.85-1.76,9.32-3.9,16.1-5.43,6.25-1.41,26.48-5.91,46.82,2.77,29.59,12.63,38.73,41.37,39.99,45.58-4.67,3.14-21.38,13.51-43.55,10.66-32.91-4.23-48.26-33.8-49.56-36.41h0Z"/>
    <path class="cls-3" d="M748.25,245.5c2.39-1.35,4.78-2.7,7.17-4.05.72,1.61,1.61,3.89,2.24,6.71.58,2.61,2.42,11.04-1.23,19.5-5.31,12.31-17.3,16.06-19.06,16.58-1.3-1.95-5.59-8.93-4.36-18.16,1.82-13.7,14.16-20.05,15.25-20.58h0Z"/>
    <g>
      <path class="cls-5" d="M823.37,338.21v-6.57c.61-.09,1.17-.14,1.68-.14,1.59,0,2.39.67,2.39,2.02,0,.87-.36,1.49-1.08,1.85l1.31,2.84h-.98l-1.18-2.6c-.09.01-.22.02-.39.02-.24,0-.5-.02-.78-.07v2.65h-.97ZM824.34,332.35v2.43c.28.05.54.07.78.07.87,0,1.31-.44,1.31-1.33,0-.83-.44-1.25-1.32-1.25-.32,0-.57.02-.77.07Z"/>
      <path class="cls-5" d="M825.19,340.37c-3.03,0-5.5-2.47-5.5-5.5s2.47-5.5,5.5-5.5,5.5,2.47,5.5,5.5-2.47,5.5-5.5,5.5ZM825.19,329.74c-2.83,0-5.12,2.3-5.12,5.12s2.3,5.13,5.12,5.13,5.12-2.3,5.12-5.13-2.3-5.12-5.12-5.12Z"/>
    </g>
    <g>
      <path class="cls-5" d="M729.99,324.82c-.21-8.69-11.94-9.19-16.43-2.57s.96,16.12,10.02,12.73c4.47-1.67,6.8-5.98,6.41-10.16h0Z"/>
      <path class="cls-5" d="M729.94,324.56c.81,7.04-8.41,15.15-15.45,9.35-6.27-5.17-.81-16.46,7.66-16.35,4.55.06,7.6,2.86,7.79,7h0Z"/>
      <path class="cls-5" d="M729.97,324.57c.81,7.04-8.41,15.15-15.45,9.35-6.27-5.17-.81-16.46,7.66-16.35,4.55.06,7.6,2.86,7.79,7h0Z"/>
      <path class="cls-5" d="M729.97,324.81c-.21-8.69-11.94-9.19-16.43-2.57-4.51,6.64.96,16.12,10.02,12.73,4.47-1.67,6.8-5.98,6.41-10.16h0Z"/>
    </g>
  </g>
</svg>