<?xml version="1.0" encoding="UTF-8"?>
<svg id="Layer_1" data-name="Layer 1" xmlns="http://www.w3.org/2000/svg" xmlns:xlink="http://www.w3.org/1999/xlink" viewBox="0 0 640.96 640.96">
  <defs>
    <style>
      .cls-1 {
        fill: #306a45;
      }

      .cls-2 {
        fill: url(#linear-gradient-2);
      }

      .cls-3 {
        fill: #fff;
      }

      .cls-4 {
        fill: url(#linear-gradient-4);
      }

      .cls-5 {
        fill: url(#linear-gradient-3);
      }

      .cls-6 {
        fill: url(#linear-gradient-5);
      }

      .cls-7 {
        fill: url(#linear-gradient);
      }
    </style>
    <linearGradient id="linear-gradient" x1="75.1" y1="341.12" x2="569.92" y2="341.12" gradientUnits="userSpaceOnUse">
      <stop offset="0" stop-color="#67c18a"/>
      <stop offset=".2" stop-color="#049d4f"/>
      <stop offset=".66" stop-color="$theme-color"/>
    </linearGradient>
    <linearGradient id="linear-gradient-2" x1="-3756.97" y1="1021.43" x2="-3236.29" y2="1021.43" gradientTransform="translate(-3312.78 568.92) rotate(160.34) scale(1 -1)" gradientUnits="userSpaceOnUse">
      <stop offset=".2" stop-color="#f4d50e"/>
      <stop offset=".51" stop-color="#fee700"/>
      <stop offset=".75" stop-color="#f7db08"/>
      <stop offset="1" stop-color="#f4d50e"/>
    </linearGradient>
    <linearGradient id="linear-gradient-3" x1="-3746.47" y1="925.41" x2="-3574.2" y2="910.77" xlink:href="#linear-gradient-2"/>
    <linearGradient id="linear-gradient-4" x1="-3616.61" y1="853.7" x2="-3431.85" y2="853.7" gradientTransform="translate(-3312.78 568.92) rotate(160.34) scale(1 -1)" xlink:href="#linear-gradient"/>
    <linearGradient id="linear-gradient-5" x1="-3435.08" y1="846.09" x2="-3388.66" y2="846.09" gradientTransform="translate(-3312.78 568.92) rotate(160.34) scale(1 -1)" xlink:href="#linear-gradient"/>
  </defs>
  <path class="cls-7" d="M569.66,326.34c-2.56,32.65-23.2,54.43-30.67,62.12-48.17,49.41-98.74,19.51-221.67,48.83-77.9,18.59-121.51,45.83-176.98,28.16-30.67-9.76-44.4-26.73-48.08-31.57-19.17-25.26-17.43-54.65-16.85-67.87,1.86-41.45,24.92-69.73,34.37-81.33,6.07-7.47,12.4-13.85,18.59-19.29,12.23-10.71,23.95-17.79,32.49-22.21,5.78,2.92,14.07,6.82,24.36,10.64.39.15.8.29,1.21.46,2.25.82,4.57,1.69,7.01,2.56.39.15.8.27,1.18.41.75.27,1.5.53,2.27.8,3.43,1.21,7.01,2.39,10.71,3.53,18.93,5.85,41.21,10.25,63.67,5.75,38.89-7.81,62.65-39.16,71.64-52.91,0-.02.02-.05.02-.07.82-1.23,1.5-2.32,2.05-3.24.6,2.44,1.26,4.69,1.96,6.79,4.28,13.05,10.35,19.63,15.4,23.18.87.6,1.69,1.14,2.49,1.57,26.66,15.01,55.47-21.71,109.66-18.51,6.53.39,20.16,1.35,35.12,7.13,7.54,2.9,15.42,7.01,22.89,12.91,23.78,18.76,39.66,50.18,37.15,82.18Z"/>
  <path class="cls-2" d="M83.33,448.58c52.5,85.46,235.62,55.44,251.62,52.62,103.84-18.14,247.28-82.26,250.85-165.79,1.11-25.62-10.47-63.89-39.12-86.5-12.31-9.71-25.65-14.87-37.07-17.66,7.55,2.91,15.43,7.02,22.88,12.91,23.79,18.77,39.69,50.17,37.17,82.18-2.57,32.65-23.22,54.43-30.68,62.11-48.17,49.41-98.73,19.51-221.67,48.84-77.89,18.58-121.5,45.82-176.96,28.16-30.68-9.77-44.42-26.74-48.09-31.58-19.18-25.25-17.43-54.63-16.83-67.87,1.84-41.44,24.91-69.73,34.36-81.33,6.07-7.47,12.4-13.84,18.59-19.28-8.69,6.85-17.87,15.45-26.6,26.15-9.95,12.21-34.22,42-36.16,85.62-1.32,29.65,8.16,55.88,17.72,71.43Z"/>
  <path class="cls-5" d="M372.5,229.69c26.65,15,55.48-21.71,109.68-18.51,8.84.51,35.85,2.1,57.99,20.03-11.35-48.17-56.02-82.66-107.12-79.57-33.9,2.03-63.02,20.14-80.37,46.5,4.9,20.22,13.61,28.04,19.83,31.55Z"/>
  <path class="cls-4" d="M360.06,151.83c2.06-11.64,4.13-23.29,6.2-34.93-7.57-.64-18.11-.97-30.5.54-11.43,1.39-48.35,6-77.48,32.96-42.39,39.23-40.49,93.34-40.08,101.23,9.8,2.48,44.31,9.93,80.07-8.29,53.09-27.04,61.18-86.3,61.8-91.5h0Z"/>
  <path class="cls-6" d="M170.06,189.87c-4.85-.84-9.71-1.68-14.56-2.52-.25,3.15-.37,7.55.28,12.7.6,4.76,2.58,20.13,13.87,32.22,16.42,17.59,38.96,16.71,42.24,16.52,1.02-4.09,4.06-18.48-3.59-33.34-11.36-22.07-36.06-25.34-38.23-25.59h0Z"/>
  <path class="cls-3" d="M434.54,324.62c-2.47,14.77-10.93,27.75-12.64,30.48-.42.68-1.26,2.04-2.45,3.65,0,0-9,12.25-27.09,19.77-14.37,5.97-69.51,18.83-145.58,29.95-2.42,5.66-14.79,33.09-44.79,43.73-18.27,6.48-33.74,3.41-36.86,2.73-22.36-4.81-39.91-21-47.64-39.62-5.8-13.95-4.88-26.37-4.5-31.59,3.84-52.38,68.31-111.93,83.9-125.69,3.43,1.21,7.01,2.39,10.71,3.53-44.86,52.98-70.12,99.03-68.94,119.77.8,14.02,7.23,23.45,7.23,23.45,7.54,11.09,18.54,15.06,21.39,15.98,2.71.89,17.38,5.41,32.44-2.54,15.49-8.19,20.13-23.64,21.42-29.22,5.78-25.52-13.73-45.18-15.06-46.48,10.1-8.73,20.23-17.43,30.33-26.13,7.81,17.43,12.14,30.81,14.72,40.58,1.11,4.21,2.76,10.98,8.56,14.86,6.08,4.08,13.48,2.73,17.16,2.2,14.99-2.15,49.6-9.14,94.97-19.87,2.15-.56,5.17-1.6,8.44-3.48,10.47-6.09,14.72-16.07,16.03-19.68,5.56-15.32-.97-28.91-2.22-31.4,10.27-9.4,20.55-18.83,30.79-28.23,3.38,5.9,14.19,26.44,9.69,53.25Z"/>
  <path class="cls-3" d="M535.76,308.76c-3.77,36.43-35.6,69.08-81.21,82.76v-31.81c26.01-10.66,43.22-29.44,44.35-49.45.27-4.88-.29-12.01-4.4-20.59,10.27-9.43,20.55-18.83,30.79-28.23,6.48,11.94,12.4,28.47,10.47,47.33Z"/>
  <g>
    <path class="cls-3" d="M197.75,369.2c-.37-15.6-21.43-16.49-29.5-4.62-8.1,11.92,1.73,28.95,17.99,22.86,8.02-3,12.21-10.74,11.51-18.24h0Z"/>
    <path class="cls-3" d="M197.66,368.73c1.46,12.65-15.1,27.21-27.74,16.78-11.25-9.28-1.45-29.55,13.75-29.35,8.16.11,13.65,5.13,13.99,12.57h0Z"/>
    <path class="cls-3" d="M197.71,368.75c1.46,12.65-15.1,27.21-27.74,16.78-11.25-9.28-1.45-29.55,13.75-29.35,8.16.11,13.65,5.13,13.99,12.57h0Z"/>
    <path class="cls-3" d="M197.7,369.18c-.37-15.6-21.43-16.49-29.5-4.62-8.1,11.92,1.73,28.95,17.99,22.86,8.02-3,12.21-10.74,11.51-18.24h0Z"/>
  </g>
  <g>
    <path class="cls-3" d="M391.3,404.17c-.37-15.6-21.43-16.49-29.5-4.62-8.1,11.92,1.73,28.95,17.99,22.86,8.02-3,12.21-10.74,11.51-18.24h0Z"/>
    <path class="cls-3" d="M391.22,403.7c1.46,12.65-15.1,27.21-27.74,16.78-11.25-9.28-1.45-29.55,13.75-29.35,8.16.11,13.65,5.13,13.99,12.57h0Z"/>
    <path class="cls-3" d="M391.26,403.72c1.46,12.65-15.1,27.21-27.74,16.78-11.25-9.28-1.45-29.55,13.75-29.35,8.16.11,13.65,5.13,13.99,12.57h0Z"/>
    <path class="cls-3" d="M391.26,404.15c-.37-15.6-21.43-16.49-29.5-4.62-8.1,11.92,1.73,28.95,17.99,22.86,8.02-3,12.21-10.74,11.51-18.24h0Z"/>
  </g>
  <g>
    <path class="cls-3" d="M508.26,251.81c-.37-15.6-21.43-16.49-29.5-4.62-8.1,11.92,1.73,28.95,17.99,22.86,8.02-3,12.21-10.74,11.51-18.24h0Z"/>
    <path class="cls-3" d="M508.17,251.34c1.46,12.65-15.1,27.21-27.74,16.78-11.25-9.28-1.45-29.55,13.75-29.35,8.16.11,13.65,5.13,13.99,12.57h0Z"/>
    <path class="cls-3" d="M508.22,251.36c1.46,12.65-15.1,27.21-27.74,16.78-11.25-9.28-1.45-29.55,13.75-29.35,8.16.11,13.65,5.13,13.99,12.57h0Z"/>
    <path class="cls-3" d="M508.21,251.79c-.37-15.6-21.43-16.49-29.5-4.62-8.1,11.92,1.73,28.95,17.99,22.86,8.02-3,12.21-10.74,11.51-18.24h0Z"/>
  </g>
  <g>
    <path class="cls-3" d="M435.71,388.09c-.37-15.6-21.43-16.49-29.5-4.62-8.1,11.92,1.73,28.95,17.99,22.86,8.02-3,12.21-10.74,11.51-18.24h0Z"/>
    <path class="cls-3" d="M435.62,387.62c1.46,12.65-15.1,27.21-27.74,16.78-11.25-9.28-1.45-29.55,13.75-29.35,8.16.11,13.65,5.13,13.99,12.57h0Z"/>
    <path class="cls-3" d="M435.67,387.64c1.46,12.65-15.1,27.21-27.74,16.78-11.25-9.28-1.45-29.55,13.75-29.35,8.16.11,13.65,5.13,13.99,12.57h0Z"/>
    <path class="cls-3" d="M435.66,388.08c-.37-15.6-21.43-16.49-29.5-4.62-8.1,11.92,1.73,28.95,17.99,22.86,8.02-3,12.21-10.74,11.51-18.24h0Z"/>
  </g>
  <g>
    <path class="cls-1" d="M241.34,481.03c.98-.16,1.47-.24,2.45-.4.23,1.4.34,2.1.57,3.5-.95.15-1.42.23-2.36.39-.45.07-.92.09-1.41.05-.2,1.47-.84,2.72-1.93,3.71-.97.88-2.19,1.44-3.64,1.67-2.2.36-4.02-.08-5.45-1.29-1.09-.93-1.76-2.13-2-3.61-.18-1.08-.11-2.08.21-3,1.37-.56,2.06-.84,3.44-1.39-.38.98-.47,2.06-.28,3.26.16.96.54,1.66,1.15,2.1.61.44,1.4.58,2.36.42.92-.15,1.6-.53,2.05-1.13.45-.6.6-1.36.45-2.26-.65-3.98-.97-5.98-1.62-9.96,1.32-1.01,1.98-1.51,3.3-2.51.63,3.86.94,5.79,1.57,9.65,0,.06.02.09.02.11.05.32.16.53.32.63.16.1.43.12.81.06Z"/>
    <path class="cls-1" d="M265.61,477.07c.81-.13,1.22-.2,2.04-.33.23,1.4.34,2.1.57,3.5-.95.15-1.42.23-2.36.39-.96.16-1.81.07-2.54-.26-.6.55-1.38.9-2.34,1.06-3.92.64-5.88.96-9.81,1.6-.93.15-1.78.07-2.54-.26-.64.56-1.43.91-2.35,1.06-.95.15-1.42.23-2.36.39-.23-1.4-.34-2.1-.57-3.5.81-.13,1.22-.2,2.04-.33.38-.06.62-.17.73-.32.11-.15.13-.42.07-.8-.18-1.09-.27-1.63-.44-2.71,1.32-1,1.98-1.5,3.3-2.49.3,1.85.45,2.77.75,4.62.06.36.16.6.3.72s.38.15.74.1c.43-2.14,1.21-3.94,2.36-5.39,1.25-1.58,2.81-2.53,4.66-2.83,1.8-.29,3.33.11,4.59,1.16,1.08.9,1.76,2.11,2.01,3.63.03.16.04.24.06.39.09.53.45.74,1.09.63ZM260.29,477.94c.35-.06.55-.14.61-.25.06-.11.05-.39-.02-.84-.01-.09-.02-.13-.04-.22-.11-.7-.39-1.23-.83-1.6-.44-.36-.97-.49-1.58-.39-.88.14-1.67.59-2.37,1.35-.71.76-1.24,1.72-1.59,2.89,2.33-.38,3.49-.57,5.82-.95ZM258.15,469.87c-.54.09-1.01-.01-1.4-.3-.39-.29-.63-.7-.72-1.24-.09-.54,0-1,.29-1.38.28-.38.69-.62,1.23-.71.54-.09,1,0,1.38.28.38.28.62.68.71,1.22.09.55,0,1.03-.28,1.42-.27.39-.68.63-1.22.72Z"/>
    <path class="cls-1" d="M267.78,480.32c-.23-1.4-.34-2.1-.57-3.5,1.06-.17,1.59-.26,2.65-.43-.29-.51-.49-1.06-.58-1.66-.27-1.63-.02-3.01.74-4.12.68-.99,1.68-1.6,3.01-1.82,1.36-.22,2.49.05,3.41.79.79.64,1.29,1.55,1.48,2.75.12.75.18,1.13.31,1.88.21,1.28,0,2.38-.63,3.29-.63.91-1.6,1.47-2.92,1.69-2.76.45-4.14.67-6.89,1.12ZM272.84,467.9c-.54.09-1.01-.01-1.4-.3-.39-.29-.63-.7-.72-1.24-.09-.54,0-1,.29-1.38.28-.38.69-.62,1.23-.71.54-.09,1,0,1.38.28.38.27.62.68.7,1.22.09.55,0,1.03-.28,1.41-.27.39-.68.63-1.22.72ZM274.28,472.78c-.08-.47-.31-.67-.71-.6-.7.11-.96.73-.78,1.83.2,1.23.65,1.78,1.35,1.67.39-.06.55-.33.48-.8-.14-.84-.21-1.26-.34-2.1Z"/>
    <path class="cls-1" d="M279.36,463.55c.24-.69.36-1.04.59-1.74l.72-.12c-.23-.28-.36-.58-.42-.92-.09-.54.04-1.02.37-1.45.3-.39.71-.63,1.23-.72.53-.09,1.03.03,1.52.36.1.62.15.93.25,1.55-.47-.3-.89-.42-1.27-.35-.23.04-.4.12-.5.26-.09.12-.11.26-.09.42.03.2.16.41.39.61.93-.15,1.39-.23,2.32-.38-.24.69-.36,1.04-.59,1.74-1.81.3-2.72.44-4.53.74ZM282.65,477.89c-.74-4.53-1.11-6.79-1.84-11.32,1.32-1.01,1.98-1.51,3.3-2.51.86,5.3,1.3,7.95,2.16,13.24-1.44.24-2.17.35-3.61.59Z"/>
    <path class="cls-1" d="M300,475.06c-1.46.24-2.69-.07-3.68-.93-.84-.73-1.36-1.75-1.58-3.05-.23-1.41.03-2.72.78-3.9.65-1.04,1.62-1.88,2.89-2.54,1.63.26,2.94.88,3.92,1.83.87.85,1.41,1.88,1.61,3.11.24,1.5-.04,2.76-.8,3.77-.68.89-1.65,1.46-2.92,1.67-.09.01-.13.02-.22.04ZM296.02,463.02c-.54.09-1.01-.01-1.4-.3s-.63-.7-.72-1.24c-.09-.54,0-1,.29-1.38.28-.38.69-.62,1.23-.71s1,0,1.38.28c.38.27.62.68.7,1.22.09.56,0,1.03-.27,1.42-.27.39-.68.63-1.22.72ZM299.43,471.56c.09-.01.13-.02.22-.04.63-.1.88-.54.75-1.31-.16-1.01-.64-1.72-1.43-2.15-.6.67-.82,1.47-.66,2.42.13.82.51,1.18,1.12,1.08ZM299.96,462.38c-.54.09-1.01-.01-1.4-.3-.39-.29-.63-.7-.72-1.24-.09-.54,0-1,.29-1.38.28-.38.69-.62,1.23-.71.54-.09,1,0,1.38.28.38.27.62.68.7,1.22.09.56,0,1.03-.27,1.42-.27.39-.68.63-1.22.72Z"/>
    <path class="cls-1" d="M312.24,473.07c-1.37.22-2.51-.04-3.43-.79-.81-.66-1.32-1.6-1.51-2.81-.52-3.17-.77-4.75-1.29-7.92,1.32-1,1.98-1.5,3.3-2.49.63,3.86.94,5.79,1.57,9.65.06.38.17.62.32.73.15.11.42.13.8.07.81-.13,1.22-.2,2.04-.33.23,1.4.34,2.1.57,3.5-.95.15-1.42.23-2.36.39Z"/>
    <path class="cls-1" d="M315.88,474.3c.54-.09,1,0,1.38.28.38.27.62.68.7,1.22.09.55,0,1.03-.28,1.41-.27.39-.68.63-1.22.72-.54.09-1.01-.01-1.4-.3-.39-.29-.63-.7-.72-1.24-.09-.54,0-1,.29-1.38.28-.38.69-.62,1.23-.71ZM321.17,468.02c.81-.13,1.22-.2,2.04-.33.23,1.4.34,2.1.57,3.5-.95.15-1.42.23-2.36.39-.93.15-1.78.07-2.54-.26-.64.56-1.43.91-2.35,1.06-.95.15-1.42.23-2.36.39-.23-1.4-.34-2.1-.57-3.5.81-.13,1.22-.2,2.04-.33.38-.06.62-.17.73-.32.11-.15.13-.42.07-.8-.23-1.44-.35-2.15-.59-3.59,1.32-1,1.98-1.5,3.3-2.49.36,2.2.54,3.3.9,5.49.06.38.17.62.32.73.15.11.42.13.8.07ZM319.82,473.65c.54-.09,1,0,1.38.28.38.27.62.68.7,1.22.09.55,0,1.03-.28,1.41-.27.39-.68.63-1.22.72-.54.09-1.01-.01-1.4-.3-.39-.29-.63-.7-.72-1.24-.09-.54,0-1,.29-1.38.28-.38.69-.62,1.23-.71Z"/>
    <path class="cls-1" d="M336.6,465.5c.74-.12,1.1-.18,1.84-.3.23,1.4.34,2.1.57,3.5-.74.12-1.12.18-1.86.3-1.11.18-2.03.21-2.75.08-.73-.13-1.43-.44-2.11-.93-1.67,1.37-3.64,2.23-5.91,2.6-1.22.2-1.83.3-3.04.5-.23-1.4-.34-2.1-.57-3.5,1.23-.2,1.84-.3,3.06-.5,2.17-.35,3.84-1.2,5-2.54-1.03-1.11-2.1-1.57-3.19-1.39-1.11.18-2.32,1.03-3.63,2.55-.2-1.23-.3-1.85-.5-3.09,1.02-1.65,2.35-2.61,4-2.88.02,0,.03,0,.04,0,1.18-.19,2.4.05,3.65.72s2.42,1.71,3.52,3.12c.08.49.12.74.2,1.23-.08.15-.22.37-.41.67.46.06,1.16.01,2.09-.14Z"/>
    <path class="cls-1" d="M338.57,468.78c-.23-1.4-.34-2.1-.57-3.5.46-.08.7-.11,1.16-.19.55-.09.91-.26,1.07-.5.16-.24.2-.66.1-1.24-.47-2.87-.7-4.31-1.17-7.18,1.32-1.01,1.98-1.51,3.3-2.51.6,3.65.89,5.48,1.49,9.13.25,1.55-.03,2.86-.82,3.93-.74,1-1.82,1.62-3.25,1.85-.53.09-.79.13-1.31.21Z"/>
    <path class="cls-1" d="M368.03,463.97c0,1.44-.66,2.66-1.97,3.62-1.12.83-2.6,1.39-4.42,1.69-2.55.42-4.58,0-6.09-1.23-1.12-.93-1.81-2.16-2.06-3.71-.18-1.08-.09-2.07.26-2.99,1.32-.51,1.98-.77,3.3-1.28-.34,1.03-.43,2.06-.26,3.08.38,2.31,1.82,3.25,4.33,2.85,1.71-.28,2.75-.75,3.14-1.41-.81.13-1.21.2-2.01.33.5-1.52.75-2.28,1.25-3.8,1.62-.26,2.43-.4,4.05-.66.23,1.4.34,2.1.57,3.5-.03,0-.04,0-.07.01ZM360.56,474.52c-.54.09-1.01-.01-1.4-.3-.39-.29-.63-.7-.72-1.24-.09-.54,0-1,.29-1.38.28-.38.69-.62,1.23-.71.54-.09,1,0,1.38.28.38.27.62.68.7,1.22.09.55,0,1.03-.28,1.42-.27.39-.68.63-1.22.72ZM364.5,473.88c-.54.09-1.01-.01-1.4-.3-.39-.29-.63-.7-.72-1.24-.09-.54,0-1,.29-1.38.28-.38.69-.62,1.23-.71.54-.09,1,0,1.38.28.38.27.62.68.7,1.22.09.55,0,1.03-.28,1.42-.27.39-.68.63-1.22.72Z"/>
    <path class="cls-1" d="M380.71,458.31c.74-.12,1.1-.18,1.84-.3.23,1.4.34,2.1.57,3.5-.74.12-1.12.18-1.86.3-1.11.18-2.03.21-2.75.08-.73-.13-1.43-.44-2.11-.93-1.67,1.37-3.64,2.23-5.91,2.6-1.22.2-1.83.3-3.04.5-.23-1.4-.34-2.1-.57-3.5,1.23-.2,1.84-.3,3.06-.5,2.17-.35,3.84-1.2,5-2.54-1.03-1.11-2.1-1.57-3.19-1.39-1.11.18-2.32,1.03-3.63,2.55-.2-1.23-.3-1.85-.5-3.09,1.02-1.65,2.35-2.61,4-2.88.02,0,.03,0,.04,0,1.18-.19,2.4.05,3.65.72,1.25.67,2.42,1.71,3.52,3.12.08.49.12.74.2,1.23-.08.15-.22.37-.41.67.46.06,1.16.01,2.09-.14Z"/>
    <path class="cls-1" d="M389.59,456.86c.43-2.14,1.21-3.94,2.36-5.39,1.25-1.58,2.81-2.53,4.66-2.83,1.8-.29,3.33.11,4.59,1.16,1.08.9,1.76,2.11,2.01,3.63.03.16.04.24.06.39.23,1.4-.04,2.56-.78,3.48-.65.8-1.57,1.31-2.76,1.51-3.92.64-5.88.96-9.81,1.6-.93.15-1.78.07-2.54-.26-.64.56-1.43.91-2.35,1.06-.95.15-1.42.23-2.36.39-.23-1.4-.34-2.1-.57-3.5.81-.13,1.22-.2,2.04-.33.38-.06.62-.17.73-.32.11-.15.13-.42.07-.8-.18-1.09-.27-1.63-.44-2.71,1.32-1,1.98-1.5,3.3-2.49.3,1.85.45,2.77.75,4.62.06.36.16.6.3.72.14.11.38.15.74.1ZM399.64,454.24c-.01-.09-.02-.13-.04-.22-.11-.7-.39-1.23-.83-1.6-.44-.36-.97-.49-1.58-.39-.88.14-1.67.59-2.37,1.35-.71.76-1.24,1.72-1.59,2.89,2.33-.38,3.49-.57,5.82-.95.35-.06.55-.14.61-.25.06-.11.05-.39-.02-.84Z"/>
    <path class="cls-1" d="M411.86,458.47c-.23-1.39-.34-2.09-.57-3.48.47-.41.98-.75,1.54-1.04-.43-.71-.71-1.46-.84-2.27-.29-1.78.05-3.21,1.03-4.28.71-.77,1.63-1.25,2.75-1.44,1.31-.21,2.53.1,3.66.95.21,1.3.32,1.96.53,3.26-1.36-.78-2.44-1.11-3.26-.97-.01,0-.04,0-.09.01-.87.19-1.22.78-1.06,1.79.12.73.44,1.31.96,1.75.37-.09.56-.13.93-.22,1.48-.4,2.74-1.09,3.8-2.06.2,1.31.31,1.96.51,3.26-1.09,1.15-2.72,1.9-4.91,2.26-2.04.33-3.71,1.15-4.99,2.45Z"/>
    <path class="cls-1" d="M425.08,454.68c-.8-4.88-1.19-7.32-1.99-12.19,1.32-1.01,1.98-1.51,3.3-2.51.92,5.65,1.38,8.47,2.3,14.12-1.44.24-2.17.35-3.61.59Z"/>
    <path class="cls-1" d="M430.88,453.73c.5-1.52.75-2.28,1.25-3.8,1.22-.2,1.83-.3,3.04-.5.44-.07.62-.33.55-.76-.2-1.26-1.03-2.15-2.48-2.7.51-1.33.77-2,1.28-3.33,2.44.93,3.98,2.47,4.61,4.6.19.64.39,1.04.6,1.18.2.15.58.18,1.12.09.63-.1.95-.15,1.58-.26.23,1.4.34,2.1.57,3.5-.69.11-1.04.17-1.73.28-.99.16-1.9.09-2.73-.23-.5.53-1.2.87-2.1,1.02-2.21.36-3.32.54-5.54.9ZM434.29,441.15c-.54.09-1.01-.01-1.4-.3-.39-.29-.63-.7-.72-1.24-.09-.54,0-1,.29-1.38.28-.38.69-.62,1.23-.71.54-.09,1,0,1.38.28.38.28.62.68.71,1.22.09.55,0,1.03-.28,1.42-.27.39-.68.63-1.22.72Z"/>
    <path class="cls-1" d="M453.97,446.37l.57,3.5c-4.8.78-7.2,1.17-11.99,1.96-.23-1.4-.34-2.1-.57-3.5.98-.16,1.47-.24,2.45-.4-.32-.56-.53-1.21-.65-1.94-.25-1.56.1-2.92,1.07-4.04.79-.91,1.79-1.46,2.99-1.66,1.63-.27,3.07.24,4.31,1.52.2,1.23.3,1.85.5,3.09-1.33-1.06-2.6-1.49-3.83-1.29-.04,0-.08.01-.11.02-1.05.2-1.48.83-1.31,1.9.2,1.24,1.08,1.73,2.62,1.48,1.58-.26,2.36-.39,3.94-.64ZM447.64,438.98c-.54.09-1.01-.01-1.4-.3-.39-.29-.63-.7-.72-1.24s0-1,.29-1.38c.28-.38.69-.62,1.23-.71.54-.09,1,0,1.38.28.38.28.62.68.7,1.22.09.55,0,1.03-.28,1.42-.27.39-.68.63-1.22.72Z"/>
  </g>
  <g>
    <path class="cls-3" d="M88.84,369.33v-11.79c1.09-.16,2.1-.24,3.02-.24,2.86,0,4.29,1.21,4.29,3.62,0,1.57-.65,2.67-1.94,3.32l2.35,5.09h-1.75l-2.13-4.66c-.16.02-.4.04-.71.04-.44,0-.9-.04-1.4-.13v4.76h-1.73ZM90.57,358.81v4.37c.5.09.96.13,1.4.13,1.57,0,2.35-.8,2.35-2.39,0-1.49-.79-2.24-2.37-2.24-.57,0-1.03.04-1.38.13Z"/>
    <path class="cls-3" d="M92.09,373.2c-5.45,0-9.88-4.43-9.88-9.88s4.43-9.88,9.88-9.88,9.88,4.43,9.88,9.88-4.43,9.88-9.88,9.88ZM92.09,354.12c-5.07,0-9.2,4.13-9.2,9.2s4.13,9.2,9.2,9.2,9.2-4.13,9.2-9.2-4.13-9.2-9.2-9.2Z"/>
  </g>
</svg>